<svg width="55" height="20" viewBox="0 0 55 20" fill="none" xmlns="http://www.w3.org/2000/svg">
<path d="M5.49707 5.34693H7.3666L6.43182 2.96875L5.49707 5.34693Z" fill="#228FE0"/>
<path d="M28.6909 4.49734C28.8609 4.41236 28.9459 4.15743 28.9459 3.90249C29.0308 3.56257 28.8609 3.39261 28.6909 3.30764C28.521 3.22266 28.266 3.22266 28.0111 3.22266H26.3115V4.58232H28.0111C28.266 4.58232 28.521 4.58232 28.6909 4.49734Z" fill="#228FE0"/>
<path d="M15.2677 9.17341L15.6926 8.15366V9.17341H27.5034V6.96395H27.6734C27.8433 6.96395 27.8433 6.96395 27.8433 7.21888V9.08843H33.9618V8.57855C34.4717 8.83349 35.2365 9.08843 36.2563 9.08843H38.8056L39.3155 7.72876H40.5052L41.0151 9.08843H45.9439V7.81374L46.7087 9.08843H50.7027V0.761719H46.8787V1.78147L46.3688 0.761719H42.3748V1.78147L41.8649 0.761719H36.4262C35.4915 0.761719 34.7266 0.931679 34.0468 1.27159V0.761719H30.2228V1.27159C29.7979 0.931679 29.288 0.761719 28.6082 0.761719H14.9278L13.993 2.88619L13.0582 0.761719H8.72431V1.78147L8.21443 0.761719H4.56034L2.86075 4.75573L0.90625 9.17464H2.86075H5.24017L5.75005 7.81497H6.93976L7.44964 9.17464H12.3784V8.15489L12.8033 9.17464L15.2677 9.17341ZM34.3018 2.63125C34.7267 2.12138 35.4915 1.95142 36.4262 1.95142H37.7859V3.22611H36.4262C35.9164 3.22611 35.6614 3.31109 35.3215 3.56603C35.0666 3.82096 34.8966 4.33083 34.8966 4.92568C34.8966 5.60552 34.9816 6.03042 35.3215 6.37033C35.5764 6.62527 35.9164 6.71025 36.3413 6.71025H36.9361L38.8906 2.0364H41.0151L43.3945 7.72999V2.0364H45.519L47.9834 6.20037V2.0364H49.428V7.89995H47.5572L44.8379 3.39607V7.89995H41.9486L41.4388 6.62527H38.4645L37.9546 7.98493H36.34C35.6602 7.98493 34.8104 7.81497 34.3005 7.30509C33.7906 6.79522 33.5357 6.11539 33.5357 5.01066C33.5369 4.15964 33.7069 3.31109 34.3018 2.63125ZM31.4125 1.86644H32.8571V7.89995H31.4125V1.86644ZM24.8703 1.95142H28.0995C28.8643 1.95142 29.3742 1.95142 29.7991 2.20636C30.224 2.46129 30.4789 2.88619 30.4789 3.56603C30.4789 4.50079 29.8841 5.01066 29.4592 5.18062C29.8841 5.2656 30.139 5.52054 30.309 5.6905C30.4789 6.03041 30.5639 6.28535 30.5639 6.79523V7.98493H29.1193V7.21888C29.1193 6.87897 29.1193 6.3691 28.8643 6.02918C28.6094 5.77425 28.3545 5.77425 27.8446 5.77425H26.315V7.9837H24.8703V1.95142ZM19.1767 1.95142H23.9356V3.22611H20.6214V4.33084H23.8506V5.52054H20.6214V6.71025H23.9356V7.98493H19.1767V1.95142ZM11.3599 3.22488V7.89872H8.47061L7.87575 6.62404H4.98648L4.4766 7.9837H2.86199L5.41137 1.95142H7.53584L9.91526 7.64501V1.95142H12.2097L14.0792 6.03042L15.7788 1.95142H18.1582V7.89995H16.7136V3.22611L14.6741 7.89995H13.3994L11.3599 3.22488Z" fill="#228FE0"/>
<path d="M39.9924 2.96875L38.9727 5.34693H40.9272L39.9924 2.96875Z" fill="#228FE0"/>
<path d="M24.5298 17.5848V12.7422L22.3203 15.1216L24.5298 17.5848Z" fill="#228FE0"/>
<path d="M15.4385 13.3359V14.4407H18.5827V15.6304H15.4385V16.9038H18.9226L20.5372 15.1205L19.0076 13.3359H15.4385Z" fill="#228FE0"/>
<path d="M27.7592 13.3359H25.9746V14.8656H27.8441C28.354 14.8656 28.6939 14.6106 28.6939 14.1008C28.6089 13.5909 28.269 13.3359 27.7592 13.3359Z" fill="#228FE0"/>
<path d="M54.0173 14.7811V10.957H52.9975H50.4482C49.6834 10.957 49.0885 11.127 48.6636 11.4669V10.957H44.7546C44.1597 10.957 43.3949 11.127 43.055 11.4669V10.957H36.1717V11.4669C35.6618 11.042 34.7271 10.957 34.3022 10.957H29.7133V11.4669C29.2884 11.042 28.2687 10.957 27.7588 10.957H22.66L21.4703 12.2317L20.3656 10.957H12.7188V19.2837H20.1957L21.3854 18.0091L22.4901 19.2837H27.079V17.3292H27.6738C28.2687 17.3292 29.0335 17.3292 29.6283 17.0743V19.3687H33.4524V17.1593H33.6223C33.8773 17.1593 33.8773 17.1593 33.8773 17.4142V19.3687H45.4332C46.198 19.3687 46.9628 19.1988 47.3877 18.8588V19.3687H51.0418C51.8066 19.3687 52.5714 19.2837 53.0813 18.9438C53.9311 18.434 54.441 17.4992 54.441 16.3945C54.4422 15.8008 54.2722 15.206 54.0173 14.7811ZM27.6763 16.1407H25.9767V18.1802H23.2574L21.5578 16.2257L19.7732 18.1802H14.1646V12.1467H19.8582L21.5578 14.1013L23.3423 12.1467H27.8462C28.951 12.1467 30.2256 12.4867 30.2256 14.1013C30.1407 15.8008 28.951 16.1407 27.6763 16.1407ZM36.1742 15.8008C36.3441 16.0558 36.4291 16.3957 36.4291 16.9056V18.0953H34.9845V17.3292C34.9845 16.9893 34.9845 16.3945 34.7295 16.1395C34.5596 15.8846 34.2197 15.8846 33.7098 15.8846H32.1802V18.094H30.7355V12.0605H33.9647C34.6446 12.0605 35.2394 12.0605 35.6643 12.3155C36.0892 12.5704 36.4291 12.9953 36.4291 13.6751C36.4291 14.6099 35.8343 15.1198 35.4094 15.2897C35.8343 15.4609 36.0892 15.6309 36.1742 15.8008ZM42.0365 13.3364H38.7223V14.4412H41.9515V15.6309H38.7223V16.8206H42.0365V18.0953H37.2777V12.0618H42.0365V13.3364ZM45.6056 18.094H42.8863V16.8194H45.6056C45.8605 16.8194 46.0305 16.8194 46.2005 16.6494C46.2854 16.5644 46.3704 16.3945 46.3704 16.2245C46.3704 16.0545 46.2854 15.8846 46.2005 15.7996C46.1155 15.7146 45.9455 15.6296 45.6906 15.6296C44.3309 15.5447 42.7163 15.6296 42.7163 13.7601C42.7163 12.9103 43.2262 11.9756 44.7558 11.9756H47.5601V13.4202H44.9258C44.6708 13.4202 44.5009 13.4202 44.3309 13.5052C44.161 13.5901 44.161 13.7601 44.161 13.9301C44.161 14.185 44.3309 14.27 44.5009 14.355C44.6708 14.4399 44.8408 14.4399 45.0107 14.4399H45.7756C46.5404 14.4399 47.0503 14.6099 47.3902 14.9498C47.6451 15.2047 47.8151 15.6296 47.8151 16.2245C47.8151 17.4992 47.0502 18.094 45.6056 18.094ZM52.9126 17.4992C52.5726 17.8391 51.9778 18.094 51.128 18.094H48.4087V16.8194H51.128C51.383 16.8194 51.5529 16.8194 51.7229 16.6494C51.8078 16.5644 51.8928 16.3945 51.8928 16.2245C51.8928 16.0545 51.8078 15.8846 51.7229 15.7996C51.6379 15.7146 51.4679 15.6296 51.213 15.6296C49.8533 15.5447 48.2387 15.6296 48.2387 13.7601C48.2387 12.9103 48.7486 11.9756 50.2782 11.9756H53.0825V13.4202H50.5332C50.2782 13.4202 50.1083 13.4202 49.9383 13.5052C49.7683 13.5901 49.7683 13.7601 49.7683 13.9301C49.7683 14.185 49.8533 14.27 50.1083 14.355C50.2782 14.4399 50.4482 14.4399 50.6181 14.4399H51.383C52.1478 14.4399 52.6576 14.6099 52.9975 14.9498C53.0825 14.9498 53.0825 15.0348 53.0825 15.0348C53.3375 15.3747 53.4224 15.7996 53.4224 16.2245C53.4224 16.7344 53.2525 17.1593 52.9126 17.4992Z" fill="#228FE0"/>
<path d="M34.6431 13.5069C34.4731 13.4219 34.2182 13.4219 33.9633 13.4219H32.2637V14.7815H33.9633C34.2182 14.7815 34.4731 14.7815 34.6431 14.6966C34.813 14.6116 34.898 14.3566 34.898 14.1017C34.983 13.7618 34.813 13.5918 34.6431 13.5069Z" fill="#228FE0"/>
</svg>
