<svg width="223" height="26" viewBox="0 0 223 26" fill="none" xmlns="http://www.w3.org/2000/svg">
<path d="M193.188 0.705246H191.185V23.0484C191.185 24.4253 191.922 25.2451 193.156 25.2451H195.157V2.77063C195.159 1.53498 194.367 0.705246 193.188 0.705246Z" fill="url(#paint0_linear_166_132682)"/>
<path d="M222.921 14.2642C222.733 19.6625 219.621 23.7574 214.987 25.1881C213.819 25.5482 212.553 25.7393 211.213 25.7393C204.452 25.7393 199.157 20.15 199.157 13.0067C199.157 5.97086 204.566 0.24231 211.213 0.24231C215 0.24231 218.511 2.08484 220.836 5.30031L220.956 5.46745L219.24 6.49417C218.852 6.71902 218.499 6.82647 218.156 6.82647C217.647 6.82647 217.163 6.59764 216.582 6.0803C215.076 4.63772 213.223 3.87563 211.213 3.87563C206.74 3.87563 203.098 7.97457 203.098 13.0067C203.098 13.335 203.114 13.6574 203.144 13.9777C203.562 18.5243 206.914 22.0184 211.118 22.1079H211.266C215.374 22.1079 218.564 19.4536 218.93 15.7685H212.312C211.061 15.7685 210.343 15.0263 210.343 13.735V12.0337H222.841L222.856 12.1989C222.921 12.9012 222.921 13.7529 222.921 14.2642Z" fill="url(#paint1_linear_166_132682)"/>
<path d="M9.6765 7.75066L17.823 12.9698L9.6765 18.2029V16.3763C9.6765 15.6501 10.0467 14.9815 10.6466 14.6194L13.3919 12.9698L10.6447 11.3084C10.0467 10.9462 9.6784 10.2777 9.6784 9.55538V7.75066H9.6765Z" fill="url(#paint2_linear_166_132682)"/>
<path d="M24.3629 16.2165C23.6833 18.9863 22.155 21.3999 20.0856 23.131C17.9745 24.8999 15.2995 25.9565 12.3834 25.9565C11.5993 25.9565 10.8323 25.8789 10.0881 25.7336C6.84354 25.0969 4.04705 23.133 2.22448 20.401C0.701884 18.1188 -0.137254 15.2973 0.0184232 12.2649C0.365849 5.46779 5.85632 0.0158189 12.3511 -9.92307e-05C15.3014 -0.0100481 18.0105 1.06244 20.1407 2.86119C20.6267 3.27109 21.0823 3.71679 21.5019 4.19832C21.5038 4.20031 21.5057 4.2023 21.5076 4.20429C21.519 4.21822 21.5323 4.23016 21.5456 4.24409C21.5456 4.24608 21.5475 4.24608 21.5475 4.24608C21.5494 4.24806 21.5532 4.25204 21.555 4.25403C21.6481 4.36148 21.7373 4.47092 21.8265 4.58036C21.8588 4.62015 21.8892 4.65796 21.9196 4.69775C21.9234 4.70372 21.9291 4.70969 21.9328 4.71566C21.9822 4.77535 22.0278 4.83505 22.0733 4.89474C22.1189 4.95443 22.1645 5.01413 22.2081 5.07382C22.21 5.0778 22.2119 5.07979 22.2138 5.08178C22.2214 5.09372 22.2309 5.10367 22.2385 5.1156C22.248 5.12754 22.2556 5.13749 22.2632 5.14943C22.2936 5.19122 22.3239 5.233 22.3543 5.27678C22.3638 5.2907 22.3733 5.30264 22.3828 5.31657C22.4265 5.37826 22.4682 5.43994 22.51 5.50162C22.5651 5.58519 22.6163 5.67075 22.6638 5.75631C22.679 5.78218 22.6922 5.80805 22.7055 5.83391C22.9466 6.3035 23.0587 6.80094 23.0587 7.28645C23.0587 7.33022 23.0568 7.374 23.0549 7.41777C23.053 7.45558 23.0511 7.49139 23.0492 7.52721C23.0473 7.55905 23.0435 7.59088 23.0397 7.62073C23.0378 7.63267 23.0378 7.64461 23.0359 7.65455C23.0321 7.69236 23.0264 7.72818 23.0207 7.76598C23.0169 7.78787 23.015 7.80777 23.0112 7.82965C23.0112 7.83164 23.0093 7.83363 23.0093 7.83363C23.0055 7.85353 23.0017 7.87542 22.9979 7.89532C22.9941 7.9172 22.9884 7.93909 22.9846 7.95899C22.9751 8.00276 22.9656 8.04455 22.9542 8.08832C22.9429 8.13011 22.9315 8.1719 22.9182 8.21567C22.9125 8.23756 22.9049 8.25745 22.8992 8.27735C22.8916 8.29924 22.8859 8.31914 22.8783 8.33904C22.8707 8.35893 22.8631 8.38082 22.8555 8.40072C22.8251 8.4823 22.791 8.56388 22.7549 8.64148C22.7359 8.68128 22.7169 8.72107 22.6979 8.75888C22.679 8.79867 22.6581 8.83648 22.6353 8.8723C22.6239 8.8902 22.6144 8.9101 22.603 8.92801C22.5916 8.94592 22.5802 8.96581 22.5688 8.98372C22.5575 9.00163 22.5461 9.01954 22.5328 9.03944C22.5214 9.05734 22.5081 9.07525 22.4967 9.09316C22.4606 9.14688 22.4227 9.19862 22.3828 9.25035L22.3809 9.25234C22.3543 9.28617 22.3277 9.318 22.3012 9.35183C22.2879 9.36775 22.2727 9.38566 22.2594 9.39958C22.2442 9.4155 22.2309 9.43142 22.2157 9.44734C22.1872 9.47918 22.1569 9.50902 22.1265 9.54086C22.1113 9.55678 22.0961 9.5707 22.0809 9.58662C22.0657 9.60055 22.0487 9.61647 22.0335 9.6304C22.0012 9.66024 21.9689 9.6881 21.9366 9.71596C21.9196 9.72989 21.9025 9.74381 21.8854 9.75575C21.7981 9.8254 21.7069 9.88907 21.612 9.94677C21.5968 9.95672 21.5797 9.96667 21.5645 9.97463C21.5456 9.98657 21.5266 9.99652 21.5076 10.0085C21.4032 10.0662 21.2931 10.1179 21.181 10.1637C21.1659 10.1696 21.1488 10.1756 21.1336 10.1816C21.1051 10.1935 21.0766 10.2015 21.0481 10.2114C21.0292 10.2174 21.0102 10.2234 20.9912 10.2293C20.9153 10.2532 20.8374 10.2731 20.7577 10.291C20.733 10.297 20.7083 10.301 20.6836 10.3069C20.6665 10.3109 20.6476 10.3129 20.6305 10.3169C20.6077 10.3208 20.5849 10.3248 20.5621 10.3288C20.5507 10.3308 20.5393 10.3328 20.528 10.3328C20.509 10.3368 20.4881 10.3388 20.4672 10.3407C20.4235 10.3447 20.3799 10.3487 20.3343 10.3527C20.3172 10.3547 20.2982 10.3547 20.2812 10.3567C20.2603 10.3587 20.2394 10.3587 20.2166 10.3587C20.19 10.3587 20.1634 10.3606 20.1369 10.3606C19.0851 6.92431 16.0133 4.4351 12.3853 4.4351C9.70269 4.4351 7.32197 5.79611 5.83734 7.89532V7.89731C5.46333 8.4246 5.15008 8.99765 4.90137 9.60652C4.64128 10.2432 4.45333 10.9178 4.34701 11.6222C4.235 12.3683 4.21222 13.1443 4.29765 13.9402C4.41726 15.0804 4.75899 16.1569 5.27728 17.1239C5.52029 17.5775 5.80127 18.0054 6.11642 18.4053C6.19046 18.4988 6.2683 18.5923 6.34614 18.6859C6.57396 18.9485 6.81507 19.1972 7.07136 19.43C7.10554 19.4619 7.14161 19.4917 7.17768 19.5235C7.20806 19.5514 7.23843 19.5773 7.27071 19.6031C7.32197 19.6469 7.37323 19.6887 7.42449 19.7305C7.45296 19.7544 7.48334 19.7782 7.51182 19.8001C7.58776 19.8598 7.6637 19.9195 7.74154 19.9752C7.77951 20.0051 7.81937 20.0329 7.85924 20.0588C7.89152 20.0827 7.92569 20.1065 7.95797 20.1284C7.96176 20.1304 7.96556 20.1324 7.96936 20.1364C8.01872 20.1702 8.06808 20.2021 8.11744 20.2339C8.19148 20.2836 8.26742 20.3314 8.34526 20.3772C8.37943 20.3971 8.41171 20.417 8.44588 20.4368C8.45727 20.4448 8.47056 20.4508 8.48385 20.4587C8.51802 20.4786 8.5522 20.4985 8.58637 20.5164C8.59207 20.5204 8.59776 20.5224 8.60156 20.5264C8.64143 20.5483 8.6813 20.5702 8.72116 20.5901C8.8066 20.6358 8.89203 20.6796 8.97936 20.7214C9.02303 20.7433 9.06669 20.7632 9.11036 20.7831C9.15402 20.805 9.19769 20.8229 9.24135 20.8428C9.41791 20.9204 9.59827 20.994 9.78053 21.0577C9.8185 21.0716 9.85837 21.0855 9.89634 21.0975C9.89824 21.0975 9.90203 21.0994 9.90393 21.0994C9.91153 21.1034 9.91912 21.1054 9.92671 21.1074C9.93051 21.1094 9.93431 21.1114 9.9381 21.1114C9.97797 21.1253 10.0178 21.1373 10.0558 21.1492C10.0976 21.1631 10.1393 21.1751 10.183 21.189C10.1944 21.193 10.2058 21.195 10.2172 21.1989C10.3045 21.2248 10.3899 21.2467 10.4792 21.2686C10.5266 21.2805 10.5741 21.2925 10.6216 21.3024C10.707 21.3223 10.7924 21.3402 10.8779 21.3561C10.8836 21.3581 10.8893 21.3581 10.895 21.3601C10.9101 21.3641 10.9234 21.3661 10.9386 21.3681C10.9424 21.3681 10.9462 21.3701 10.95 21.3701C10.9842 21.378 11.0203 21.384 11.0563 21.388C11.1038 21.3959 11.1531 21.4039 11.2025 21.4118C12.1518 21.5511 13.0725 21.5193 13.9458 21.3422C14.0617 21.3203 14.1756 21.2944 14.2876 21.2646C14.3635 21.2467 14.4376 21.2268 14.5135 21.2049C14.8116 21.1213 15.1039 21.0179 15.3868 20.9005C15.4931 20.8567 15.5994 20.8089 15.702 20.7612C15.7361 20.7453 15.7722 20.7293 15.8064 20.7114C15.8747 20.6776 15.9431 20.6438 16.0114 20.608C16.112 20.5562 16.2127 20.5005 16.3114 20.4428C16.3133 20.4428 16.3152 20.4408 16.3171 20.4388C16.3816 20.401 16.4462 20.3632 16.5107 20.3234C16.543 20.3035 16.5753 20.2836 16.6075 20.2617C16.6721 20.222 16.7366 20.1782 16.7993 20.1344C16.8316 20.1145 16.8619 20.0926 16.8942 20.0687C16.9265 20.0469 16.9569 20.025 16.9872 20.0031C17.0081 19.9892 17.0271 19.9752 17.048 19.9593C17.1201 19.9076 17.1923 19.8519 17.2625 19.7961C17.2853 19.7782 17.3081 19.7623 17.329 19.7424C17.4011 19.6847 17.4714 19.627 17.5416 19.5653C17.5625 19.5474 17.5834 19.5295 17.6043 19.5116C17.6365 19.4838 17.6688 19.4539 17.7011 19.426C17.7296 19.4002 17.758 19.3743 17.7865 19.3484C17.815 19.3226 17.8435 19.2967 17.8701 19.2689C17.9536 19.1893 18.0352 19.1077 18.115 19.0241C18.1415 18.9982 18.1681 18.9684 18.1947 18.9405C18.2441 18.8888 18.2915 18.8371 18.3371 18.7833C18.3675 18.7495 18.3978 18.7157 18.4263 18.6819C18.451 18.652 18.4776 18.6242 18.5004 18.5943C18.5744 18.5048 18.6484 18.4152 18.7187 18.3237C18.7434 18.2939 18.7661 18.262 18.7889 18.2322C18.8136 18.2003 18.8345 18.1705 18.8573 18.1387C18.8801 18.1068 18.9028 18.075 18.9256 18.0432C18.9484 18.0113 18.9712 17.9795 18.9921 17.9476C19.0376 17.882 19.0794 17.8183 19.1231 17.7507C19.1648 17.687 19.2066 17.6213 19.2465 17.5557C19.2484 17.5537 19.2484 17.5517 19.2503 17.5497C19.2655 17.5238 19.2806 17.4999 19.2958 17.4741C19.3129 17.4462 19.3281 17.4184 19.3452 17.3905C19.3566 17.3726 19.368 17.3527 19.3775 17.3328C19.3889 17.3149 19.3983 17.295 19.4097 17.2751C19.4344 17.2333 19.4572 17.1915 19.48 17.1478C19.7875 16.5767 20.3457 16.2066 20.9722 16.2066H24.3629V16.2165Z" fill="url(#paint3_linear_166_132682)"/>
<path d="M20.9705 16.2147C20.344 16.2147 19.7859 16.5848 19.4783 17.1558C19.4555 17.1976 19.4328 17.2394 19.4081 17.2832C19.3967 17.3031 19.3872 17.321 19.3758 17.3409C19.3644 17.3608 19.353 17.3787 19.3435 17.3986C19.3264 17.4264 19.3112 17.4543 19.2942 17.4821C19.279 17.508 19.2638 17.5339 19.2486 17.5578C19.2467 17.5597 19.2467 17.5617 19.2448 17.5637C19.2049 17.6294 19.1651 17.695 19.1214 17.7587C19.0777 17.8244 19.0341 17.89 18.9904 17.9557C18.9695 17.9875 18.9467 18.0194 18.924 18.0512C18.9012 18.0831 18.8784 18.1149 18.8556 18.1467C18.8328 18.1786 18.81 18.2084 18.7873 18.2402C18.7645 18.2721 18.7417 18.3019 18.717 18.3318C18.6468 18.4233 18.5746 18.5148 18.4987 18.6024C18.474 18.6322 18.4493 18.6621 18.4246 18.6899C18.3962 18.7238 18.3658 18.7576 18.3354 18.7914C18.2898 18.8451 18.2424 18.8969 18.193 18.9486C18.1683 18.9765 18.1399 19.0043 18.1133 19.0322C18.0336 19.1157 17.9519 19.1973 17.8684 19.2769C17.8418 19.3048 17.8133 19.3306 17.7848 19.3565C17.7564 19.3824 17.7279 19.4102 17.6994 19.4341C17.6671 19.464 17.6349 19.4918 17.6026 19.5197C17.5817 19.5376 17.5608 19.5555 17.5399 19.5734C17.4697 19.6331 17.3995 19.6928 17.3273 19.7505C17.3045 19.7684 17.2836 19.7863 17.2609 19.8042C17.1906 19.8599 17.1185 19.9156 17.0463 19.9674C17.0254 19.9833 17.0065 19.9972 16.9856 20.0111C16.9552 20.035 16.9229 20.0569 16.8926 20.0768C16.8622 20.0987 16.8299 20.1206 16.7976 20.1425C16.735 20.1862 16.6704 20.228 16.6059 20.2698C16.5736 20.2917 16.5413 20.3116 16.5091 20.3315C16.4445 20.3713 16.38 20.4091 16.3154 20.4469C16.3135 20.4489 16.3116 20.4489 16.3097 20.4509C16.211 20.5086 16.1104 20.5643 16.0097 20.616C15.9414 20.6519 15.8731 20.6857 15.8047 20.7195C15.7705 20.7374 15.7364 20.7533 15.7003 20.7692C15.5959 20.819 15.4915 20.8648 15.3851 20.9085C15.1023 21.0279 14.8099 21.1294 14.5118 21.213C14.4378 21.2349 14.3618 21.2548 14.2859 21.2727C14.172 21.3025 14.0581 21.3284 13.9442 21.3503C13.0728 21.5293 12.1501 21.5592 11.2008 21.4199C11.1515 21.4119 11.1021 21.404 11.0547 21.396C11.0186 21.3901 10.9844 21.3841 10.9483 21.3781C10.9445 21.3781 10.9407 21.3761 10.9369 21.3761C10.9218 21.3741 10.9085 21.3721 10.8933 21.3682C10.8876 21.3662 10.8819 21.3662 10.8762 21.3642C10.7908 21.3483 10.7053 21.3304 10.6199 21.3105C10.5724 21.3005 10.525 21.2886 10.4775 21.2766C10.3902 21.2548 10.3028 21.2309 10.2155 21.207C10.2041 21.203 10.1927 21.201 10.1813 21.197C10.1377 21.1851 10.0959 21.1712 10.0541 21.1573C10.0143 21.1453 9.9744 21.1334 9.93643 21.1194C9.93264 21.1175 9.92884 21.1155 9.92504 21.1155C9.91745 21.1135 9.90985 21.1115 9.90226 21.1075C9.90036 21.1075 9.89656 21.1055 9.89467 21.1055C9.8548 21.0936 9.81683 21.0797 9.77886 21.0657C9.5966 21.0021 9.41624 20.9304 9.23968 20.8508C9.19602 20.8329 9.15235 20.813 9.10869 20.7911C9.06502 20.7712 9.02135 20.7513 8.97769 20.7295C8.89036 20.6877 8.80492 20.6439 8.71949 20.5981C8.67962 20.5782 8.63975 20.5563 8.59989 20.5345C8.59419 20.5325 8.5885 20.5285 8.5847 20.5245C8.55053 20.5066 8.51635 20.4867 8.48218 20.4668C8.46889 20.4588 8.4575 20.4529 8.44421 20.4449C8.41004 20.425 8.37586 20.4051 8.34359 20.3852C8.26765 20.3395 8.19171 20.2917 8.11577 20.242C8.06641 20.2101 8.01705 20.1783 7.96768 20.1445C7.96389 20.1425 7.96009 20.1405 7.95629 20.1365C7.92402 20.1146 7.88985 20.0907 7.85757 20.0669C7.8177 20.039 7.77783 20.0111 7.73986 19.9833C7.66203 19.9276 7.58419 19.8679 7.51015 19.8082C7.47977 19.7863 7.45129 19.7624 7.42281 19.7385C7.37155 19.6968 7.32029 19.655 7.26904 19.6112C7.23676 19.5853 7.20638 19.5575 7.17601 19.5316C7.13994 19.4998 7.10576 19.4699 7.06969 19.4381C6.81339 19.2053 6.57228 18.9566 6.34446 18.6939C6.26663 18.6024 6.18689 18.5089 6.11474 18.4134C5.79959 18.0134 5.51862 17.5856 5.27561 17.1319C4.75732 16.1649 4.41558 15.0884 4.29598 13.9483C4.21244 13.1524 4.23333 12.3764 4.34534 11.6302C4.45166 10.9258 4.63961 10.2513 4.8997 9.61458C5.15031 9.00571 5.46356 8.43266 5.83567 7.90537V7.90338C7.32219 5.80417 9.70292 4.44117 12.3855 4.44117C16.0135 4.44117 19.0853 6.93038 20.1371 10.3667C20.1637 10.3667 20.1903 10.3667 20.2168 10.3647C20.2377 10.3647 20.2605 10.3627 20.2814 10.3627C20.2985 10.3627 20.3175 10.3607 20.3345 10.3588C20.3801 10.3548 20.4238 10.3528 20.4674 10.3468C20.4883 10.3448 20.5073 10.3428 20.5282 10.3389C20.5396 10.3369 20.551 10.3349 20.5624 10.3349C20.5851 10.3309 20.6079 10.3289 20.6307 10.3229C20.6497 10.319 20.6668 10.317 20.6839 10.313C20.7085 10.309 20.7351 10.303 20.7579 10.2971C20.8376 10.2792 20.9155 10.2593 20.9914 10.2354C21.0104 10.2294 21.0294 10.2235 21.0484 10.2175C21.0769 10.2075 21.1053 10.1976 21.1338 10.1876C21.1509 10.1817 21.1661 10.1757 21.1813 10.1697C21.2952 10.124 21.4034 10.0722 21.5078 10.0145C21.5268 10.0026 21.5458 9.99264 21.5648 9.9807C21.5819 9.97075 21.597 9.96279 21.6122 9.95284C21.7072 9.89514 21.7983 9.82948 21.8856 9.76183C21.9027 9.7479 21.9198 9.73596 21.9369 9.72203C21.9692 9.69417 22.0033 9.66632 22.0337 9.63647C22.0508 9.62254 22.066 9.60662 22.0812 9.5927C22.0963 9.57877 22.1134 9.56285 22.1267 9.54693C22.1571 9.51708 22.1875 9.48525 22.216 9.45341C22.2311 9.43749 22.2444 9.42157 22.2596 9.40566C22.2748 9.38974 22.2881 9.37382 22.3014 9.3579C22.328 9.32607 22.3545 9.29224 22.3811 9.25841C22.3811 9.25841 22.3811 9.25642 22.383 9.25642C22.4229 9.20469 22.4609 9.15296 22.4969 9.09923C22.5083 9.08132 22.5216 9.06342 22.533 9.04551C22.5444 9.0276 22.5577 9.00969 22.5691 8.98979C22.5805 8.97189 22.5919 8.95398 22.6033 8.93408C22.6146 8.91617 22.626 8.89627 22.6355 8.87837C22.6583 8.84056 22.6773 8.80275 22.6982 8.76495C22.7172 8.72714 22.7361 8.68735 22.7551 8.64755C22.7912 8.56796 22.8254 8.48837 22.8558 8.40679C22.8633 8.38689 22.8709 8.36699 22.8785 8.34511C22.8861 8.32521 22.8918 8.30332 22.8994 8.28342C22.907 8.26353 22.9127 8.24164 22.9184 8.22174C22.9317 8.17996 22.9431 8.13817 22.9545 8.0944C22.9659 8.05261 22.9754 8.00884 22.9848 7.96506C22.9886 7.94317 22.9943 7.92129 22.9981 7.90139C23.0019 7.88149 23.0057 7.8596 23.0095 7.83971C23.0095 7.83772 23.0095 7.83573 23.0114 7.83573C23.0152 7.81384 23.0171 7.79394 23.0209 7.77205C23.0266 7.73624 23.0323 7.69843 23.0361 7.66063C23.038 7.64869 23.038 7.63675 23.0399 7.6268C23.0437 7.59496 23.0456 7.56512 23.0494 7.53328C23.0532 7.49747 23.0551 7.45966 23.0551 7.42384C23.057 7.38007 23.0589 7.33629 23.0589 7.29252C23.0589 6.80701 22.9488 6.30957 22.7058 5.83998C22.6925 5.81412 22.6792 5.78825 22.664 5.76238C22.6184 5.67682 22.5672 5.59126 22.5102 5.50769C22.4685 5.44601 22.4267 5.38433 22.383 5.32264C22.3735 5.30872 22.364 5.29479 22.3545 5.28285C22.3242 5.24106 22.2938 5.19729 22.2634 5.1555C22.2558 5.14356 22.2463 5.13362 22.2387 5.12168C22.2311 5.10974 22.2217 5.0978 22.2141 5.08785C22.2122 5.08387 22.2103 5.08188 22.2084 5.07989C22.1647 5.0202 22.121 4.9605 22.0736 4.90081C22.028 4.84112 21.9824 4.78142 21.9331 4.72173C21.9293 4.71576 21.9236 4.70979 21.9198 4.70382V4.70183C21.804 4.54663 21.6825 4.39939 21.5553 4.25812C21.5534 4.25414 21.5496 4.25215 21.5477 4.25016C21.5477 4.25016 21.5477 4.25016 21.5458 4.24817C21.5325 4.23424 21.5211 4.22031 21.5078 4.20837C21.5059 4.20638 21.504 4.20439 21.5021 4.2024C21.0807 3.72088 20.625 3.27517 20.1409 2.86528C19.5372 2.43946 18.7189 2.01166 17.652 1.73707C17.6444 1.73508 17.6387 1.73309 17.6311 1.73309C17.1375 1.60774 16.5888 1.51422 15.9851 1.46845C13.2436 1.22371 11.1667 1.97585 11.1667 1.97585C10.8952 2.06141 10.6275 2.15691 10.3636 2.26237C10.2345 2.31411 10.1073 2.36783 9.982 2.42553C9.9763 2.41758 9.97061 2.42156 9.97061 2.42156C5.80529 4.2999 2.8721 8.79679 2.8721 14.0498C2.8721 19.3525 5.86224 23.8872 10.0902 25.7317C10.8325 25.877 11.6014 25.9546 12.3855 25.9546C15.3016 25.9546 17.9766 24.898 20.0877 23.1291C22.1571 21.4 23.6854 18.9844 24.3651 16.2147H20.9705Z" fill="url(#paint4_linear_166_132682)"/>
<path d="M24.3614 16.2157H20.9668C20.3422 16.2157 19.7822 16.5858 19.4746 17.1569C18.288 19.3655 16.1883 20.9653 13.7107 21.3931C12.9077 21.5324 12.0647 21.5483 11.199 21.419C9.63656 21.1882 8.21078 20.4738 7.06409 19.4332C7.06409 19.4332 7.3014 19.7157 7.77413 20.0997C7.8102 20.1276 7.84817 20.1555 7.88614 20.1853C7.89183 20.1893 7.89753 20.1953 7.90323 20.1992C8.28672 20.4679 8.68731 20.7126 9.10308 20.9355C9.11637 20.9414 9.12776 20.9474 9.14105 20.9554C9.18092 20.9772 9.22079 20.9971 9.26066 21.015C9.98588 21.3871 10.7567 21.6836 11.5635 21.8925C11.5654 21.8925 11.5673 21.8945 11.5692 21.8945C12.1103 22.0338 12.6666 22.1353 13.238 22.193C13.6842 22.2388 14.1265 22.2567 14.5632 22.2487C15.2599 22.2368 15.9434 22.1592 16.6079 22.0219C16.6212 22.0199 16.6344 22.0179 16.6477 22.0159L16.6496 22.0139C19.9246 21.3274 22.7533 19.1864 24.3614 16.2157Z" fill="url(#paint5_linear_166_132682)"/>
<path d="M118.518 16.2474C117.838 19.0172 116.31 21.4308 114.24 23.1619C112.129 24.9308 109.454 25.9873 106.538 25.9873C105.754 25.9873 104.987 25.9097 104.243 25.7645C100.998 25.1278 98.2016 23.1638 96.3791 20.4319C94.8565 18.1496 94.0173 15.3281 94.173 12.2957C94.5204 5.49865 100.011 0.0466722 106.506 0.030754C109.456 0.0208052 112.165 1.09329 114.295 2.89205C114.781 3.30194 115.237 3.74765 115.656 4.22917C115.658 4.23116 115.66 4.23315 115.662 4.23514C115.674 4.24907 115.687 4.26101 115.7 4.27494C115.7 4.27693 115.702 4.27693 115.702 4.27693C115.704 4.27892 115.708 4.2829 115.71 4.28489C115.803 4.39234 115.892 4.50177 115.981 4.61121C116.013 4.65101 116.044 4.68881 116.074 4.72861C116.078 4.73458 116.084 4.74055 116.087 4.74651C116.137 4.80621 116.182 4.8659 116.228 4.92559C116.273 4.98529 116.319 5.04498 116.363 5.10467C116.365 5.10865 116.367 5.11064 116.368 5.11263C116.376 5.12457 116.385 5.13452 116.393 5.14646C116.403 5.1584 116.41 5.16835 116.418 5.18028C116.448 5.22207 116.479 5.26386 116.509 5.30763C116.518 5.32156 116.528 5.3335 116.537 5.34743C116.581 5.40911 116.623 5.47079 116.665 5.53247C116.72 5.61604 116.771 5.70161 116.818 5.78717C116.834 5.81303 116.847 5.8389 116.86 5.86477C117.101 6.33435 117.213 6.8318 117.213 7.3173C117.213 7.36107 117.211 7.40485 117.209 7.44863C117.208 7.48643 117.206 7.52225 117.204 7.55806C117.202 7.5899 117.198 7.62174 117.194 7.65158C117.192 7.66352 117.192 7.67546 117.19 7.68541C117.187 7.72321 117.181 7.75903 117.175 7.79684C117.171 7.81872 117.17 7.83862 117.166 7.86051C117.166 7.8625 117.164 7.86449 117.164 7.86449C117.16 7.88439 117.156 7.90627 117.152 7.92617C117.149 7.94806 117.143 7.96995 117.139 7.98984C117.13 8.03362 117.12 8.0754 117.109 8.11918C117.097 8.16096 117.086 8.20275 117.073 8.24652C117.067 8.26841 117.059 8.28831 117.054 8.30821C117.046 8.33009 117.04 8.34999 117.033 8.36989C117.025 8.38979 117.018 8.41167 117.01 8.43157C116.98 8.51315 116.946 8.59473 116.909 8.67234C116.89 8.71213 116.872 8.75193 116.853 8.78973C116.834 8.82953 116.813 8.86733 116.79 8.90315C116.778 8.92106 116.769 8.94095 116.758 8.95886C116.746 8.97677 116.735 8.99667 116.723 9.01458C116.712 9.03248 116.701 9.05039 116.687 9.07029C116.676 9.0882 116.663 9.10611 116.651 9.12401C116.615 9.17774 116.577 9.22947 116.537 9.28121L116.535 9.2832C116.509 9.31702 116.482 9.34886 116.456 9.38268C116.442 9.3986 116.427 9.41651 116.414 9.43044C116.399 9.44636 116.385 9.46227 116.37 9.47819C116.342 9.51003 116.311 9.53988 116.281 9.57171C116.266 9.58763 116.251 9.60156 116.236 9.61748C116.22 9.63141 116.203 9.64732 116.188 9.66125C116.156 9.6911 116.123 9.71896 116.091 9.74681C116.074 9.76074 116.057 9.77467 116.04 9.78661C115.953 9.85625 115.861 9.91992 115.767 9.97763C115.751 9.98757 115.734 9.99752 115.719 10.0055C115.7 10.0174 115.681 10.0274 115.662 10.0393C115.558 10.097 115.448 10.1487 115.336 10.1945C115.32 10.2005 115.303 10.2064 115.288 10.2124C115.26 10.2244 115.231 10.2323 115.203 10.2423C115.184 10.2482 115.165 10.2542 115.146 10.2602C115.07 10.2841 114.992 10.3039 114.912 10.3219C114.888 10.3278 114.863 10.3318 114.838 10.3378C114.821 10.3418 114.802 10.3437 114.785 10.3477C114.762 10.3517 114.739 10.3557 114.717 10.3597C114.705 10.3617 114.694 10.3636 114.683 10.3636C114.664 10.3676 114.643 10.3696 114.622 10.3716C114.578 10.3756 114.534 10.3796 114.489 10.3835C114.472 10.3855 114.453 10.3855 114.436 10.3875C114.415 10.3895 114.394 10.3895 114.371 10.3895C114.345 10.3895 114.318 10.3915 114.291 10.3915C113.24 6.95516 110.168 4.46596 106.54 4.46596C103.857 4.46596 101.477 5.82696 99.9919 7.92617V7.92816C99.6179 8.45545 99.3047 9.0285 99.056 9.63737C98.7959 10.2741 98.6079 10.9486 98.5016 11.653C98.3896 12.3992 98.3668 13.1752 98.4522 13.9711C98.5718 15.1112 98.9136 16.1877 99.4319 17.1547C99.6749 17.6084 99.9558 18.0362 100.271 18.4361C100.345 18.5297 100.423 18.6232 100.501 18.7167C100.729 18.9794 100.97 19.2281 101.226 19.4609C101.26 19.4927 101.296 19.5226 101.332 19.5544C101.363 19.5823 101.393 19.6081 101.425 19.634C101.477 19.6778 101.528 19.7196 101.579 19.7613C101.608 19.7852 101.638 19.8091 101.666 19.831C101.742 19.8907 101.818 19.9504 101.896 20.0061C101.934 20.0359 101.974 20.0638 102.014 20.0896C102.046 20.1135 102.08 20.1374 102.113 20.1593C102.116 20.1613 102.12 20.1633 102.124 20.1672C102.173 20.2011 102.223 20.2329 102.272 20.2647C102.346 20.3145 102.422 20.3622 102.5 20.408C102.534 20.4279 102.566 20.4478 102.6 20.4677C102.612 20.4757 102.625 20.4816 102.638 20.4896C102.673 20.5095 102.707 20.5294 102.741 20.5473C102.747 20.5513 102.752 20.5533 102.756 20.5572C102.796 20.5791 102.836 20.601 102.876 20.6209C102.961 20.6667 103.047 20.7105 103.134 20.7522C103.178 20.7741 103.221 20.794 103.265 20.8139C103.309 20.8358 103.352 20.8537 103.396 20.8736C103.572 20.9512 103.753 21.0248 103.935 21.0885C103.973 21.1024 104.013 21.1164 104.051 21.1283C104.053 21.1283 104.057 21.1303 104.059 21.1303C104.066 21.1343 104.074 21.1363 104.081 21.1383C104.085 21.1402 104.089 21.1422 104.093 21.1422C104.133 21.1562 104.172 21.1681 104.21 21.18C104.252 21.194 104.294 21.2059 104.338 21.2198C104.349 21.2238 104.36 21.2258 104.372 21.2298C104.459 21.2557 104.545 21.2775 104.634 21.2994C104.681 21.3114 104.729 21.3233 104.776 21.3333C104.862 21.3532 104.947 21.3711 105.032 21.387C105.038 21.389 105.044 21.389 105.05 21.391C105.065 21.3949 105.078 21.3969 105.093 21.3989C105.097 21.3989 105.101 21.4009 105.105 21.4009C105.139 21.4089 105.175 21.4148 105.211 21.4188C105.258 21.4268 105.308 21.4347 105.357 21.4427C106.306 21.582 107.227 21.5501 108.1 21.3731C108.216 21.3512 108.33 21.3253 108.442 21.2955C108.518 21.2775 108.592 21.2576 108.668 21.2358C108.966 21.1522 109.259 21.0487 109.541 20.9313C109.648 20.8875 109.754 20.8398 109.857 20.792C109.891 20.7761 109.927 20.7602 109.961 20.7423C110.029 20.7085 110.098 20.6746 110.166 20.6388C110.267 20.5871 110.367 20.5314 110.466 20.4737C110.468 20.4737 110.47 20.4717 110.472 20.4697C110.536 20.4319 110.601 20.3941 110.665 20.3543C110.698 20.3344 110.73 20.3145 110.762 20.2926C110.827 20.2528 110.891 20.209 110.954 20.1653C110.986 20.1454 111.017 20.1235 111.049 20.0996C111.081 20.0777 111.111 20.0558 111.142 20.0339C111.163 20.02 111.182 20.0061 111.203 19.9902C111.275 19.9384 111.347 19.8827 111.417 19.827C111.44 19.8091 111.463 19.7932 111.484 19.7733C111.556 19.7156 111.626 19.6579 111.696 19.5962C111.717 19.5783 111.738 19.5604 111.759 19.5425C111.791 19.5146 111.823 19.4848 111.856 19.4569C111.884 19.431 111.913 19.4052 111.941 19.3793C111.97 19.3534 111.998 19.3276 112.025 19.2997C112.108 19.2201 112.19 19.1385 112.27 19.055C112.296 19.0291 112.323 18.9993 112.349 18.9714C112.399 18.9197 112.446 18.8679 112.492 18.8142C112.522 18.7804 112.552 18.7466 112.581 18.7127C112.606 18.6829 112.632 18.655 112.655 18.6252C112.729 18.5356 112.803 18.4461 112.873 18.3546C112.898 18.3247 112.921 18.2929 112.943 18.263C112.968 18.2312 112.989 18.2014 113.012 18.1695C113.035 18.1377 113.057 18.1058 113.08 18.074C113.103 18.0422 113.126 18.0103 113.147 17.9785C113.192 17.9128 113.234 17.8492 113.278 17.7815C113.319 17.7178 113.361 17.6522 113.401 17.5865C113.403 17.5845 113.403 17.5825 113.405 17.5805C113.42 17.5547 113.435 17.5308 113.45 17.5049C113.467 17.4771 113.483 17.4492 113.5 17.4214C113.511 17.4035 113.523 17.3836 113.532 17.3637C113.543 17.3458 113.553 17.3259 113.564 17.306C113.589 17.2642 113.612 17.2224 113.635 17.1786C113.942 16.6075 114.5 16.2374 115.127 16.2374H118.518V16.2474Z" fill="url(#paint6_linear_166_132682)"/>
<path d="M115.123 16.2479C114.497 16.2479 113.938 16.618 113.631 17.1891C113.608 17.2309 113.585 17.2727 113.561 17.3165C113.549 17.3364 113.54 17.3543 113.528 17.3742C113.517 17.3941 113.506 17.412 113.496 17.4319C113.479 17.4597 113.464 17.4876 113.447 17.5154C113.432 17.5413 113.416 17.5672 113.401 17.591C113.399 17.593 113.399 17.595 113.397 17.597C113.357 17.6627 113.318 17.7283 113.274 17.792C113.23 17.8577 113.187 17.9233 113.143 17.989C113.122 18.0208 113.099 18.0527 113.077 18.0845C113.054 18.1163 113.031 18.1482 113.008 18.18C112.985 18.2118 112.963 18.2417 112.94 18.2735C112.917 18.3054 112.894 18.3352 112.87 18.3651C112.799 18.4566 112.727 18.5481 112.651 18.6357C112.627 18.6655 112.602 18.6954 112.577 18.7232C112.549 18.757 112.518 18.7909 112.488 18.8247C112.442 18.8784 112.395 18.9302 112.346 18.9819C112.321 19.0097 112.292 19.0376 112.266 19.0655C112.186 19.149 112.104 19.2306 112.021 19.3102C111.994 19.3381 111.966 19.3639 111.937 19.3898C111.909 19.4157 111.88 19.4435 111.852 19.4674C111.82 19.4972 111.787 19.5251 111.755 19.553C111.734 19.5709 111.713 19.5888 111.693 19.6067C111.622 19.6664 111.552 19.7261 111.48 19.7838C111.457 19.8017 111.436 19.8196 111.413 19.8375C111.343 19.8932 111.271 19.9489 111.199 20.0007C111.178 20.0166 111.159 20.0305 111.138 20.0444C111.108 20.0683 111.075 20.0902 111.045 20.1101C111.015 20.132 110.982 20.1539 110.95 20.1758C110.888 20.2195 110.823 20.2613 110.758 20.3031C110.726 20.325 110.694 20.3449 110.662 20.3648C110.597 20.4046 110.533 20.4424 110.468 20.4802C110.466 20.4822 110.464 20.4822 110.462 20.4842C110.364 20.5419 110.263 20.5976 110.162 20.6493C110.094 20.6851 110.026 20.719 109.957 20.7528C109.923 20.7707 109.889 20.7866 109.853 20.8025C109.748 20.8523 109.644 20.898 109.538 20.9418C109.255 21.0612 108.962 21.1627 108.664 21.2463C108.59 21.2681 108.514 21.288 108.438 21.3059C108.325 21.3358 108.211 21.3617 108.097 21.3835C107.225 21.5626 106.303 21.5925 105.353 21.4532C105.304 21.4452 105.255 21.4373 105.207 21.4293C105.171 21.4233 105.137 21.4174 105.101 21.4114C105.097 21.4114 105.093 21.4094 105.09 21.4094C105.074 21.4074 105.061 21.4054 105.046 21.4015C105.04 21.3995 105.034 21.3995 105.029 21.3975C104.943 21.3816 104.858 21.3636 104.772 21.3438C104.725 21.3338 104.678 21.3219 104.63 21.3099C104.543 21.288 104.455 21.2642 104.368 21.2403C104.357 21.2363 104.345 21.2343 104.334 21.2303C104.29 21.2184 104.248 21.2045 104.207 21.1905C104.167 21.1786 104.127 21.1667 104.089 21.1527C104.085 21.1507 104.081 21.1488 104.078 21.1488C104.07 21.1468 104.062 21.1448 104.055 21.1408C104.053 21.1408 104.049 21.1388 104.047 21.1388C104.007 21.1269 103.969 21.1129 103.931 21.099C103.749 21.0353 103.569 20.9637 103.392 20.8841C103.349 20.8662 103.305 20.8463 103.261 20.8244C103.218 20.8045 103.174 20.7846 103.13 20.7627C103.043 20.721 102.957 20.6772 102.872 20.6314C102.832 20.6115 102.792 20.5896 102.752 20.5677C102.747 20.5658 102.743 20.5618 102.737 20.5578C102.703 20.5399 102.669 20.52 102.635 20.5001C102.621 20.4921 102.61 20.4862 102.597 20.4782C102.563 20.4583 102.528 20.4384 102.496 20.4185C102.42 20.3727 102.344 20.325 102.268 20.2752C102.219 20.2434 102.17 20.2116 102.12 20.1777C102.116 20.1758 102.113 20.1738 102.109 20.1698C102.077 20.1479 102.042 20.124 102.01 20.1001C101.97 20.0723 101.93 20.0444 101.892 20.0166C101.815 19.9609 101.737 19.9012 101.663 19.8415C101.632 19.8196 101.604 19.7957 101.575 19.7718C101.524 19.73 101.473 19.6883 101.422 19.6445C101.389 19.6186 101.359 19.5908 101.329 19.5649C101.292 19.5331 101.258 19.5032 101.222 19.4714C100.966 19.2386 100.725 18.9899 100.497 18.7272C100.419 18.6357 100.339 18.5422 100.267 18.4466C99.9522 18.0467 99.6712 17.6189 99.4282 17.1652C98.9099 16.1982 98.5681 15.1217 98.4485 13.9816C98.365 13.1857 98.3859 12.4097 98.4979 11.6635C98.6042 10.9591 98.7922 10.2846 99.0523 9.64787C99.3029 9.039 99.6161 8.46595 99.9882 7.93866V7.93667C101.473 5.83746 103.854 4.47645 106.536 4.47645C110.164 4.47645 113.236 6.96566 114.288 10.402C114.314 10.402 114.341 10.402 114.367 10.4C114.388 10.4 114.411 10.398 114.432 10.398C114.449 10.398 114.468 10.396 114.485 10.394C114.531 10.3901 114.574 10.3881 114.618 10.3821C114.639 10.3801 114.658 10.3781 114.679 10.3741C114.69 10.3721 114.702 10.3702 114.713 10.3702C114.736 10.3662 114.759 10.3642 114.781 10.3582C114.8 10.3542 114.817 10.3523 114.835 10.3483C114.859 10.3443 114.886 10.3383 114.909 10.3324C114.988 10.3144 115.066 10.2945 115.142 10.2707C115.161 10.2647 115.18 10.2587 115.199 10.2528C115.228 10.2428 115.256 10.2329 115.284 10.2229C115.302 10.2169 115.317 10.211 115.332 10.205C115.446 10.1592 115.554 10.1075 115.658 10.0498C115.677 10.0379 115.696 10.0279 115.715 10.016C115.733 10.006 115.748 9.99807 115.763 9.98812C115.858 9.93042 115.949 9.86475 116.036 9.7971C116.053 9.78317 116.07 9.77124 116.088 9.75731C116.12 9.72945 116.154 9.70159 116.184 9.67175C116.201 9.65782 116.217 9.6419 116.232 9.62797C116.247 9.61404 116.264 9.59813 116.277 9.58221C116.308 9.55236 116.338 9.52052 116.367 9.48869C116.382 9.47277 116.395 9.45685 116.41 9.44093C116.425 9.42501 116.439 9.4091 116.452 9.39318C116.479 9.36134 116.505 9.32752 116.532 9.29369C116.532 9.29369 116.532 9.2917 116.534 9.2917C116.574 9.23997 116.612 9.18823 116.648 9.13451C116.659 9.1166 116.672 9.09869 116.684 9.08078C116.695 9.06288 116.708 9.04497 116.72 9.02507C116.731 9.00716 116.743 8.98926 116.754 8.96936C116.765 8.95145 116.777 8.93155 116.786 8.91364C116.809 8.87584 116.828 8.83803 116.849 8.80023C116.868 8.76242 116.887 8.72263 116.906 8.68283C116.942 8.60324 116.976 8.52365 117.006 8.44207C117.014 8.42217 117.022 8.40227 117.029 8.38039C117.037 8.36049 117.042 8.3386 117.05 8.3187C117.058 8.2988 117.063 8.27692 117.069 8.25702C117.082 8.21523 117.094 8.17345 117.105 8.12967C117.117 8.08789 117.126 8.04411 117.136 8.00034C117.139 7.97845 117.145 7.95656 117.149 7.93667C117.153 7.91677 117.156 7.89488 117.16 7.87498C117.16 7.87299 117.16 7.871 117.162 7.871C117.166 7.84912 117.168 7.82922 117.172 7.80733C117.177 7.77151 117.183 7.73371 117.187 7.6959C117.189 7.68396 117.189 7.67203 117.191 7.66208C117.194 7.63024 117.196 7.60039 117.2 7.56856C117.204 7.53274 117.206 7.49494 117.206 7.45912C117.208 7.41535 117.21 7.37157 117.21 7.3278C117.21 6.84229 117.099 6.34485 116.856 5.87526C116.843 5.84939 116.83 5.82353 116.815 5.79766C116.769 5.7121 116.718 5.62654 116.661 5.54297C116.619 5.48129 116.577 5.4196 116.534 5.35792C116.524 5.34399 116.515 5.33007 116.505 5.31813C116.475 5.27634 116.444 5.23257 116.414 5.19078C116.406 5.17884 116.397 5.16889 116.389 5.15695C116.382 5.14502 116.372 5.13308 116.365 5.12313C116.363 5.11915 116.361 5.11716 116.359 5.11517C116.315 5.05548 116.272 4.99578 116.224 4.93609C116.179 4.8764 116.133 4.8167 116.084 4.75701C116.08 4.75104 116.074 4.74507 116.07 4.7391V4.73711C115.955 4.58191 115.833 4.43467 115.706 4.29339C115.704 4.28941 115.7 4.28742 115.698 4.28543C115.698 4.28543 115.698 4.28543 115.696 4.28344C115.683 4.26952 115.672 4.25559 115.658 4.24365C115.657 4.24166 115.655 4.23967 115.653 4.23768C115.231 3.75616 114.776 3.31045 114.292 2.90055C113.688 2.47474 112.87 2.04694 111.803 1.77235C111.795 1.77036 111.789 1.76837 111.782 1.76837C111.288 1.64302 110.739 1.5495 110.136 1.50373C107.394 1.25899 105.317 2.01112 105.317 2.01112C105.046 2.09668 104.778 2.19219 104.514 2.29765C104.385 2.34939 104.258 2.40311 104.133 2.46081C104.125 2.46479 104.119 2.46678 104.119 2.46678C99.956 4.34513 97.0228 8.84201 97.0228 14.095C97.0228 19.3978 100.013 23.9324 104.241 25.777C104.983 25.9222 105.752 25.9998 106.536 25.9998C109.452 25.9998 112.127 24.9432 114.238 23.1743C116.308 21.4452 117.836 19.0296 118.516 16.2599H115.123V16.2479Z" fill="url(#paint7_linear_166_132682)"/>
<path d="M58.5334 21.7113H57.4911V4.20924H58.3492C58.3284 3.04323 58.3416 1.87523 58.4043 0.705246H53.5175V25.2491H58.503C58.503 24.0692 58.5201 22.8892 58.5334 21.7113Z" fill="url(#paint8_linear_166_132682)"/>
<path d="M73.2099 6.94915C71.469 2.95767 67.7916 0.705246 62.6713 0.705246H54.5192C56.1576 0.705246 57.4884 2.10008 57.4884 3.81725V4.20924H62.3258C63.5807 4.20924 66.7303 4.49178 68.6858 7.10435C69.5306 8.23454 70.1552 9.79851 70.3071 11.9614C70.3337 12.2957 70.3451 12.6439 70.3451 13.008C70.3451 20.8636 64.7388 21.7093 62.3277 21.7093H57.4903V22.1351C57.4903 23.8523 56.1595 25.2471 54.5211 25.2471H62.7511C69.9673 25.2471 74.2921 20.7164 74.3471 13.1194V12.9762C74.3452 10.676 73.9541 8.65439 73.2099 6.94915Z" fill="url(#paint9_linear_166_132682)"/>
<path d="M188.672 0.705246V2.24334C188.672 3.51281 187.964 4.24107 186.732 4.24107H176.288V11.6371H185.22C185.238 11.6371 185.255 11.643 185.275 11.643C185.319 11.647 185.365 11.653 185.408 11.6589C185.467 11.6689 185.522 11.6769 185.577 11.6928C185.638 11.7107 185.699 11.7286 185.758 11.7545C185.762 11.7545 185.763 11.7545 185.767 11.7584C186.08 11.8838 186.352 12.1047 186.54 12.3892C186.728 12.6717 186.842 13.0199 186.842 13.39C186.842 14.3551 186.096 15.1371 185.175 15.1371H184.765C184.738 15.141 184.712 15.143 184.683 15.143H176.288V23.1837C176.288 24.3258 175.405 25.2471 174.315 25.2471H172.314V0.705246H188.672Z" fill="url(#paint10_linear_166_132682)"/>
<path d="M188.894 0.705246V2.24334C188.894 3.51281 188.186 4.24306 186.954 4.24306H175.66C173.812 4.24306 172.316 2.67512 172.316 0.739072V0.705246H188.894Z" fill="url(#paint11_linear_166_132682)"/>
<path d="M49.1177 8.40734C48.7721 7.39654 48.3127 6.45538 47.7526 5.59381C45.6111 2.29277 42.0002 0.211472 37.7456 0.211472C35.3782 0.211472 33.2101 0.862126 31.3856 2.01023C28.2189 4.00995 26.0869 7.52189 25.7414 11.7482C25.7376 11.7661 25.7357 11.784 25.7357 11.7999C25.7072 12.1601 25.692 12.5242 25.6901 12.8923V12.9779C25.6901 13.4255 25.711 13.8673 25.7509 14.2991C25.7547 14.3448 25.7566 14.3866 25.7623 14.4304C26.3983 20.9728 31.3363 25.7422 37.7456 25.7422C44.2005 25.7422 49.1746 20.9509 49.7954 14.3826C49.8391 13.923 49.8619 13.4534 49.8619 12.9798C49.8619 11.3522 49.6037 9.81411 49.1177 8.40734ZM45.8902 12.9779C45.8902 16.263 44.417 19.0924 42.1539 20.6902C41.7534 20.9767 41.3262 21.2235 40.8782 21.4264C39.9175 21.8682 38.86 22.1089 37.7437 22.1089C36.6027 22.1089 35.5206 21.8522 34.5447 21.3906C31.6476 20.0177 29.6618 16.8062 29.6618 12.9779C29.6618 12.566 29.6846 12.1581 29.7339 11.7621C30.2598 7.29904 33.6524 3.84679 37.7437 3.84679C38.1481 3.84679 38.543 3.88061 38.9284 3.94428C39.1866 3.98607 39.4429 4.04178 39.6954 4.11143C41.8597 4.70836 43.686 6.28227 44.7815 8.38944C45.3662 9.50968 45.7421 10.7792 45.8541 12.1342C45.8788 12.4128 45.8902 12.6913 45.8902 12.9779Z" fill="url(#paint12_linear_166_132682)"/>
<path d="M40.8765 21.4256C41.0515 21.3458 41.2227 21.2602 41.392 21.1625C41.2893 21.2323 41.1942 21.302 41.1048 21.3698C41.0287 21.3937 40.9526 21.4116 40.8765 21.4256Z" fill="url(#paint13_linear_166_132682)"/>
<path d="M45.1023 16.9614C45.0985 16.9614 45.0985 16.9654 45.0966 16.9654C45.6054 15.7655 45.8902 14.4145 45.8902 12.9759C45.8902 12.6893 45.8788 12.4088 45.856 12.1322C45.7459 10.7772 45.3681 9.50769 44.7834 8.38745C43.6879 6.28028 41.8616 4.70637 39.6973 4.10944C39.4448 4.03979 39.1885 3.98408 38.9303 3.94229C38.543 3.87862 38.1481 3.8448 37.7456 3.8448C33.6562 3.8448 30.2617 7.29705 29.7358 11.7601C29.6865 12.1561 29.6637 12.564 29.6637 12.9759C29.6637 16.8022 31.6514 20.0157 34.5466 21.3886C30.7098 20.4455 27.5279 17.8608 25.8173 14.4324C25.7945 14.3866 25.7718 14.3408 25.7509 14.2991C25.711 13.8673 25.6901 13.4256 25.6901 12.9779V12.7888C25.6901 12.4545 25.7053 12.1242 25.7357 11.7999C25.7357 11.784 25.7395 11.7661 25.7414 11.7482C26.0869 7.5219 28.2189 4.01194 31.3856 2.01023C33.2101 0.862127 35.3763 0.211472 37.7456 0.211472C41.0718 0.211472 44.0031 1.48095 46.1465 3.61199C46.1465 3.61199 46.4541 3.90449 46.885 4.41586C46.9439 4.4855 46.9989 4.55316 47.0559 4.62678C47.0768 4.65065 47.0995 4.67851 47.1166 4.70637C47.3426 4.9929 47.5533 5.28738 47.7526 5.5958C48.3127 6.45737 48.7721 7.39853 49.1177 8.40933C49.1727 8.57051 49.2278 8.73566 49.2752 8.9028C49.8733 11.4 49.2809 14.3926 45.1023 16.9614Z" fill="url(#paint14_linear_166_132682)"/>
<path d="M45.856 12.1356C45.7459 10.7806 45.3681 9.51114 44.7834 8.3909C43.6879 6.28373 41.8616 4.70982 39.6973 4.11289C39.4448 4.04324 39.1885 3.98753 38.9303 3.94575C38.543 3.88207 38.1481 3.84825 37.7456 3.84825C33.6562 3.84825 30.2617 7.3005 29.7358 11.7636C29.6865 12.1595 29.6637 12.5674 29.6637 12.9793C29.6637 16.8056 31.6514 20.0191 34.5466 21.3921C35.5225 21.8557 36.6027 22.1104 37.7456 22.1104C38.8619 22.1104 39.9194 21.8696 40.8801 21.4279C41.3281 21.2229 41.7553 20.9782 42.1558 20.6917C41.8825 20.9165 41.5958 21.1294 41.2996 21.3244C39.7144 22.375 37.8197 22.9839 35.7826 22.9839C30.7648 22.9839 26.5995 19.2809 25.8173 14.4338C25.7395 13.9324 25.6958 13.4171 25.6901 12.8938V12.7903C25.6901 12.456 25.7053 12.1257 25.7357 11.8014C25.7357 11.7854 25.7395 11.7675 25.7414 11.7496C26.2578 6.60806 30.5579 2.59668 35.7807 2.59668C41.1382 2.59668 45.5219 6.81102 45.856 12.1356Z" fill="url(#paint15_linear_166_132682)"/>
<path d="M42.1555 20.6908C41.9105 20.8639 41.656 21.025 41.394 21.1663C41.6275 21.0071 41.8801 20.8499 42.1555 20.6908Z" fill="url(#paint16_linear_166_132682)"/>
<path d="M143.74 12.9739C143.74 12.4983 143.717 12.0307 143.673 11.5711C143.052 5.00284 138.078 0.211472 131.623 0.211472C125.214 0.211472 120.276 4.97897 119.64 11.5233C119.634 11.5651 119.63 11.6089 119.629 11.6547C119.589 12.0864 119.568 12.5282 119.568 12.9759V13.0614C119.572 13.4295 119.585 13.7956 119.613 14.1538C119.613 14.1697 119.617 14.1876 119.619 14.2055C119.965 18.4318 122.097 21.9418 125.263 23.9435C127.088 25.0916 129.254 25.7422 131.623 25.7422C135.88 25.7422 139.491 23.6589 141.63 20.3599C142.19 19.4983 142.65 18.5572 142.995 17.5464C143.479 16.1376 143.74 14.5995 143.74 12.9739ZM139.734 13.8175C139.624 15.1726 139.246 16.442 138.661 17.5623C137.566 19.6695 135.739 21.2434 133.575 21.8403C133.322 21.9099 133.066 21.9656 132.808 22.0074C132.421 22.0711 132.026 22.1049 131.623 22.1049C127.534 22.1049 124.139 18.6527 123.614 14.1896C123.564 13.7937 123.541 13.3858 123.541 12.9739C123.541 9.14754 125.529 5.93406 128.424 4.56111C129.4 4.0975 130.48 3.84281 131.623 3.84281C132.74 3.84281 133.797 4.08357 134.758 4.5253C135.206 4.73024 135.633 4.97499 136.034 5.26151C138.297 6.8593 139.77 9.68876 139.77 12.9739C139.768 13.2604 139.757 13.539 139.734 13.8175Z" fill="url(#paint17_linear_166_132682)"/>
<path d="M134.754 4.52336C134.929 4.60307 135.1 4.68877 135.27 4.78642C135.167 4.71667 135.072 4.64692 134.982 4.57916C134.906 4.55525 134.83 4.53731 134.754 4.52336Z" fill="url(#paint18_linear_166_132682)"/>
<path d="M138.98 8.98588C138.976 8.98588 138.976 8.9819 138.974 8.9819C139.483 10.1817 139.768 11.5328 139.768 12.9714C139.768 13.2579 139.757 13.5385 139.734 13.8151C139.624 15.1701 139.246 16.4396 138.661 17.5598C137.566 19.667 135.739 21.2409 133.575 21.8378C133.322 21.9075 133.066 21.9632 132.808 22.005C132.421 22.0686 132.026 22.1025 131.623 22.1025C127.534 22.1025 124.139 18.6502 123.614 14.1871C123.564 13.7912 123.541 13.3833 123.541 12.9714C123.541 9.14506 125.529 5.93158 128.424 4.55864C124.587 5.50179 121.406 8.08651 119.695 11.5149C119.672 11.5606 119.649 11.6064 119.629 11.6482C119.589 12.08 119.568 12.5217 119.568 12.9694V13.1584C119.568 13.4927 119.583 13.823 119.613 14.1474C119.613 14.1633 119.617 14.1812 119.619 14.1991C119.965 18.4254 122.097 21.9353 125.263 23.937C127.088 25.0851 129.254 25.7358 131.623 25.7358C134.949 25.7358 137.881 24.4663 140.024 22.3353C140.024 22.3353 140.332 22.0428 140.763 21.5314C140.822 21.4618 140.877 21.3941 140.934 21.3205C140.954 21.2966 140.977 21.2687 140.994 21.2409C141.22 20.9544 141.431 20.6599 141.63 20.3515C142.19 19.4899 142.65 18.5487 142.995 17.5379C143.05 17.3768 143.105 17.2116 143.153 17.0445C143.751 14.5473 143.159 11.5547 138.98 8.98588Z" fill="url(#paint19_linear_166_132682)"/>
<path d="M139.734 13.8197C139.624 15.1747 139.246 16.4442 138.661 17.5644C137.566 19.6716 135.739 21.2455 133.575 21.8424C133.322 21.9121 133.066 21.9678 132.808 22.0096C132.421 22.0733 132.026 22.1071 131.623 22.1071C127.534 22.1071 124.139 18.6548 123.614 14.1918C123.564 13.7958 123.541 13.3879 123.541 12.976C123.541 9.14968 125.529 5.9362 128.424 4.56325C129.4 4.09964 130.48 3.84495 131.623 3.84495C132.74 3.84495 133.797 4.08571 134.758 4.52744C135.206 4.73238 135.633 4.97713 136.034 5.26365C135.76 5.03881 135.473 4.8259 135.177 4.63091C133.592 3.58031 131.697 2.97144 129.66 2.97144C124.643 2.97144 120.477 6.6744 119.695 11.5215C119.617 12.0229 119.574 12.5383 119.568 13.0616V13.165C119.568 13.4993 119.583 13.8296 119.613 14.154C119.613 14.1699 119.617 14.1878 119.619 14.2057C120.135 19.3473 124.436 23.3586 129.658 23.3586C135.014 23.3586 139.4 19.1443 139.734 13.8197Z" fill="url(#paint20_linear_166_132682)"/>
<path d="M136.033 5.26347C135.788 5.09036 135.534 4.92919 135.272 4.78792C135.505 4.9471 135.758 5.10429 136.033 5.26347Z" fill="url(#paint21_linear_166_132682)"/>
<path d="M220.958 5.46978L219.241 6.4965C218.854 6.72135 218.501 6.82879 218.157 6.82879C217.649 6.82879 217.164 6.59997 216.584 6.08263C216.124 5.64488 215.634 5.26682 215.116 4.95642C215.116 4.95642 215.112 4.95244 215.105 4.95045C214.725 4.72162 214.328 4.53061 213.92 4.3754C213.066 4.04709 212.16 3.87995 211.215 3.87995C206.742 3.87995 203.1 7.97888 203.1 13.011C203.1 13.3393 203.116 13.6617 203.146 13.982H203.142C203.142 13.982 203.383 26.2012 214.987 25.1924C213.819 25.5526 212.553 25.7436 211.213 25.7436C204.452 25.7436 199.157 20.1543 199.157 13.011C199.157 9.77963 200.298 6.82481 202.176 4.5704C202.18 4.5704 202.18 4.5704 202.181 4.56642C204.389 1.91804 207.623 0.246628 211.213 0.246628C215 0.246628 218.511 2.08916 220.836 5.30463L220.958 5.46978Z" fill="url(#paint22_linear_166_132682)"/>
<path d="M220.96 5.46978L219.244 6.4965C218.856 6.72135 218.503 6.82879 218.159 6.82879C217.651 6.82879 217.167 6.59997 216.586 6.08263C216.126 5.64488 215.636 5.26682 215.118 4.95642C215.118 4.95642 215.114 4.95244 215.107 4.95045C215.031 4.91065 214.598 4.67586 213.922 4.3754C211.435 3.27307 205.652 1.26738 202.185 4.56642C204.393 1.91804 207.627 0.246628 211.217 0.246628C215.004 0.246628 218.514 2.08916 220.84 5.30463L220.96 5.46978Z" fill="url(#paint23_linear_166_132682)"/>
<path d="M81.6581 4.27635H92.2936C93.5257 4.27635 94.2338 3.5461 94.2338 2.27663V0.77037C94.2338 0.752462 94.2224 0.740524 94.2054 0.740524H77.6846C77.6675 0.740524 77.6561 0.752462 77.6561 0.77037V25.2167V25.2505H94.2357V23.7124C94.2357 22.443 93.5276 21.7127 92.2955 21.7127H81.6316V14.9435C81.6316 14.9256 81.643 14.9137 81.66 14.9137H89.3794H89.5882H90.0267C90.9475 14.9137 91.6955 14.1297 91.6955 13.1647C91.6955 12.1996 90.9475 11.4157 90.0267 11.4157H89.8578C89.8027 11.4097 89.7705 11.4097 89.7705 11.4097H81.6619C81.6449 11.4097 81.6335 11.3977 81.6335 11.3798V4.3062C81.6297 4.28829 81.6411 4.27635 81.6581 4.27635Z" fill="url(#paint24_linear_166_132682)"/>
<path d="M165.675 24.5602L163.866 22.5685L158.941 17.1523L151.357 8.80718V23.1136C151.357 24.3891 150.552 25.2447 149.356 25.2447H147.387V0.700851H147.875C148.526 0.700851 149.151 0.98141 149.601 1.47686L157.612 10.2736C157.612 10.2736 157.616 10.2776 157.618 10.2836L163.866 17.1423V19.8186C163.866 20.702 164.029 21.5656 164.337 22.3735C164.641 23.1773 165.094 23.9195 165.675 24.5602Z" fill="url(#paint25_linear_166_132682)"/>
<path d="M167.84 0.700851V25.2447H167.2C166.625 25.2447 166.076 24.998 165.677 24.5602C164.515 23.2828 163.868 21.5835 163.868 19.8186V2.8319C163.868 1.65594 164.777 0.700851 165.901 0.700851H167.84Z" fill="url(#paint26_linear_166_132682)"/>
<path d="M151.357 8.80879V23.1133C151.357 24.3887 150.552 25.2443 149.356 25.2443H147.387V14.2468C147.387 13.3634 147.55 12.4958 147.854 11.692C148.162 10.8881 148.615 10.1419 149.196 9.50322C149.595 9.06547 150.144 8.81874 150.719 8.81874L151.357 8.80879Z" fill="url(#paint27_linear_166_132682)"/>
<path d="M176.282 21.1033V23.1806C176.282 24.3228 175.399 25.244 174.31 25.244H172.314V24.7804C172.31 24.7506 172.309 24.7167 172.309 24.6829V18.1027C173.442 18.1067 174.467 18.5524 175.213 19.2846C175.718 19.7781 176.096 20.4029 176.282 21.1033Z" fill="url(#paint28_linear_166_132682)"/>
<path d="M77.6541 0.705246V0.739072C77.6541 0.780857 77.6579 0.818663 77.6598 0.860448V1.20269C77.656 1.23254 77.6541 1.26636 77.6541 1.30019V7.88036C78.7876 7.87639 79.8127 7.43068 80.5589 6.69844C81.0639 6.20498 81.4417 5.58019 81.6277 4.87979V4.24306H92.2593C93.4383 4.24306 94.2319 3.41134 94.2319 2.17569V0.705246H77.6541Z" fill="url(#paint29_linear_166_132682)"/>
<path d="M92.2951 21.7092H86.4325C86.4325 23.6632 87.9437 25.247 89.808 25.247H94.2353V23.7089C94.2353 22.4394 93.5272 21.7092 92.2951 21.7092Z" fill="url(#paint30_linear_166_132682)"/>
<defs>
<linearGradient id="paint0_linear_166_132682" x1="191.186" y1="12.9754" x2="195.159" y2="12.9754" gradientUnits="userSpaceOnUse">
<stop stop-color="#3D56DE"/>
<stop offset="0.2691" stop-color="#4B79FF"/>
<stop offset="1" stop-color="#90ECFF"/>
</linearGradient>
<linearGradient id="paint1_linear_166_132682" x1="199.158" y1="12.9924" x2="222.922" y2="12.9924" gradientUnits="userSpaceOnUse">
<stop stop-color="#3D56DE"/>
<stop offset="0.2691" stop-color="#4B79FF"/>
<stop offset="1" stop-color="#90ECFF"/>
</linearGradient>
<linearGradient id="paint2_linear_166_132682" x1="4.78337" y1="3.98559" x2="19.5568" y2="21.3861" gradientUnits="userSpaceOnUse">
<stop stop-color="#3D56DE"/>
<stop offset="0.2691" stop-color="#4B79FF"/>
<stop offset="1" stop-color="#90ECFF"/>
</linearGradient>
<linearGradient id="paint3_linear_166_132682" x1="5.17662" y1="3.65077" x2="19.95" y2="21.0513" gradientUnits="userSpaceOnUse">
<stop stop-color="#5F96FF"/>
<stop offset="0.583" stop-color="#4F54D9"/>
</linearGradient>
<linearGradient id="paint4_linear_166_132682" x1="5.78995" y1="3.12997" x2="20.5633" y2="20.5305" gradientUnits="userSpaceOnUse">
<stop stop-color="#3D56DE"/>
<stop offset="0.2691" stop-color="#4B79FF"/>
<stop offset="1" stop-color="#90ECFF"/>
</linearGradient>
<linearGradient id="paint5_linear_166_132682" x1="4.91661" y1="3.85539" x2="19.7019" y2="21.2699" gradientUnits="userSpaceOnUse">
<stop stop-color="#4F54D9"/>
<stop offset="0.2259" stop-color="#5059DC"/>
<stop offset="0.4952" stop-color="#5468E4"/>
<stop offset="0.7857" stop-color="#5A7FF2"/>
<stop offset="1" stop-color="#5F96FF"/>
</linearGradient>
<linearGradient id="paint6_linear_166_132682" x1="99.3309" y1="3.6828" x2="114.104" y2="21.0833" gradientUnits="userSpaceOnUse">
<stop stop-color="#5F96FF"/>
<stop offset="0.583" stop-color="#4F54D9"/>
</linearGradient>
<linearGradient id="paint7_linear_166_132682" x1="100.944" y1="0.530574" x2="116.882" y2="27.531" gradientUnits="userSpaceOnUse">
<stop stop-color="#3D56DE"/>
<stop offset="0.2691" stop-color="#4B79FF"/>
<stop offset="1" stop-color="#90ECFF"/>
</linearGradient>
<linearGradient id="paint8_linear_166_132682" x1="53.516" y1="12.977" x2="74.3481" y2="12.977" gradientUnits="userSpaceOnUse">
<stop stop-color="#5F96FF"/>
<stop offset="0.583" stop-color="#4F54D9"/>
</linearGradient>
<linearGradient id="paint9_linear_166_132682" x1="49.227" y1="15.5507" x2="70.3961" y2="10.7555" gradientUnits="userSpaceOnUse">
<stop stop-color="#3D56DE"/>
<stop offset="0.1494" stop-color="#3E58E0"/>
<stop offset="0.2032" stop-color="#405FE6"/>
<stop offset="0.2415" stop-color="#456AF1"/>
<stop offset="0.2691" stop-color="#4B79FF"/>
<stop offset="1" stop-color="#90ECFF"/>
</linearGradient>
<linearGradient id="paint10_linear_166_132682" x1="171.595" y1="5.87167" x2="197.666" y2="24.8191" gradientUnits="userSpaceOnUse">
<stop stop-color="#5F96FF"/>
<stop offset="0.583" stop-color="#4F54D9"/>
</linearGradient>
<linearGradient id="paint11_linear_166_132682" x1="172.314" y1="2.47429" x2="188.893" y2="2.47429" gradientUnits="userSpaceOnUse">
<stop stop-color="#3D56DE"/>
<stop offset="0.2691" stop-color="#4B79FF"/>
<stop offset="1" stop-color="#90ECFF"/>
</linearGradient>
<linearGradient id="paint12_linear_166_132682" x1="25.6885" y1="12.9767" x2="49.8614" y2="12.9767" gradientUnits="userSpaceOnUse">
<stop stop-color="#5F96FF"/>
<stop offset="0.583" stop-color="#4F54D9"/>
</linearGradient>
<linearGradient id="paint13_linear_166_132682" x1="40.8774" y1="21.2953" x2="41.3925" y2="21.2953" gradientUnits="userSpaceOnUse">
<stop stop-color="#3D56DE"/>
<stop offset="0.2691" stop-color="#4B79FF"/>
<stop offset="1" stop-color="#90ECFF"/>
</linearGradient>
<linearGradient id="paint14_linear_166_132682" x1="44.742" y1="27.2916" x2="28.556" y2="-4.9994" gradientUnits="userSpaceOnUse">
<stop stop-color="#3D56DE"/>
<stop offset="0.2691" stop-color="#4B79FF"/>
<stop offset="1" stop-color="#90ECFF"/>
</linearGradient>
<linearGradient id="paint15_linear_166_132682" x1="25.6885" y1="12.7909" x2="45.8553" y2="12.7909" gradientUnits="userSpaceOnUse">
<stop stop-color="#4F54D9"/>
<stop offset="0.2259" stop-color="#5059DC"/>
<stop offset="0.4952" stop-color="#5468E4"/>
<stop offset="0.7857" stop-color="#5A7FF2"/>
<stop offset="1" stop-color="#5F96FF"/>
</linearGradient>
<linearGradient id="paint16_linear_166_132682" x1="41.3945" y1="20.9285" x2="42.1559" y2="20.9285" gradientUnits="userSpaceOnUse">
<stop stop-color="#4F54D9"/>
<stop offset="0.2259" stop-color="#5059DC"/>
<stop offset="0.4952" stop-color="#5468E4"/>
<stop offset="0.7857" stop-color="#5A7FF2"/>
<stop offset="1" stop-color="#5F96FF"/>
</linearGradient>
<linearGradient id="paint17_linear_166_132682" x1="119.566" y1="12.9751" x2="143.739" y2="12.9751" gradientUnits="userSpaceOnUse">
<stop stop-color="#5F96FF"/>
<stop offset="0.583" stop-color="#4F54D9"/>
</linearGradient>
<linearGradient id="paint18_linear_166_132682" x1="134.755" y1="4.65367" x2="135.27" y2="4.65367" gradientUnits="userSpaceOnUse">
<stop stop-color="#3D56DE"/>
<stop offset="0.2691" stop-color="#4B79FF"/>
<stop offset="1" stop-color="#90ECFF"/>
</linearGradient>
<linearGradient id="paint19_linear_166_132682" x1="138.619" y1="-1.34428" x2="122.433" y2="30.9467" gradientUnits="userSpaceOnUse">
<stop stop-color="#3D56DE"/>
<stop offset="0.2691" stop-color="#4B79FF"/>
<stop offset="1" stop-color="#90ECFF"/>
</linearGradient>
<linearGradient id="paint20_linear_166_132682" x1="119.566" y1="13.1644" x2="139.733" y2="13.1644" gradientUnits="userSpaceOnUse">
<stop stop-color="#4F54D9"/>
<stop offset="0.2259" stop-color="#5059DC"/>
<stop offset="0.4952" stop-color="#5468E4"/>
<stop offset="0.7857" stop-color="#5A7FF2"/>
<stop offset="1" stop-color="#5F96FF"/>
</linearGradient>
<linearGradient id="paint21_linear_166_132682" x1="135.272" y1="5.02578" x2="136.033" y2="5.02578" gradientUnits="userSpaceOnUse">
<stop stop-color="#4F54D9"/>
<stop offset="0.2259" stop-color="#5059DC"/>
<stop offset="0.4952" stop-color="#5468E4"/>
<stop offset="0.7857" stop-color="#5A7FF2"/>
<stop offset="1" stop-color="#5F96FF"/>
</linearGradient>
<linearGradient id="paint22_linear_166_132682" x1="199.158" y1="12.9928" x2="220.958" y2="12.9928" gradientUnits="userSpaceOnUse">
<stop stop-color="#5F96FF"/>
<stop offset="0.583" stop-color="#4F54D9"/>
</linearGradient>
<linearGradient id="paint23_linear_166_132682" x1="202.185" y1="3.53592" x2="220.96" y2="3.53592" gradientUnits="userSpaceOnUse">
<stop stop-color="#3D56DE"/>
<stop offset="0.2691" stop-color="#4B79FF"/>
<stop offset="1" stop-color="#90ECFF"/>
</linearGradient>
<linearGradient id="paint24_linear_166_132682" x1="77.7999" y1="6.49855" x2="114.878" y2="33.4449" gradientUnits="userSpaceOnUse">
<stop stop-color="#5F96FF"/>
<stop offset="0.583" stop-color="#4F54D9"/>
</linearGradient>
<linearGradient id="paint25_linear_166_132682" x1="160.314" y1="22.1773" x2="125.499" y2="-1.53395" gradientUnits="userSpaceOnUse">
<stop stop-color="#3D56DE"/>
<stop offset="0.2691" stop-color="#4B79FF"/>
<stop offset="1" stop-color="#90ECFF"/>
</linearGradient>
<linearGradient id="paint26_linear_166_132682" x1="158.645" y1="-1.46989" x2="182.585" y2="36.8575" gradientUnits="userSpaceOnUse">
<stop stop-color="#3D56DE"/>
<stop offset="0.2691" stop-color="#4B79FF"/>
<stop offset="1" stop-color="#90ECFF"/>
</linearGradient>
<linearGradient id="paint27_linear_166_132682" x1="144.461" y1="8.39172" x2="159.432" y2="32.3604" gradientUnits="userSpaceOnUse">
<stop stop-color="#3D56DE"/>
<stop offset="0.2691" stop-color="#4B79FF"/>
<stop offset="1" stop-color="#90ECFF"/>
</linearGradient>
<linearGradient id="paint28_linear_166_132682" x1="163.81" y1="17.184" x2="191.166" y2="29.6194" gradientUnits="userSpaceOnUse">
<stop stop-color="#3D56DE"/>
<stop offset="0.2691" stop-color="#4B79FF"/>
<stop offset="1" stop-color="#90ECFF"/>
</linearGradient>
<linearGradient id="paint29_linear_166_132682" x1="86.6191" y1="8.21739" x2="81.8058" y2="-17.2792" gradientUnits="userSpaceOnUse">
<stop stop-color="#90ECFF"/>
<stop offset="0.324" stop-color="#3D56DE"/>
</linearGradient>
<linearGradient id="paint30_linear_166_132682" x1="75.8711" y1="11.4966" x2="110.849" y2="36.9163" gradientUnits="userSpaceOnUse">
<stop stop-color="#3D56DE"/>
<stop offset="0.1494" stop-color="#3E58E0"/>
<stop offset="0.2032" stop-color="#405FE6"/>
<stop offset="0.2415" stop-color="#456AF1"/>
<stop offset="0.2691" stop-color="#4B79FF"/>
<stop offset="0.7374" stop-color="#90ECFF"/>
</linearGradient>
</defs>
</svg>
