<svg width="26" height="20" viewBox="0 0 26 20" fill="none" xmlns="http://www.w3.org/2000/svg">
<path d="M3.85037 0.761719C1.86305 0.761719 0.332031 2.04559 0.332031 4.28118V10.6569C0.497548 11.4431 1.32513 12.0235 2.23659 12.0235C3.27107 12.0235 4.017 11.2787 4.017 10.3673V7.13857H6.8319V10.3259C6.8319 12.1063 4.55493 13.0166 2.89865 13.0166C1.94693 13.0166 1.03548 12.727 0.373413 12.2304V19.2682H4.84459C6.41812 19.2682 8.2388 17.7775 8.2388 15.874V0.761719H3.85037Z" fill="#1174CE"/>
<path d="M19.5 11.9347H21.4459C21.9425 11.9347 22.3976 11.4795 22.3976 10.983C22.3976 10.4864 21.9425 10.0312 21.4459 10.0312H19.5V11.9347Z" fill="#1BCC38"/>
<path d="M21.6936 0.761719C19.6649 0.761719 18.1742 2.04559 18.1742 4.23868V7.13634H23.3902C24.135 7.13634 24.7568 7.75703 24.7568 8.50297C24.7568 9.24891 24.1361 9.86959 23.3902 9.86959C24.2178 9.86959 24.881 10.4489 24.881 11.1948C24.881 11.9408 24.2603 12.5201 23.3902 12.5201H18.1328V19.2682H22.604C24.1775 19.2682 25.9982 17.7775 25.9982 15.874V0.761719H21.6936Z" fill="#1BCC38"/>
<path d="M22.3602 8.67047C22.3602 8.17392 21.905 7.71875 21.4084 7.71875H19.5039V9.58193H21.4498C21.9464 9.58193 22.3602 9.16813 22.3602 8.67047Z" fill="#1BCC38"/>
<path d="M12.711 0.761719C10.6823 0.761719 9.19153 2.04559 9.19153 4.23868V7.79952C9.68808 7.38573 10.3088 7.09608 10.9719 7.09608H15.6914V8.08917C14.5742 7.8409 13.4972 7.71676 12.9593 7.71676C11.8007 7.71676 10.8478 8.66848 10.8478 9.82821C10.8478 10.9879 11.7995 11.9397 12.9593 11.9397C13.4972 11.9397 14.5742 11.8569 15.6914 11.6086V12.519H10.9719C10.3099 12.519 9.6467 12.2707 9.19153 11.8155V19.2671H13.6627C15.2362 19.2671 17.0569 17.7764 17.0569 15.8729V0.761719H12.711Z" fill="#E20E37"/>
</svg>
