<svg width="19" height="23" viewBox="0 0 19 23" fill="none" xmlns="http://www.w3.org/2000/svg">
<g clip-path="url(#clip0_581_2941)">
<path d="M4.35686 8.17306V20.3394H0.305525V8.17306H4.35686ZM4.61468 4.41636C4.62286 5.01383 4.4162 5.51309 3.9947 5.91413C3.5732 6.31517 3.01869 6.51569 2.33119 6.51569H2.30664C1.63551 6.51569 1.09533 6.31517 0.686105 5.91413C0.276879 5.51309 0.0722656 5.01383 0.0722656 4.41636C0.0722656 3.81071 0.283017 3.30941 0.70452 2.91246C1.12602 2.51551 1.67643 2.31703 2.35575 2.31703C3.03506 2.31703 3.57933 2.51551 3.98856 2.91246C4.39779 3.30941 4.60649 3.81071 4.61468 4.41636ZM18.9294 13.3661V20.3394H14.8903V13.8327C14.8903 12.9733 14.7246 12.3001 14.3931 11.8131C14.0617 11.3261 13.544 11.0827 12.8401 11.0827C12.3245 11.0827 11.8928 11.2238 11.5449 11.5062C11.1971 11.7886 10.9372 12.1385 10.7653 12.5559C10.6753 12.8014 10.6303 13.1329 10.6303 13.5503V20.3394H6.59124C6.60761 17.0737 6.61579 14.426 6.61579 12.3963C6.61579 10.3665 6.6117 9.1552 6.60352 8.76235L6.59124 8.17306H10.6303V9.94092H10.6057C10.7694 9.67901 10.9372 9.44985 11.1091 9.25342C11.281 9.05699 11.5122 8.84419 11.8027 8.61503C12.0933 8.38586 12.4493 8.20785 12.8708 8.08099C13.2923 7.95413 13.7609 7.89069 14.2765 7.89069C15.6761 7.89069 16.8014 8.35517 17.6526 9.28411C18.5038 10.2131 18.9294 11.5737 18.9294 13.3661Z" fill="#3C4770"/>
</g>
<defs>
<clipPath id="clip0_581_2941">
<rect width="18.86" height="22" fill="white" transform="matrix(1 0 0 -1 0.0703125 22.5)"/>
</clipPath>
</defs>
</svg>
