<svg width="35" height="20" viewBox="0 0 35 20" fill="none" xmlns="http://www.w3.org/2000/svg">
<path d="M24.0744 19.8792C29.5649 19.8792 34.0159 15.4282 34.0159 9.93765C34.0159 4.44708 29.5649 -0.00390625 24.0744 -0.00390625C18.5838 -0.00390625 14.1328 4.44708 14.1328 9.93765C14.1328 15.4282 18.5838 19.8792 24.0744 19.8792Z" fill="#FBB231"/>
<path d="M10.59 19.8792C16.0806 19.8792 20.5316 15.4282 20.5316 9.93765C20.5316 4.44708 16.0806 -0.00390625 10.59 -0.00390625C5.09942 -0.00390625 0.648438 4.44708 0.648438 9.93765C0.648438 15.4282 5.09942 19.8792 10.59 19.8792Z" fill="#EC1B2E"/>
<path fill-rule="evenodd" clip-rule="evenodd" d="M16.0898 3.81249H21.3666V3.27344H16.546L16.0898 3.81249Z" fill="#FBB231"/>
<path fill-rule="evenodd" clip-rule="evenodd" d="M15.2988 5.01561H21.3654V4.47656H15.617L15.2988 5.01561Z" fill="#FBB231"/>
<path fill-rule="evenodd" clip-rule="evenodd" d="M14.709 6.21203H21.3654V5.67188H14.9432L14.709 6.21203Z" fill="#FBB231"/>
<path fill-rule="evenodd" clip-rule="evenodd" d="M14.3086 7.41015H21.3704V6.87109H14.4765L14.3086 7.41015Z" fill="#FBB231"/>
<path fill-rule="evenodd" clip-rule="evenodd" d="M14.5369 13.2031H21.3811V12.6641H14.3701L14.5369 13.2031Z" fill="#FBB231"/>
<path fill-rule="evenodd" clip-rule="evenodd" d="M15.0427 14.4073H21.381V13.8672H14.792L15.0427 14.4073Z" fill="#FBB231"/>
<path fill-rule="evenodd" clip-rule="evenodd" d="M15.7501 15.6016H21.3781V15.0625H15.4121L15.7501 15.6016Z" fill="#FBB231"/>
<path fill-rule="evenodd" clip-rule="evenodd" d="M16.7323 16.8002H21.3816V16.2578H16.2595L16.7323 16.8002Z" fill="#FBB231"/>
<path fill-rule="evenodd" clip-rule="evenodd" d="M14.0685 8.60546H21.3678V8.06641H14.1723L14.0685 8.60546Z" fill="#FBB231"/>
<path fill-rule="evenodd" clip-rule="evenodd" d="M18.5156 12.0078H21.2993V11.4688H18.6161L18.5156 12.0078Z" fill="#FBB231"/>
<path fill-rule="evenodd" clip-rule="evenodd" d="M18.7383 10.813H21.301V10.2695H18.8388L18.7383 10.813Z" fill="#FBB231"/>
<path fill-rule="evenodd" clip-rule="evenodd" d="M13.8818 10.2734H14.6048V10.8165H13.9149L13.8818 10.2734Z" fill="#FBB231"/>
<path fill-rule="evenodd" clip-rule="evenodd" d="M12.5265 9.61737L12.479 9.61405L12.4326 9.60742L12.3884 9.6008L12.3453 9.59416L12.3056 9.58754L12.2614 9.58092L12.2183 9.57428L12.1708 9.56656L12.1244 9.55992L12.0703 9.55661L12.0106 9.5533L11.9465 9.54999H11.8759L11.7996 9.5533L11.7124 9.55992L11.6152 9.56656L11.5478 9.5776L11.4848 9.58754L11.4274 9.60742L11.3777 9.62731L11.3302 9.6505L11.2871 9.67812L11.2529 9.71126L11.223 9.74108L11.2032 9.77864L11.1866 9.81509L11.1799 9.85485V9.89573L11.1899 9.93881L11.2032 9.98189L11.2297 10.0261L11.2639 10.0692L11.3302 10.1332L11.4108 10.1829L11.5047 10.2271L11.6052 10.2636L11.7124 10.2978L11.8228 10.3343L11.9333 10.374L12.0404 10.4182L12.141 10.4745L12.2349 10.5452L12.3188 10.6292L12.3884 10.733L12.4425 10.8601L12.4757 11.0114L12.4889 11.1914L12.4757 11.4024L12.4525 11.5604L12.4127 11.6974L12.3586 11.8244L12.2923 11.9349L12.215 12.0321L12.1277 12.116L12.0338 12.19L11.93 12.2541L11.8228 12.3038L11.7124 12.348L11.5986 12.3811L11.4815 12.4076L11.3677 12.4275L11.2562 12.4375L11.1457 12.4441L11.0419 12.4474H10.8983L10.7646 12.4441H10.6475L10.536 12.4408L10.4354 12.4375L10.346 12.4308L10.2653 12.4242L10.188 12.4143L10.1173 12.4076L10.0543 12.3944L9.99028 12.3844L9.93395 12.3679L9.8765 12.3546L9.82238 12.3336L9.76936 12.3137L9.71191 12.2938L9.86326 11.5538L9.89307 11.5604L9.93063 11.5703L9.97703 11.5836L10.0345 11.5968L10.0941 11.6101L10.1615 11.6234L10.2355 11.641L10.315 11.6543L10.399 11.6675L10.4863 11.6808L10.5768 11.6907L10.6707 11.7007L10.7679 11.704L10.8651 11.7073H10.9623L11.0595 11.704L11.1557 11.6841L11.233 11.6576L11.2937 11.62L11.3401 11.5736L11.3744 11.5272L11.4009 11.4731L11.4175 11.419L11.4307 11.3693L11.4373 11.2721L11.4075 11.1881L11.3501 11.1219L11.2672 11.0644L11.1667 11.0147L11.0485 10.9639L10.9182 10.9175L10.7878 10.8634L10.6541 10.8026L10.526 10.733L10.4089 10.6458L10.3018 10.5419L10.2178 10.4149L10.1582 10.2636L10.1273 10.0824L10.1306 9.86811L10.1482 9.73777L10.1714 9.61405L10.2046 9.50027L10.2454 9.39312L10.2985 9.29261L10.3592 9.20534L10.4288 9.12139L10.5128 9.04738L10.61 8.98442L10.7171 8.93029L10.8375 8.88059L10.9723 8.84303L11.1225 8.81321L11.2871 8.79001L11.4672 8.77675L11.6649 8.77344H11.7897L11.9035 8.77675L12.0073 8.78006L12.1012 8.78338L12.1841 8.79001L12.2614 8.79663L12.3288 8.80326L12.3884 8.80989L12.4458 8.81652L12.4922 8.82646L12.5364 8.83309L12.5762 8.83971L12.6104 8.84634L12.6403 8.84966L12.6701 8.85738L12.6966 8.8607L12.5265 9.61737Z" fill="white"/>
<path fill-rule="evenodd" clip-rule="evenodd" d="M13.3275 8.03516H14.2554L14.1173 8.84484H14.6774L14.5559 9.60261L13.9671 9.58604L13.6457 11.4551L13.6424 11.5213L13.6589 11.5788L13.6921 11.6219L13.7363 11.6594L13.7959 11.6826L13.8633 11.7025L13.9362 11.7157L14.0168 11.7224L14.0908 11.7191L14.1582 11.7124L14.2179 11.7025L14.272 11.6892L14.3151 11.676L14.3449 11.666L14.3659 11.6594L14.3725 11.6561L14.2554 12.2791L14.2311 12.2957L14.2079 12.3089L14.1847 12.3222L14.1615 12.3354L14.1372 12.3454L14.1107 12.3564L14.0809 12.3664L14.0511 12.3763L14.0168 12.3862L13.9837 12.3929L13.9439 12.3995L13.9031 12.4061L13.86 12.4128L13.8092 12.4194L13.7561 12.426L13.6987 12.4326H13.4446L13.3099 12.4227L13.1928 12.4094L13.0856 12.3896L12.9951 12.3664L12.9188 12.3354L12.8548 12.3023L12.7973 12.2625L12.7543 12.2183L12.7211 12.1719L12.6968 12.1145L12.6802 12.0582L12.6703 11.9941L12.667 11.9234V11.8505L12.6769 11.7732L12.6869 11.6892L13.3275 8.03516Z" fill="white"/>
<path fill-rule="evenodd" clip-rule="evenodd" d="M23.404 9.04487L23.3598 9.02167L23.3167 9.00179L23.2693 8.97859L23.2195 8.95429L23.1687 8.9344L23.1124 8.91452L23.055 8.89464L22.9953 8.87476L22.9312 8.85819L22.8672 8.84383L22.7976 8.83058L22.7269 8.82063L22.6496 8.81401L22.5733 8.80738H22.4927H22.4087H22.3248L22.2375 8.81401L22.147 8.82394L22.0531 8.84051L21.9603 8.86813L21.8664 8.90458L21.7725 8.95097L21.6786 9.01173L21.588 9.08574L21.5008 9.17301L21.4168 9.28015L21.3373 9.40387L21.2633 9.55079L21.1926 9.71869L21.1285 9.90647L21.0755 10.1208L21.0556 10.2412L21.0423 10.3583L21.0357 10.4754L21.039 10.5891L21.049 10.704L21.0722 10.8112L21.102 10.9117L21.1395 11.0122L21.1893 11.1017L21.25 11.1889L21.3196 11.2663L21.4002 11.337L21.4908 11.3966L21.5946 11.4474L21.7084 11.4905L21.8355 11.5203L21.8796 11.5314L21.9294 11.5413L21.9901 11.5479L22.0564 11.5546L22.1304 11.5612H22.2077H22.2917L22.3756 11.5546L22.4618 11.5446L22.549 11.528L22.633 11.5037L22.7169 11.4772L22.8009 11.4408L22.8782 11.3966L22.9478 11.3436L23.0152 11.2828L22.8639 12.1776L22.844 12.1941L22.8241 12.214L22.7976 12.2372L22.7666 12.2582L22.7302 12.2847L22.6838 12.3079L22.6297 12.3311L22.5689 12.3521L22.4927 12.3753L22.4054 12.3919L22.3049 12.4051L22.1878 12.4184L22.0564 12.425L21.9061 12.4283L21.7349 12.425L21.5483 12.4151L21.3936 12.3985L21.2401 12.3653L21.0854 12.3145L20.9319 12.2483L20.7839 12.1676L20.6436 12.0671L20.5088 11.95L20.3851 11.8152L20.2746 11.665L20.1807 11.4971L20.1001 11.3093L20.0404 11.105L20.0007 10.8807L19.9863 10.6433L19.993 10.3815L20.0305 10.1042L20.057 9.96612L20.0869 9.83246L20.1211 9.70211L20.1542 9.5784L20.1907 9.46021L20.2349 9.34312L20.2779 9.23266L20.3254 9.12882L20.3752 9.02498L20.426 8.92778L20.4823 8.83389L20.5431 8.74662L20.6027 8.66378L20.6701 8.58314L20.7375 8.50913L20.8071 8.43843L20.8844 8.37216L20.9617 8.30809L21.0423 8.25175L21.1252 8.19762L21.2158 8.14792L21.3063 8.10373L21.4002 8.06397L21.4974 8.02641L21.6013 7.99327L21.7051 7.96676L21.8123 7.94357L21.926 7.92257L22.0398 7.90601L22.1613 7.89276L22.2817 7.88612L22.4087 7.88281L22.5159 7.88612L22.6197 7.89276L22.7202 7.90269L22.8208 7.91595L22.9147 7.93031L23.0052 7.95019L23.0925 7.96676L23.172 7.98665L23.2494 8.00653L23.3167 8.02641L23.3797 8.0474L23.4338 8.06728L23.4802 8.08385L23.5211 8.09711L23.5509 8.11037L23.5708 8.11699L23.404 9.04487Z" fill="white"/>
<path fill-rule="evenodd" clip-rule="evenodd" d="M31.4988 8.05078L31.2646 9.36749L31.2447 9.32772L31.2182 9.28795L31.1884 9.24487L31.1553 9.20179L31.1155 9.15871L31.0724 9.11563L31.0216 9.07255L30.9675 9.03279L30.9067 8.99633L30.8393 8.95988L30.772 8.93005L30.6946 8.90354L30.614 8.88035L30.5267 8.86378L30.4329 8.85384L30.3357 8.85052L30.1987 8.85715L30.065 8.87704L29.9313 8.90686L29.7977 8.95326L29.6707 9.01069L29.5436 9.0847L29.4199 9.16866L29.3028 9.26586L29.1924 9.37632L29.0885 9.49672L28.988 9.63038L28.9007 9.78061L28.8168 9.94188L28.7461 10.1131L28.6853 10.3009L28.6356 10.4986L28.6058 10.6698L28.5892 10.841L28.5859 11.0156L28.5959 11.1868L28.6224 11.358L28.6588 11.5226L28.713 11.6806L28.7803 11.8308L28.861 11.9711L28.9549 12.0948L29.062 12.2086L29.1824 12.3058L29.3161 12.3831L29.463 12.4405L29.6243 12.477L29.7988 12.4902H29.8662L29.9336 12.4869L29.9976 12.4803L30.065 12.4704L30.1324 12.4604L30.1965 12.4438L30.2605 12.4273L30.3246 12.4041L30.3887 12.3743L30.4494 12.3444L30.5102 12.308L30.5709 12.2649L30.6317 12.2185L30.6891 12.1644L30.7466 12.1036L30.8007 12.0362V12.0694L30.7333 12.4416H31.6612L32.4178 8.05961H31.4988V8.05078ZM31.0371 10.4854L31.0271 10.5826L31.0106 10.6765L30.994 10.767L30.9708 10.8576L30.9443 10.9449L30.9112 11.0288L30.8747 11.1095L30.8316 11.1868L30.7852 11.2608L30.7355 11.3282L30.6781 11.3889L30.614 11.4464L30.5466 11.4972L30.4759 11.537L30.3986 11.5734L30.318 11.5966L30.2307 11.6165L30.1368 11.6231L30.0032 11.5966L29.8927 11.5226L29.8054 11.4121L29.7381 11.2752L29.695 11.1172L29.6718 10.9526L29.6651 10.7913L29.6817 10.6444L29.7016 10.5472L29.7281 10.45L29.7546 10.3594L29.7878 10.2688L29.8242 10.1816L29.8673 10.1009L29.9137 10.0236L29.9645 9.94962L30.0219 9.88555L30.0794 9.82811L30.1468 9.77398L30.2141 9.7309L30.2915 9.69776L30.3688 9.67125L30.4527 9.658L30.5433 9.65137L30.614 9.658L30.6781 9.67457L30.7388 9.70108L30.7963 9.74084L30.846 9.78724L30.8891 9.84137L30.9288 9.90544L30.962 9.97281L30.9885 10.0501L31.0117 10.1308L31.0249 10.2147L31.0349 10.302L31.0382 10.3959L31.0371 10.4854Z" fill="white"/>
<path fill-rule="evenodd" clip-rule="evenodd" d="M9.89593 9.54028L9.86279 9.43313L9.81307 9.33262L9.7457 9.24204L9.67169 9.16139L9.58774 9.08739L9.49385 9.02332L9.39333 8.96588L9.2928 8.91949L9.18898 8.87972L9.08183 8.84989L8.97798 8.8267L8.87746 8.81013L8.78358 8.8035L8.66648 8.80019L8.54939 8.79688H8.43894H8.33179H8.22795L8.12744 8.80019L8.03022 8.8035L7.93634 8.81013L7.84576 8.81676L7.75848 8.83001L7.67122 8.84327L7.59059 8.85984L7.50995 8.87641L7.42932 8.8996L7.35531 8.92611L7.2813 8.95594L7.04381 9.76342L7.08025 9.74353L7.12665 9.72033L7.1874 9.70045L7.26141 9.68056L7.34204 9.664L7.42932 9.64743L7.52652 9.63086L7.62705 9.6176L7.73087 9.60435L7.83802 9.59441L7.94517 9.58446L8.05564 9.57784L8.16279 9.57452H8.26661L8.36714 9.57784L8.46102 9.58115L8.5483 9.58778L8.62893 9.60767L8.69962 9.63748L8.76369 9.68056L8.81783 9.73028L8.85759 9.79103L8.8874 9.85841L8.90067 9.93242L8.89405 9.99649L8.87746 10.0672L8.85759 10.1279L8.85096 10.1511H8.84102L8.80788 10.1478L8.76148 10.1445L8.70073 10.1412H8.62672L8.55271 10.1379L8.47208 10.1346H8.39475H8.35831L8.3119 10.1379L8.2622 10.1412L8.20808 10.1445L8.15394 10.1511L8.09319 10.1544L8.03575 10.1611L7.97831 10.1677L7.92086 10.1743L7.87116 10.181L7.82477 10.1843L7.785 10.1909L7.74855 10.1942L7.72534 10.1975L7.70878 10.2008H7.70215L7.58506 10.2207L7.47129 10.2505L7.36084 10.287L7.25369 10.3334L7.15316 10.3875L7.05596 10.4516L6.96206 10.5223L6.8781 10.5996L6.79747 10.6836L6.72678 10.7775L6.66602 10.8747L6.61189 10.9818L6.56881 11.0956L6.53568 11.2127L6.51579 11.3364L6.50586 11.4667V11.5407L6.51248 11.6147L6.52243 11.6921L6.53568 11.7694L6.55557 11.8434L6.58208 11.9174L6.61522 11.9914L6.65498 12.0621L6.70138 12.1295L6.75439 12.1936L6.82178 12.2543L6.89579 12.3085L6.97974 12.3582L7.07362 12.4012L7.18077 12.4344L7.29787 12.4642L7.38844 12.4775L7.48233 12.4874L7.57955 12.4841L7.67675 12.4775L7.77728 12.4642L7.87448 12.4443L7.97168 12.4211L8.06889 12.3913L8.15947 12.3582L8.24672 12.3184L8.33068 12.2786L8.41131 12.2322L8.48202 12.1858L8.54609 12.135L8.60021 12.0809L8.6466 12.0268L8.63335 12.0776L8.6201 12.1715L8.60353 12.2952L8.58032 12.4322H9.42426L9.55792 11.6888L9.89593 9.92027L9.9158 9.78661V9.65958L9.89593 9.54028ZM8.73387 10.8968L8.71398 11.0039L8.69079 11.1144L8.66428 11.2116L8.65433 11.248L8.63776 11.2845L8.61789 11.3242L8.59468 11.364L8.56817 11.4038L8.53503 11.4402L8.49527 11.48L8.45219 11.5131L8.40137 11.5496L8.34394 11.5794L8.27986 11.6092L8.21249 11.6324L8.13516 11.6523L8.0479 11.6656L7.95732 11.6755L7.8568 11.6788L7.80268 11.6755L7.74965 11.6656L7.69221 11.6457L7.6425 11.6125L7.59942 11.5617L7.56628 11.4944L7.54971 11.4038L7.55303 11.29L7.56298 11.2359L7.58285 11.1817L7.60606 11.1353L7.6392 11.0923L7.67564 11.0525L7.71542 11.0127L7.75848 10.9796L7.80488 10.9465L7.84797 10.9199L7.89435 10.8968L7.93743 10.8736L7.98051 10.8537L8.01697 10.8371L8.05343 10.8238L8.07993 10.8139L8.10314 10.8073L8.13958 10.7973L8.17935 10.7874L8.22574 10.7775L8.27545 10.7708L8.32958 10.7642L8.38371 10.7576L8.44115 10.7509L8.49969 10.7498H8.54939H8.60021L8.64329 10.7531L8.67975 10.7598L8.71289 10.7664L8.73276 10.7763L8.74602 10.7929L8.74933 10.8095L8.73387 10.8968Z" fill="white"/>
<path fill-rule="evenodd" clip-rule="evenodd" d="M2.51287 12.4326H1.60156L2.36266 8.03516H3.94667L4.09801 10.6443L5.19268 8.03516H6.8485L6.07085 12.4326H5.15955L5.73614 9.1464H5.69859L4.3355 12.4326H3.3071L3.30048 12.2957L3.27727 11.93L3.24634 11.4109L3.2132 10.8155L3.18006 10.2157L3.15025 9.68987L3.12594 9.30768L3.11932 9.1464H3.10937H3.08948H3.06961L2.51287 12.4326Z" fill="white"/>
<path fill-rule="evenodd" clip-rule="evenodd" d="M26.5316 9.54028L26.4952 9.43313L26.4454 9.33262L26.3781 9.24204L26.3007 9.16139L26.2168 9.08739L26.1229 9.02332L26.0224 8.96588L25.9186 8.91949L25.8147 8.87972L25.7076 8.84989L25.6037 8.8267L25.5032 8.81013L25.4093 8.8035L25.2955 8.80019L25.1818 8.79688H25.0746H24.9708H24.867L24.7697 8.80019L24.6725 8.8035L24.5787 8.81013L24.4881 8.81676L24.4008 8.83001L24.3169 8.84327L24.2329 8.85984L24.1523 8.87641L24.0749 8.8996L23.9976 8.92611L23.9236 8.95594L23.6894 9.76342L23.7259 9.74353L23.7723 9.72033L23.833 9.70045L23.9071 9.68056L23.9877 9.664L24.0749 9.64743L24.1721 9.63086L24.2727 9.6176L24.3765 9.60435L24.4836 9.59441L24.5908 9.58446L24.7013 9.57784L24.8084 9.57452H24.9122L25.0128 9.57784L25.1067 9.58115L25.1873 9.58778L25.2613 9.60767L25.332 9.63748L25.3928 9.68056L25.4436 9.73028L25.4866 9.79103L25.5132 9.85841L25.5264 9.93242L25.5198 9.99649L25.5098 10.0672L25.4999 10.1279L25.4933 10.1511H25.48L25.4502 10.1478L25.3961 10.1445L25.332 10.1412H25.258L25.1807 10.1379L25.1 10.1346H25.0194H24.9829L24.9365 10.1379L24.889 10.1412L24.8349 10.1445L24.7775 10.1511L24.72 10.1544L24.6593 10.1611L24.6019 10.1677L24.5477 10.1743L24.498 10.181L24.4516 10.1843L24.4085 10.1909L24.3754 10.1942L24.3522 10.1975L24.3356 10.2008H24.329L24.2152 10.2207L24.1048 10.2505L23.9943 10.287L23.8905 10.3334L23.7866 10.3875L23.6894 10.4516L23.5989 10.5223L23.5116 10.5996L23.4343 10.6836L23.3636 10.7775L23.2995 10.8747L23.2498 10.9818L23.2067 11.0956L23.1769 11.2127L23.157 11.3364L23.1504 11.4667V11.5407L23.157 11.6147L23.167 11.6921L23.1802 11.7694L23.1968 11.8434L23.2233 11.9174L23.2531 11.9914L23.2929 12.0621L23.3393 12.1295L23.3934 12.1936L23.4575 12.2543L23.5315 12.3085L23.6187 12.3582L23.7126 12.4012L23.8198 12.4344L23.9402 12.4642L24.0308 12.4775L24.1213 12.4874L24.2152 12.4841L24.3124 12.4775L24.4063 12.4642L24.5002 12.4476L24.5941 12.4211L24.6847 12.3946L24.7687 12.3615L24.8526 12.3217L24.9332 12.2819L25.0039 12.2389L25.0713 12.1925L25.1321 12.1461L25.1829 12.0953L25.226 12.0455L25.2193 12.0853V12.1759L25.216 12.2963L25.2094 12.4333H26.05L26.187 11.6899L26.5382 9.92137L26.5548 9.78771V9.66068L26.5316 9.54028ZM25.3696 10.8934L25.3563 10.9873L25.3397 11.0845L25.3265 11.1784L25.3165 11.2149L25.3033 11.2546L25.2867 11.2944L25.2635 11.3342L25.2337 11.3773L25.1972 11.417L25.1575 11.4601L25.1111 11.4966L25.057 11.5363L24.9962 11.5695L24.9321 11.5993L24.8581 11.6258L24.7808 11.649L24.6935 11.6656L24.5996 11.6755L24.4991 11.6788L24.4417 11.6755L24.3842 11.6656L24.3268 11.6457L24.2771 11.6125L24.2373 11.5617L24.2108 11.4944L24.1942 11.4038L24.1976 11.29L24.2075 11.2326L24.2274 11.1784L24.2506 11.1276L24.2804 11.0812L24.3169 11.0381L24.3533 11.0017L24.3964 10.9652L24.4395 10.9354L24.4826 10.9056L24.5289 10.8824L24.5687 10.8625L24.6118 10.8426L24.6482 10.8294L24.6814 10.8194L24.7079 10.8095L24.7311 10.8062L24.7642 10.7995L24.8073 10.7896L24.8504 10.783L24.9001 10.773L24.9509 10.7664L25.005 10.7598L25.0592 10.7531L25.1177 10.7498L25.1674 10.7465H25.2182L25.2624 10.7498L25.2989 10.7531L25.332 10.7631L25.3552 10.773L25.3685 10.7896L25.3751 10.8095L25.3696 10.8934Z" fill="white"/>
<path fill-rule="evenodd" clip-rule="evenodd" d="M26.4375 12.4289H27.3819L27.7211 10.5235L27.7343 10.4495L27.7542 10.3755L27.7741 10.3026L27.8006 10.2285L27.8348 10.1545L27.8746 10.0849L27.9188 10.0176L27.9718 9.95349L28.0326 9.89715L28.0988 9.84303L28.1762 9.79332L28.2634 9.75245L28.3606 9.71931L28.4678 9.6928L28.5849 9.67292L28.7152 9.66518H28.7627H28.7892H28.7992L28.9505 8.80469L28.8566 8.81132L28.766 8.82126L28.6821 8.83782L28.6014 8.86213L28.5285 8.88864L28.4578 8.92178L28.3905 8.95933L28.3275 8.9991L28.2667 9.0455L28.2093 9.09299L28.1563 9.14601L28.1021 9.20014L28.0524 9.25648L28.0016 9.32055L27.9519 9.3813L27.9044 9.44758L28.0049 8.84115H27.0638L26.4375 12.4289Z" fill="white"/>
<path fill-rule="evenodd" clip-rule="evenodd" d="M17.5664 12.4289H18.5108H18.5274L18.8489 10.5235L18.8621 10.4495L18.8798 10.3788L18.8964 10.3092L18.9196 10.2418L18.9461 10.1744L18.9803 10.1114L19.0201 10.0507L19.0665 9.99436L19.1206 9.94355L19.1813 9.89384L19.2543 9.85297L19.3349 9.81652L19.4288 9.78669L19.5326 9.75908L19.6464 9.74251L19.7767 9.73257H19.7867L19.801 9.73588L19.8176 9.73919H19.8342L19.8507 9.74251L19.864 9.74582L19.8739 9.74914H19.8773L19.8806 9.73588L19.8905 9.69611L19.9049 9.63536L19.9214 9.56135L19.9446 9.47519L19.9678 9.3813L19.9988 9.28741L20.0286 9.19351L20.0551 9.12944L20.0882 9.06648L20.1225 9.00241L20.1556 8.94497L20.1854 8.89527L20.2097 8.8555L20.2263 8.8312L20.2329 8.82126H20.2296L20.2164 8.81794L20.1987 8.81463L20.1755 8.81132H20.1523L20.1258 8.808L20.1026 8.80469H20.0783L19.9745 8.81132L19.8806 8.82126L19.7933 8.83782L19.7138 8.85882L19.6365 8.88532L19.5658 8.91847L19.5028 8.95161L19.442 8.99247L19.3857 9.03555L19.3316 9.08636L19.2819 9.13608L19.2311 9.19351L19.1813 9.24985L19.1338 9.31391L19.0841 9.3813L19.0333 9.44758L19.1537 8.84115H18.1927L17.5664 12.4289Z" fill="white"/>
<path fill-rule="evenodd" clip-rule="evenodd" d="M17.6716 9.9134L17.645 9.71236L17.5987 9.53452L17.5313 9.37987L17.4473 9.24622L17.3468 9.13243L17.2363 9.03854L17.1159 8.95791L16.9856 8.89715L16.8519 8.84634L16.715 8.8132L16.578 8.79001L16.441 8.77675L16.3107 8.77344L16.0389 8.78669L15.7981 8.82646L15.5805 8.88721L15.3861 8.97116L15.2182 9.07168L15.0713 9.18546L14.9409 9.31249L14.8338 9.44615L14.7399 9.58644L14.6626 9.73335L14.6018 9.87695L14.5521 10.0205L14.5157 10.1608L14.4892 10.2912L14.4693 10.4149L14.456 10.522L14.4395 10.7971L14.4494 11.0445L14.4858 11.2688L14.5433 11.4665L14.6239 11.6443L14.7211 11.7979L14.8349 11.9349L14.9652 12.0486L15.1055 12.1458L15.2558 12.2298L15.4137 12.2938L15.5783 12.3447L15.7462 12.3844L15.9141 12.4076L16.082 12.4242L16.2466 12.4275H16.3571L16.4609 12.4242H16.5515L16.6387 12.4209L16.7161 12.4143L16.7868 12.4076L16.8541 12.401L16.9149 12.3911L16.9723 12.3811L17.0265 12.3679L17.0795 12.3513L17.1303 12.3347L17.18 12.3148L17.2341 12.295L17.2883 12.2684L17.3424 12.2419L17.476 11.4179L17.3788 11.4753L17.2849 11.5295L17.1877 11.5692L17.0938 11.6057L17.0033 11.6355L16.9094 11.6554L16.8188 11.672L16.7282 11.6852L16.6376 11.6918L16.5504 11.6951H16.4598L16.3725 11.6918L16.2853 11.6852L16.198 11.6753L16.114 11.6653L16.0268 11.6521L15.9594 11.6388L15.892 11.6156L15.8246 11.5858L15.7639 11.5493L15.7031 11.5096L15.649 11.4588L15.5982 11.4091L15.5518 11.3516L15.512 11.2942L15.4756 11.2301L15.4491 11.1694L15.4259 11.1053L15.4126 11.0412L15.406 10.9772L15.4093 10.9164L15.4159 10.8766H15.9914H17.5887L17.6053 10.6723L17.6561 10.3906L17.6793 10.1365L17.6716 9.9134ZM16.7636 10.2216H15.987H15.5385L15.5485 10.1708L15.5617 10.1001L15.5816 10.0327L15.6048 9.96532L15.6347 9.90457L15.6645 9.84713L15.7009 9.793L15.7407 9.74329L15.7838 9.6969L15.8268 9.65713L15.8766 9.62068L15.9274 9.59085L15.9848 9.56434L16.0422 9.54446L16.0997 9.5312L16.1604 9.52127L16.2245 9.51795L16.2853 9.52458L16.3427 9.53452L16.3968 9.54777L16.4498 9.56766L16.4996 9.59416L16.5504 9.62399L16.5935 9.65713L16.6332 9.6969L16.6664 9.74329L16.6995 9.793L16.7227 9.85044L16.7459 9.9145L16.7591 9.98189L16.7658 10.0559L16.7691 10.1365L16.7636 10.2216Z" fill="white"/>
</svg>
