<svg width="50" height="16" viewBox="0 0 50 16" fill="none" xmlns="http://www.w3.org/2000/svg">
<path d="M20.5441 0.289062L18.0644 15.7203H22.0281L24.5068 0.289062H20.5441ZM32.4998 6.57548C31.1153 5.89168 30.2653 5.42941 30.2653 4.72979C30.2823 4.09346 30.983 3.44244 32.5484 3.44244C33.8358 3.40966 34.7829 3.71257 35.5006 4.01435L35.86 4.17484L36.3992 0.946865C35.6159 0.64396 34.3749 0.310543 32.8423 0.310543C28.9283 0.310543 26.1727 2.34498 26.1546 5.25649C26.1219 7.40395 28.128 8.59635 29.629 9.31067C31.1628 10.0442 31.6838 10.52 31.6838 11.1711C31.6668 12.1713 30.4439 12.6336 29.3035 12.6336C27.7223 12.6336 26.8735 12.3962 25.5839 11.8379L25.0617 11.6005L24.5079 14.9562C25.4392 15.3699 27.1515 15.7338 28.9283 15.7531C33.0876 15.7531 35.7945 13.7491 35.8284 10.6466C35.842 8.94334 34.7852 7.64017 32.4998 6.57548ZM46.5612 0.337671H43.4948C42.55 0.337671 41.8323 0.608929 41.4231 1.57868L35.5357 15.7203H39.695L40.841 12.6584H45.4942L46.0887 15.7327H49.7575L46.5612 0.337671ZM41.9939 9.56837C42.0741 9.57628 43.5909 4.57043 43.5909 4.57043L44.798 9.56837C44.798 9.56837 42.776 9.56837 41.9939 9.56837ZM14.7528 0.289062L10.8692 10.7732L10.4465 8.70599C9.72882 6.32005 7.47737 3.7284 4.96484 2.44105L8.52059 15.7056H12.7138L18.9448 0.29246H14.7516V0.289062H14.7528Z" fill="#00579F"/>
<path d="M9.1465 2.27993C8.8436 1.10335 7.87837 0.309922 6.56842 0.292969H0.418762L0.355469 0.578918C5.15222 1.76115 9.17928 5.40053 10.4858 8.82404L9.1465 2.27993Z" fill="#FAA61A"/>
</svg>
