<svg width="24" height="24" viewBox="0 0 24 24" fill="none" xmlns="http://www.w3.org/2000/svg">
<g clip-path="url(#clip0_812_29)">
<path d="M7.19923 7.40694H5.87387L9.48716 17.6209L11.51 11.8403L9.94167 7.40694H8.5433V6.43369H14.7357V7.40694H13.2856L16.8989 17.6209L18.1977 13.9092C19.9015 9.15383 16.8012 7.67252 16.8012 6.61125C16.8012 5.54998 17.6616 4.68969 18.7228 4.68969C18.7802 4.68969 18.836 4.6928 18.8906 4.69789C17.0924 3.00043 14.6678 1.95947 11.9998 1.95947C8.51371 1.95947 5.44295 3.73644 3.64282 6.43369H7.19912V7.40694H7.19923Z" fill="#00769D"/>
<path d="M1.95935 11.9998C1.95935 15.8439 4.11996 19.1828 7.29268 20.8701L2.76152 8.06152C2.24536 9.27076 1.95935 10.6019 1.95935 11.9998Z" fill="#00769D"/>
<path d="M20.7383 7.05225C20.8819 7.8979 20.8384 8.84836 20.618 9.80252H20.658L20.5061 10.2363C20.4162 10.5496 20.3029 10.87 20.1742 11.1849L16.7194 20.8637C19.8854 19.1745 22.0405 15.8391 22.0405 11.9999C22.0405 10.2009 21.5669 8.51265 20.7383 7.05225Z" fill="#00769D"/>
<path d="M8.90332 21.553C9.87876 21.8689 10.9192 22.0403 12 22.0403C13.0308 22.0403 14.0252 21.8847 14.9614 21.5962L12.0244 13.2939L8.90332 21.553Z" fill="#00769D"/>
<path d="M20.4852 3.5147C18.2188 1.24821 15.2053 0 11.9999 0C8.79463 0 5.78119 1.24821 3.5147 3.5147C1.24821 5.78119 0 8.79463 0 12C0 15.2053 1.24821 18.2188 3.5147 20.4852C5.78119 22.7517 8.79469 23.9999 12 23.9999C15.2053 23.9999 18.2188 22.7517 20.4853 20.4852C22.7518 18.2188 24 15.2053 24 12C23.9999 8.79463 22.7517 5.78119 20.4852 3.5147ZM11.9999 23.1534C5.84992 23.1534 0.846509 18.15 0.846509 12C0.846509 5.84997 5.84992 0.846509 11.9999 0.846509C18.15 0.846509 23.1534 5.84997 23.1534 12C23.1534 18.15 18.15 23.1534 11.9999 23.1534Z" fill="#00769D"/>
</g>
<defs>
<clipPath id="clip0_812_29">
<rect width="24" height="24" fill="white"/>
</clipPath>
</defs>
</svg>
