<svg width="42" height="42" viewBox="0 0 42 42" fill="none" xmlns="http://www.w3.org/2000/svg">
<path d="M16.6758 12.541L30.7185 20.986L16.6758 29.4536V26.498C16.6758 25.3228 17.3139 24.241 18.3481 23.6551L23.0803 20.986L18.3448 18.2976C17.3139 17.7117 16.6791 16.6299 16.6791 15.4611V12.541H16.6758Z" fill="white"/>
<path d="M41.9964 26.24C40.8248 30.7217 38.1904 34.6271 34.6232 37.4281C30.9841 40.2904 26.373 42 21.3462 42C19.9947 42 18.6725 41.8744 17.3897 41.6394C11.7968 40.6091 6.97623 37.4314 3.83453 33.0108C1.2099 29.3179 -0.236596 24.7525 0.0317577 19.8458C0.630645 8.84761 10.095 0.025868 21.2906 0.000111026C26.3762 -0.0159871 31.0463 1.71939 34.7181 4.62992C35.5559 5.29316 36.3413 6.01435 37.0646 6.7935C37.0679 6.79672 37.0711 6.79994 37.0744 6.80316C37.094 6.8257 37.1169 6.84502 37.1399 6.86755C37.1399 6.87077 37.1431 6.87077 37.1431 6.87077C37.1464 6.87399 37.1529 6.88043 37.1562 6.88365C37.3166 7.05751 37.4704 7.23459 37.6242 7.41167C37.6798 7.47606 37.7322 7.53723 37.7846 7.60162C37.7911 7.61128 37.8009 7.62094 37.8075 7.6306C37.8926 7.72719 37.9711 7.82378 38.0496 7.92037C38.1282 8.01695 38.2067 8.11354 38.282 8.21013C38.2853 8.21657 38.2885 8.21979 38.2918 8.22301C38.3049 8.24233 38.3213 8.25843 38.3344 8.27774C38.3507 8.29706 38.3638 8.31316 38.3769 8.33248C38.4293 8.40009 38.4816 8.4677 38.534 8.53853C38.5504 8.56107 38.5667 8.58039 38.5831 8.60293C38.6583 8.70273 38.7303 8.80254 38.8023 8.90235C38.8972 9.03757 38.9856 9.17602 39.0674 9.31446C39.0936 9.35631 39.1165 9.39817 39.1394 9.44002C39.555 10.1999 39.7481 11.0048 39.7481 11.7903C39.7481 11.8612 39.7449 11.932 39.7416 12.0028C39.7383 12.064 39.735 12.122 39.7318 12.1799C39.7285 12.2314 39.7219 12.2829 39.7154 12.3312C39.7121 12.3506 39.7121 12.3699 39.7089 12.386C39.7023 12.4471 39.6925 12.5051 39.6827 12.5663C39.6761 12.6017 39.6729 12.6339 39.6663 12.6693C39.6663 12.6725 39.663 12.6757 39.663 12.6757C39.6565 12.7079 39.6499 12.7434 39.6434 12.7755C39.6369 12.811 39.627 12.8464 39.6205 12.8786C39.6041 12.9494 39.5878 13.017 39.5681 13.0878C39.5485 13.1555 39.5289 13.2231 39.506 13.2939C39.4961 13.3293 39.483 13.3615 39.4732 13.3937C39.4601 13.4291 39.4503 13.4613 39.4372 13.4935C39.4241 13.5257 39.411 13.5611 39.398 13.5933C39.3456 13.7253 39.2867 13.8573 39.2245 13.9829C39.1918 14.0473 39.1591 14.1117 39.1263 14.1729C39.0936 14.2373 39.0576 14.2984 39.0183 14.3564C38.9987 14.3854 38.9823 14.4176 38.9627 14.4465C38.9431 14.4755 38.9234 14.5077 38.9038 14.5367C38.8842 14.5657 38.8645 14.5946 38.8416 14.6268C38.822 14.6558 38.7991 14.6848 38.7794 14.7138C38.7173 14.8007 38.6518 14.8844 38.5831 14.9681L38.5798 14.9713C38.534 15.0261 38.4882 15.0776 38.4424 15.1323C38.4194 15.1581 38.3933 15.187 38.3704 15.2096C38.3442 15.2353 38.3213 15.2611 38.2951 15.2868C38.246 15.3384 38.1936 15.3867 38.1413 15.4382C38.1151 15.4639 38.0889 15.4865 38.0627 15.5122C38.0365 15.5348 38.0071 15.5605 37.9809 15.5831C37.9253 15.6313 37.8696 15.6764 37.814 15.7215C37.7846 15.744 37.7551 15.7666 37.7257 15.7859C37.5751 15.8986 37.418 16.0016 37.2544 16.095C37.2282 16.1111 37.1988 16.1272 37.1726 16.14C37.1399 16.1594 37.1071 16.1755 37.0744 16.1948C36.8944 16.2881 36.7046 16.3719 36.5115 16.4459C36.4853 16.4556 36.4559 16.4652 36.4297 16.4749C36.3806 16.4942 36.3315 16.5071 36.2824 16.5232C36.2497 16.5328 36.217 16.5425 36.1843 16.5522C36.0533 16.5908 35.9192 16.623 35.7817 16.652C35.7392 16.6616 35.6966 16.6681 35.6541 16.6777C35.6246 16.6842 35.5919 16.6874 35.5625 16.6938C35.5232 16.7003 35.4839 16.7067 35.4446 16.7131C35.425 16.7164 35.4054 16.7196 35.3857 16.7196C35.353 16.726 35.317 16.7292 35.281 16.7325C35.2057 16.7389 35.1305 16.7453 35.0519 16.7518C35.0225 16.755 34.9898 16.755 34.9603 16.7582C34.9243 16.7614 34.8883 16.7614 34.849 16.7614C34.8032 16.7614 34.7574 16.7647 34.7116 16.7647C32.8986 11.2044 27.6035 7.17664 21.3495 7.17664C16.7253 7.17664 12.6215 9.37885 10.0623 12.7755V12.7788C9.4176 13.632 8.87762 14.5592 8.4489 15.5444C8.00056 16.5747 7.67657 17.6661 7.4933 18.8059C7.30022 20.0132 7.26095 21.2689 7.40821 22.5567C7.61439 24.4016 8.20346 26.1434 9.09688 27.7081C9.51577 28.4422 10.0001 29.1344 10.5434 29.7816C10.671 29.9329 10.8052 30.0842 10.9394 30.2355C11.3321 30.6605 11.7477 31.063 12.1895 31.4397C12.2484 31.4912 12.3106 31.5395 12.3728 31.591C12.4251 31.6361 12.4775 31.6779 12.5331 31.7198C12.6215 31.7906 12.7098 31.8582 12.7982 31.9258C12.8473 31.9645 12.8997 32.0031 12.9487 32.0385C13.0796 32.1351 13.2105 32.2317 13.3447 32.3218C13.4102 32.3701 13.4789 32.4152 13.5476 32.4571C13.6033 32.4957 13.6622 32.5343 13.7178 32.5697C13.7243 32.573 13.7309 32.5762 13.7374 32.5826C13.8225 32.6374 13.9076 32.6889 13.9927 32.7404C14.1203 32.8209 14.2512 32.8981 14.3854 32.9722C14.4443 33.0044 14.5 33.0366 14.5589 33.0688C14.5785 33.0817 14.6014 33.0913 14.6243 33.1042C14.6832 33.1364 14.7421 33.1686 14.801 33.1976C14.8109 33.204 14.8207 33.2072 14.8272 33.2137C14.8959 33.2491 14.9647 33.2845 15.0334 33.3167C15.1807 33.3907 15.3279 33.4616 15.4785 33.5292C15.5537 33.5646 15.629 33.5968 15.7043 33.629C15.7795 33.6644 15.8548 33.6934 15.9301 33.7256C16.2344 33.8512 16.5453 33.9703 16.8595 34.0733C16.925 34.0958 16.9937 34.1184 17.0591 34.1377C17.0624 34.1377 17.069 34.1409 17.0722 34.1409C17.0853 34.1474 17.0984 34.1506 17.1115 34.1538C17.118 34.157 17.1246 34.1602 17.1311 34.1602C17.1999 34.1828 17.2686 34.2021 17.334 34.2214C17.406 34.2439 17.478 34.2633 17.5533 34.2858C17.5729 34.2922 17.5926 34.2955 17.6122 34.3019C17.7627 34.3438 17.91 34.3792 18.0638 34.4146C18.1456 34.4339 18.2275 34.4532 18.3093 34.4693C18.4565 34.5015 18.6038 34.5305 18.7511 34.5562C18.7609 34.5595 18.7707 34.5595 18.7805 34.5627C18.8067 34.5691 18.8296 34.5723 18.8558 34.5756C18.8623 34.5756 18.8689 34.5788 18.8754 34.5788C18.9343 34.5917 18.9965 34.6013 19.0587 34.6078C19.1405 34.6206 19.2256 34.6335 19.3107 34.6464C20.947 34.8718 22.5342 34.8203 24.0396 34.5337C24.2392 34.4983 24.4356 34.4564 24.6287 34.4081C24.7596 34.3792 24.8872 34.347 25.0181 34.3116C25.5319 34.1763 26.0359 34.0089 26.5235 33.819C26.7068 33.7481 26.89 33.6709 27.0668 33.5936C27.1257 33.5678 27.1879 33.5421 27.2468 33.5131C27.3646 33.4584 27.4824 33.4036 27.6002 33.3457C27.7737 33.262 27.9471 33.1718 28.1173 33.0784C28.1205 33.0784 28.1238 33.0752 28.1271 33.072C28.2384 33.0108 28.3496 32.9497 28.4609 32.8853C28.5165 32.8531 28.5722 32.8209 28.6278 32.7855C28.7391 32.7211 28.8503 32.6502 28.9583 32.5794C29.014 32.5472 29.0663 32.5118 29.122 32.4732C29.1776 32.4377 29.23 32.4023 29.2823 32.3669C29.3183 32.3444 29.351 32.3218 29.387 32.2961C29.5114 32.2124 29.6358 32.1222 29.7569 32.0321C29.7961 32.0031 29.8354 31.9773 29.8714 31.9451C29.9958 31.8518 30.1168 31.7584 30.2379 31.6586C30.2739 31.6296 30.3099 31.6006 30.3459 31.5717C30.4016 31.5266 30.4572 31.4783 30.5128 31.4332C30.5619 31.3914 30.611 31.3495 30.6601 31.3077C30.7092 31.2658 30.7583 31.2239 30.8041 31.1789C30.9481 31.0501 31.0888 30.9181 31.2263 30.7829C31.2721 30.741 31.3179 30.6927 31.3637 30.6476C31.4488 30.5639 31.5306 30.4802 31.6091 30.3933C31.6615 30.3386 31.7139 30.2838 31.763 30.2291C31.8055 30.1808 31.8513 30.1357 31.8906 30.0874C32.0182 29.9425 32.1459 29.7977 32.2669 29.6496C32.3095 29.6013 32.3488 29.5497 32.388 29.5014C32.4306 29.4499 32.4666 29.4016 32.5058 29.3501C32.5451 29.2986 32.5844 29.2471 32.6237 29.1956C32.6629 29.1441 32.7022 29.0926 32.7382 29.041C32.8167 28.9348 32.8887 28.8318 32.964 28.7223C33.036 28.6193 33.108 28.513 33.1767 28.4068C33.18 28.4036 33.18 28.4003 33.1833 28.3971C33.2095 28.3553 33.2356 28.3166 33.2618 28.2748C33.2913 28.2297 33.3175 28.1846 33.3469 28.1396C33.3665 28.1106 33.3862 28.0784 33.4025 28.0462C33.4222 28.0172 33.4385 27.985 33.4582 27.9528C33.5007 27.8852 33.54 27.8176 33.5793 27.7468C34.1094 26.8227 35.0716 26.2239 36.1515 26.2239H41.9964V26.24Z" fill="white"/>
<path d="M36.146 26.2367C35.0661 26.2367 34.1039 26.8355 33.5737 27.7596C33.5345 27.8272 33.4952 27.8948 33.4527 27.9656C33.433 27.9978 33.4167 28.0268 33.397 28.059C33.3774 28.0912 33.3577 28.1202 33.3414 28.1524C33.3119 28.1974 33.2858 28.2425 33.2563 28.2876C33.2301 28.3294 33.2039 28.3713 33.1778 28.4099C33.1745 28.4132 33.1745 28.4164 33.1712 28.4196C33.1025 28.5258 33.0338 28.6321 32.9585 28.7351C32.8832 28.8414 32.8079 28.9476 32.7327 29.0539C32.6967 29.1054 32.6574 29.1569 32.6181 29.2084C32.5789 29.2599 32.5396 29.3114 32.5003 29.3629C32.4611 29.4145 32.4218 29.4627 32.3825 29.5143C32.3432 29.5658 32.304 29.6141 32.2614 29.6624C32.1403 29.8105 32.016 29.9586 31.8851 30.1002C31.8425 30.1485 31.8 30.1968 31.7574 30.2419C31.7084 30.2966 31.656 30.3514 31.6036 30.4061C31.5251 30.493 31.4433 30.5767 31.3582 30.6604C31.3156 30.7055 31.2666 30.7506 31.2207 30.7957C31.0833 30.9309 30.9426 31.0629 30.7986 31.1917C30.7528 31.2368 30.7037 31.2786 30.6546 31.3205C30.6055 31.3623 30.5564 31.4074 30.5073 31.446C30.4517 31.4943 30.396 31.5394 30.3404 31.5845C30.3044 31.6134 30.2684 31.6424 30.2324 31.6714C30.1113 31.768 29.9902 31.8646 29.8659 31.9579C29.8266 31.9869 29.7906 32.0159 29.7513 32.0449C29.6302 32.135 29.5059 32.2252 29.3815 32.3089C29.3455 32.3346 29.3128 32.3572 29.2768 32.3797C29.2244 32.4184 29.1688 32.4538 29.1165 32.486C29.0641 32.5214 29.0085 32.5568 28.9528 32.5922C28.8448 32.663 28.7336 32.7307 28.6223 32.7983C28.5667 32.8337 28.511 32.8659 28.4554 32.8981C28.3441 32.9625 28.2328 33.0236 28.1216 33.0848C28.1183 33.088 28.115 33.088 28.1118 33.0913C27.9416 33.1846 27.7681 33.2748 27.5947 33.3585C27.4769 33.4164 27.3591 33.4712 27.2412 33.5259C27.1823 33.5549 27.1234 33.5806 27.0612 33.6064C26.8813 33.6869 26.7013 33.7609 26.518 33.8318C26.0304 34.0249 25.5264 34.1891 25.0126 34.3244C24.885 34.3598 24.7541 34.392 24.6232 34.421C24.4268 34.4692 24.2304 34.5111 24.0341 34.5465C22.532 34.8363 20.9415 34.8846 19.3052 34.6592C19.2201 34.6463 19.135 34.6334 19.0532 34.6206C18.991 34.6109 18.9321 34.6013 18.8699 34.5916C18.8634 34.5916 18.8568 34.5884 18.8503 34.5884C18.8241 34.5852 18.8012 34.5819 18.775 34.5755C18.7652 34.5723 18.7554 34.5723 18.7456 34.5691C18.5983 34.5433 18.451 34.5143 18.3038 34.4821C18.2219 34.466 18.1401 34.4467 18.0583 34.4274C17.9078 34.392 17.7572 34.3533 17.6067 34.3147C17.5871 34.3083 17.5674 34.305 17.5478 34.2986C17.4725 34.2793 17.4005 34.2568 17.3285 34.2342C17.2598 34.2149 17.1911 34.1956 17.1256 34.173C17.1191 34.1698 17.1125 34.1666 17.106 34.1666C17.0929 34.1634 17.0798 34.1602 17.0667 34.1537C17.0634 34.1537 17.0569 34.1505 17.0536 34.1505C16.9849 34.1312 16.9194 34.1087 16.854 34.0861C16.5398 33.9831 16.2289 33.8672 15.9246 33.7384C15.8493 33.7094 15.774 33.6772 15.6988 33.6418C15.6235 33.6096 15.5482 33.5774 15.4729 33.542C15.3224 33.4744 15.1751 33.4036 15.0279 33.3295C14.9591 33.2973 14.8904 33.2619 14.8217 33.2265C14.8119 33.2233 14.8021 33.2168 14.7955 33.2104C14.7366 33.1814 14.6777 33.1492 14.6188 33.117C14.5959 33.1041 14.5763 33.0945 14.5533 33.0816C14.4944 33.0494 14.4355 33.0172 14.3799 32.985C14.249 32.911 14.1181 32.8337 13.9872 32.7532C13.9021 32.7017 13.817 32.6502 13.7319 32.5954C13.7254 32.5922 13.7188 32.589 13.7123 32.5826C13.6567 32.5471 13.5977 32.5085 13.5421 32.4699C13.4734 32.4248 13.4047 32.3797 13.3392 32.3346C13.205 32.2445 13.0709 32.1479 12.9432 32.0513C12.8909 32.0159 12.8418 31.9773 12.7927 31.9386C12.7043 31.871 12.616 31.8034 12.5276 31.7326C12.472 31.6907 12.4196 31.6456 12.3672 31.6038C12.3051 31.5523 12.2462 31.504 12.184 31.4525C11.7422 31.0758 11.3266 30.6733 10.9338 30.2483C10.7997 30.1002 10.6622 29.9489 10.5379 29.7944C9.9946 29.1472 9.51026 28.455 9.09136 27.7209C8.19794 26.1562 7.60887 24.4144 7.4027 22.5695C7.2587 21.2817 7.2947 20.0261 7.48779 18.8187C7.67105 17.679 7.99504 16.5875 8.44339 15.5572C8.87537 14.572 9.41535 13.6448 10.0568 12.7916V12.7884C12.6192 9.39166 16.7231 7.18623 21.3473 7.18623C27.6012 7.18623 32.8963 11.214 34.7093 16.7742C34.7552 16.7742 34.801 16.7742 34.8468 16.771C34.8828 16.771 34.9221 16.7678 34.9581 16.7678C34.9875 16.7678 35.0202 16.7646 35.0497 16.7614C35.1282 16.7549 35.2035 16.7517 35.2788 16.742C35.3148 16.7388 35.3475 16.7356 35.3835 16.7292C35.4031 16.7259 35.4228 16.7227 35.4424 16.7227C35.4817 16.7163 35.5209 16.7131 35.5602 16.7034C35.5929 16.697 35.6224 16.6938 35.6518 16.6873C35.6944 16.6809 35.7402 16.6712 35.7795 16.6616C35.9169 16.6326 36.0511 16.6004 36.182 16.5617C36.2147 16.5521 36.2475 16.5424 36.2802 16.5328C36.3293 16.5167 36.3784 16.5006 36.4275 16.4845C36.4569 16.4748 36.4831 16.4652 36.5093 16.4555C36.7056 16.3814 36.8922 16.2977 37.0722 16.2044C37.1049 16.1851 37.1376 16.169 37.1703 16.1496C37.1998 16.1335 37.226 16.1207 37.2522 16.1046C37.4158 16.0112 37.5729 15.9049 37.7234 15.7955C37.7529 15.7729 37.7823 15.7536 37.8118 15.7311C37.8674 15.686 37.9263 15.6409 37.9787 15.5926C38.0081 15.5701 38.0343 15.5443 38.0605 15.5218C38.0867 15.4993 38.1161 15.4735 38.139 15.4478C38.1914 15.3995 38.2438 15.3479 38.2928 15.2964C38.319 15.2707 38.3419 15.2449 38.3681 15.2192C38.3943 15.1934 38.4172 15.1677 38.4401 15.1419C38.4859 15.0904 38.5317 15.0356 38.5776 14.9809C38.5776 14.9809 38.5776 14.9777 38.5808 14.9777C38.6496 14.894 38.715 14.8103 38.7772 14.7233C38.7968 14.6944 38.8197 14.6654 38.8394 14.6364C38.859 14.6074 38.8819 14.5785 38.9015 14.5463C38.9212 14.5173 38.9408 14.4883 38.9605 14.4561C38.9801 14.4271 38.9997 14.3949 39.0161 14.366C39.0554 14.3048 39.0881 14.2436 39.1241 14.1824C39.1568 14.1213 39.1895 14.0569 39.2223 13.9925C39.2844 13.8637 39.3434 13.7349 39.3957 13.6029C39.4088 13.5707 39.4219 13.5385 39.435 13.5031C39.4481 13.4709 39.4579 13.4355 39.471 13.4033C39.4841 13.3711 39.4939 13.3357 39.5037 13.3035C39.5266 13.2359 39.5462 13.1683 39.5659 13.0974C39.5855 13.0298 39.6019 12.959 39.6182 12.8882C39.6248 12.8527 39.6346 12.8173 39.6412 12.7851C39.6477 12.7529 39.6542 12.7175 39.6608 12.6853C39.6608 12.6821 39.6608 12.6789 39.6641 12.6789C39.6706 12.6435 39.6739 12.6113 39.6804 12.5759C39.6902 12.5179 39.7001 12.4567 39.7066 12.3956C39.7099 12.3762 39.7099 12.3569 39.7132 12.3408C39.7197 12.2893 39.723 12.241 39.7295 12.1895C39.7361 12.1316 39.7393 12.0704 39.7393 12.0124C39.7426 11.9416 39.7459 11.8708 39.7459 11.7999C39.7459 11.0143 39.5561 10.2094 39.1372 9.44962C39.1143 9.40776 39.0914 9.36591 39.0652 9.32405C38.9866 9.18561 38.8983 9.04716 38.8001 8.91194C38.7281 8.81213 38.6561 8.71232 38.5808 8.61252C38.5645 8.58998 38.5481 8.56744 38.5317 8.54812C38.4794 8.48051 38.427 8.40968 38.3747 8.34207C38.3616 8.32275 38.3452 8.30665 38.3321 8.28733C38.319 8.26802 38.3027 8.2487 38.2896 8.2326C38.2863 8.22616 38.283 8.22294 38.2798 8.21972C38.2045 8.12313 38.1292 8.02655 38.0474 7.92996C37.9689 7.83337 37.8903 7.73678 37.8052 7.64019C37.7987 7.63053 37.7889 7.62087 37.7823 7.61122V7.608C37.5827 7.35687 37.3732 7.11862 37.154 6.89002C37.1507 6.88358 37.1442 6.88036 37.1409 6.87714C37.1409 6.87714 37.1409 6.87714 37.1376 6.87392C37.1147 6.85139 37.0951 6.82885 37.0722 6.80953C37.0689 6.80631 37.0656 6.80309 37.0623 6.79987C36.3358 6.02072 35.5504 5.29953 34.7159 4.63629C33.6752 3.94729 32.2647 3.25508 30.4255 2.81077C30.4124 2.80755 30.4026 2.80433 30.3895 2.80433C29.5386 2.60149 28.5928 2.45017 27.5521 2.37612C22.8265 1.98011 19.2463 3.19712 19.2463 3.19712C18.7783 3.33557 18.3168 3.49011 17.862 3.66075C17.6394 3.74446 17.4201 3.83139 17.2042 3.92475C17.1943 3.91188 17.1845 3.91832 17.1845 3.91832C10.0044 6.95763 4.94824 14.234 4.94824 22.7337C4.94824 31.314 10.1026 38.6515 17.3907 41.6361C18.6703 41.8711 19.9957 41.9967 21.3473 41.9967C26.374 41.9967 30.9851 40.2871 34.6242 37.4249C38.1914 34.627 40.8258 30.7184 41.9974 26.2367H36.146Z" fill="white"/>
<path d="M41.9906 26.2402H36.1391C35.0624 26.2402 34.097 26.839 33.5669 27.7631C31.5215 31.3368 27.902 33.9254 23.6312 34.6176C22.2469 34.843 20.7939 34.8687 19.3016 34.6595C16.6082 34.286 14.1505 33.1302 12.1738 31.4463C12.1738 31.4463 12.5829 31.9035 13.3978 32.5249C13.46 32.5699 13.5254 32.615 13.5909 32.6633C13.6007 32.6697 13.6105 32.6794 13.6203 32.6858C14.2814 33.1205 14.9719 33.5165 15.6886 33.8771C15.7115 33.8868 15.7312 33.8964 15.7541 33.9093C15.8228 33.9447 15.8915 33.9769 15.9602 34.0059C17.2104 34.608 18.539 35.0877 19.9299 35.4257C19.9332 35.4257 19.9365 35.429 19.9397 35.429C20.8724 35.6543 21.8313 35.8185 22.8163 35.9119C23.5854 35.9859 24.3479 36.0149 25.1006 36.002C26.3017 35.9827 27.4798 35.8572 28.6252 35.635C28.6481 35.6318 28.671 35.6286 28.6939 35.6254L28.6972 35.6221C34.3425 34.5114 39.2187 31.0471 41.9906 26.2402Z" fill="white"/>
</svg>
