<svg width="43" height="43" viewBox="0 0 43 43" fill="none" xmlns="http://www.w3.org/2000/svg">
<rect width="42.0571" height="42.0572" rx="21.0286" fill="url(#paint0_radial_221_18512)"/>
<path d="M26.5901 11.1436C27.4589 11.307 28.2272 11.5897 28.9136 12.0705C30.0501 12.862 30.7246 13.9389 30.9452 15.2829C31.0076 15.6545 31.0202 16.0409 31.0253 16.4198C31.0309 16.7123 30.7882 16.8868 30.5166 16.825C30.3215 16.7824 30.2113 16.6318 30.1976 16.4104C30.1696 16.0164 30.1649 15.6189 30.0832 15.2358C29.768 13.7487 28.8476 12.7563 27.4142 12.2179C27.0358 12.0766 26.6301 12.014 26.236 11.9175C26.1977 11.9097 26.1478 11.9318 26.1055 11.9391C26.1205 11.9805 26.1278 12.0292 26.1506 12.0631C26.424 12.4287 26.705 12.7944 26.9784 13.1637C27.0808 13.2995 27.0875 13.4419 26.9983 13.5877C26.9208 13.7145 26.7938 13.7886 26.6447 13.754C26.5451 13.7308 26.4306 13.6737 26.3698 13.5984C25.8912 12.9802 25.4242 12.3582 24.9573 11.7327C24.7979 11.5178 24.8454 11.2969 25.0839 11.1598C25.7419 10.7779 26.4038 10.3961 27.0657 10.0144C27.2734 9.89576 27.4915 9.94972 27.6013 10.1342C27.7111 10.3225 27.6522 10.5283 27.4444 10.6506C27.1789 10.8064 26.9018 10.962 26.5901 11.1436Z" fill="white"/>
<path d="M15.5377 31.0185C14.6679 30.861 13.8976 30.5836 13.2078 30.1073C12.0658 29.3235 11.3837 28.2511 11.1538 26.9087C11.0887 26.5374 11.0732 26.1511 11.0656 25.7725C11.058 25.4799 11.2994 25.3037 11.5715 25.3637C11.7669 25.405 11.878 25.555 11.8933 25.7762C11.924 26.1699 11.9317 26.5675 12.016 26.95C12.3417 28.4349 13.2692 29.4211 14.7061 29.9498C15.0856 30.0885 15.4918 30.1485 15.8865 30.2423C15.9248 30.2498 15.9747 30.2273 16.0169 30.2198C16.0015 30.1784 15.9938 30.1297 15.9708 30.0961C15.6948 29.7323 15.4113 29.3685 15.1354 29.0011C15.032 28.8661 15.0242 28.7237 15.1123 28.5773C15.189 28.45 15.3155 28.3749 15.4649 28.4087C15.5647 28.4311 15.6796 28.4873 15.7409 28.5623C16.2237 29.1774 16.6952 29.7961 17.1665 30.4185C17.3273 30.6323 17.2814 30.8536 17.0438 30.9922C16.3885 31.3786 15.7293 31.7647 15.0703 32.151C14.8633 32.271 14.6448 32.2184 14.5338 32.0346C14.4226 31.8472 14.48 31.6409 14.687 31.5172C14.9515 31.3597 15.2274 31.2023 15.5377 31.0185Z" fill="white"/>
<path d="M23.3352 11.1644V18.499H21.2543C19.9361 18.499 18.8707 19.5453 18.8707 20.8315V23.8464H10.3747C9.05651 23.8464 7.99121 22.8002 7.99121 21.514V11.1644C7.99121 9.87445 9.05651 8.832 10.3747 8.832H20.9515C22.266 8.832 23.3352 9.87445 23.3352 11.1644Z" fill="white"/>
<path d="M34.0666 20.5394V30.889C34.0666 32.1791 32.9975 33.2252 31.6831 33.2252H21.1063C19.788 33.2252 18.7227 32.1791 18.7227 30.889V23.5544H20.8035C22.1179 23.5544 23.1872 22.5081 23.1872 21.2219V18.2071H31.6831C32.9975 18.2071 34.0666 19.2533 34.0666 20.5394Z" fill="white"/>
<path d="M26.5039 21.9564C24.3809 21.9901 22.5566 23.7337 22.5566 25.9049C22.5606 28.1699 24.5188 29.8872 26.615 29.8573C28.7649 29.8236 30.5966 28.0837 30.5928 25.9125C30.5966 23.7075 28.738 21.9226 26.5039 21.9564ZM26.6456 29.6473C24.5227 29.6848 22.7943 28.0011 22.7675 25.9012C22.7446 23.9325 24.469 22.2189 26.4617 22.1626C28.5464 22.1026 30.3897 23.8126 30.3859 25.9162C30.3859 27.8061 28.7916 29.6135 26.6456 29.6473Z" fill="#207196"/>
<path d="M28.8793 23.3658C28.7337 23.4445 28.5996 23.497 28.4923 23.5832C28.2739 23.7595 28.2317 24.0145 28.3582 24.3071C28.4156 24.4458 28.4847 24.5808 28.5689 24.7045C28.9024 25.1882 28.9636 25.7094 28.8028 26.2644C28.6456 26.8044 28.4769 27.3444 28.3122 27.8843C28.3084 27.9031 28.2968 27.9181 28.2701 27.9669C27.8485 26.7331 27.4346 25.5295 27.0169 24.3071C27.1319 24.2994 27.2239 24.2957 27.3197 24.2845C27.3695 24.277 27.4307 24.2733 27.4577 24.2433C27.4921 24.2058 27.5036 24.1458 27.5074 24.0933C27.5074 24.0819 27.4462 24.052 27.4116 24.052C26.8368 24.052 26.2581 24.0558 25.6834 24.0558C25.6641 24.0558 25.6412 24.0558 25.622 24.0595C25.5645 24.0744 25.4611 24.0483 25.4725 24.142C25.4763 24.1908 25.5607 24.2283 25.6067 24.2696C25.6105 24.2733 25.622 24.2733 25.6296 24.2733C25.8788 24.2507 25.9746 24.4008 26.0436 24.6032C26.1739 24.967 26.3195 25.327 26.4537 25.687C26.469 25.7282 26.4728 25.7845 26.4613 25.8257C26.2237 26.5232 25.9822 27.2169 25.7446 27.9144C25.7408 27.9294 25.7293 27.9407 25.7025 27.9894C25.2809 26.7557 24.8671 25.552 24.4455 24.3295C24.572 24.3108 24.6716 24.2994 24.7674 24.2808C24.8517 24.2621 24.9668 24.2545 24.9591 24.1495C24.9515 24.0371 24.8364 24.0483 24.7521 24.0483C24.4685 24.052 24.1888 24.0595 23.9052 24.067C23.8401 24.067 23.7748 24.067 23.7021 24.0483C24.1849 23.3395 24.8288 22.8521 25.6756 22.6384C26.8713 22.3309 27.929 22.6158 28.8793 23.3658Z" fill="#207196"/>
<path d="M26.6612 26.2162C27.0138 27.1724 27.3664 28.1286 27.7304 29.1149C27.5272 29.1599 27.3394 29.2087 27.1517 29.2462C26.688 29.3361 26.2282 29.3098 25.7722 29.2087C25.5843 29.1674 25.5804 29.1562 25.6418 28.9837C25.9523 28.0987 26.2626 27.2137 26.5769 26.3288C26.5884 26.2912 26.6075 26.2575 26.6268 26.22C26.6344 26.22 26.6459 26.2162 26.6612 26.2162Z" fill="#207196"/>
<path d="M23.4538 24.5453C23.9979 26.0041 24.5422 27.4665 25.0863 28.9251C25.0748 28.9327 25.0595 28.9402 25.048 28.9477C24.3083 28.5839 23.7603 28.0289 23.427 27.2866C23.017 26.379 23.0591 25.4603 23.4078 24.5491C23.4194 24.5491 23.4347 24.5453 23.4538 24.5453Z" fill="#207196"/>
<path d="M29.6392 24.3219C30.0416 25.1357 30.1335 25.9832 29.8806 26.8568C29.6316 27.7156 29.0989 28.3719 28.2979 28.8181C28.3095 28.7806 28.3171 28.743 28.3286 28.7092C28.6812 27.7043 29.0338 26.6994 29.3824 25.6944C29.5165 25.3082 29.6123 24.9145 29.5894 24.502C29.5856 24.4419 29.597 24.382 29.6008 24.3219C29.6123 24.3257 29.6278 24.3219 29.6392 24.3219Z" fill="#207196"/>
<mask id="mask0_221_18512" style="mask-type:luminance" maskUnits="userSpaceOnUse" x="11" y="12" width="9" height="8">
<path d="M19.4088 12.6082H11.7988V19.2169H19.4088V12.6082Z" fill="white"/>
</mask>
<g mask="url(#mask0_221_18512)">
<path d="M12.3742 18.2723L12.7098 18.8358C12.7795 18.9544 12.8797 19.0476 12.9974 19.1154L14.196 17.0989H11.7988C11.7988 17.2302 11.8337 17.3615 11.9034 17.4802L12.3742 18.2723Z" fill="#0066DA"/>
<path d="M15.6038 14.7265L14.4052 12.71C14.2876 12.7778 14.1873 12.871 14.1176 12.9896L11.9034 16.7176C11.835 16.8336 11.7989 16.9651 11.7988 17.0988H14.196L15.6038 14.7265Z" fill="#00AC47"/>
<path d="M18.2105 19.1154C18.3282 19.0476 18.4284 18.9544 18.4982 18.8358L18.6376 18.6028L19.3045 17.4802C19.3742 17.3615 19.4091 17.2302 19.4091 17.0989H17.0117L17.5218 18.0732L18.2105 19.1154Z" fill="#EA4335"/>
<path d="M15.6039 14.7264L16.8025 12.7099C16.6848 12.6421 16.5497 12.6082 16.4102 12.6082H14.7975C14.6581 12.6082 14.523 12.6464 14.4053 12.7099L15.6039 14.7264Z" fill="#00832D"/>
<path d="M17.0113 17.0989H14.1957L12.9971 19.1154C13.1148 19.1832 13.2499 19.217 13.3893 19.217H17.8176C17.9571 19.217 18.0922 19.1789 18.2099 19.1154L17.0113 17.0989Z" fill="#2684FC"/>
<path d="M18.1969 14.8536L17.0898 12.9897C17.02 12.871 16.9198 12.7778 16.8021 12.7101L15.6035 14.7265L17.0113 17.0989H19.4042C19.4042 16.9675 19.3693 16.8362 19.2996 16.7176L18.1969 14.8536Z" fill="#FFBA00"/>
</g>
<defs>
<radialGradient id="paint0_radial_221_18512" cx="0" cy="0" r="1" gradientUnits="userSpaceOnUse" gradientTransform="translate(13.0377 -22.2903) rotate(75.524) scale(66.4573 66.4573)">
<stop stop-color="#E1F2A6"/>
<stop offset="1" stop-color="#15BE7C"/>
</radialGradient>
</defs>
</svg>
