<svg width="20" height="14" viewBox="0 0 20 14" fill="none" xmlns="http://www.w3.org/2000/svg">
<path d="M16.175 7.575H1C0.716667 7.575 0.479167 7.47917 0.2875 7.2875C0.0958334 7.09583 0 6.85833 0 6.575C0 6.29167 0.0958334 6.05417 0.2875 5.8625C0.479167 5.67083 0.716667 5.575 1 5.575H16.175L12.3 1.675C12.1167 1.49167 12.0208 1.2625 12.0125 0.9875C12.0042 0.7125 12.1 0.475 12.3 0.275C12.4833 0.0916667 12.7167 0 13 0C13.2833 0 13.5167 0.0916667 13.7 0.275L19.3 5.875C19.4 5.975 19.4708 6.08333 19.5125 6.2C19.5542 6.31667 19.575 6.44167 19.575 6.575C19.575 6.70833 19.5542 6.83333 19.5125 6.95C19.4708 7.06667 19.4 7.175 19.3 7.275L13.7 12.875C13.5167 13.0583 13.2875 13.15 13.0125 13.15C12.7375 13.15 12.5 13.0583 12.3 12.875C12.1 12.675 12 12.4375 12 12.1625C12 11.8875 12.1 11.65 12.3 11.45L16.175 7.575Z" fill="#00AC47"/>
</svg>
