<svg width="14" height="15" viewBox="0 0 14 15" fill="none" xmlns="http://www.w3.org/2000/svg">
<path fill-rule="evenodd" clip-rule="evenodd" d="M6.02924 0.35021C6.14024 0.239182 6.27202 0.151107 6.41707 0.0910177C6.56211 0.030928 6.71757 0 6.87457 0C7.03157 0 7.18703 0.030928 7.33207 0.0910177C7.47712 0.151107 7.6089 0.239182 7.7199 0.35021L8.68324 1.31354C8.72724 1.35754 8.7899 1.37821 8.8519 1.36821L10.1972 1.15554C10.5103 1.10601 10.8303 1.18282 11.0868 1.36908C11.3433 1.55534 11.5154 1.83581 11.5652 2.14888L11.7779 3.49421C11.7828 3.52475 11.7948 3.55371 11.813 3.57873C11.8312 3.60375 11.855 3.62413 11.8826 3.63821L13.0959 4.25621C13.3782 4.40035 13.5918 4.65063 13.6898 4.9521C13.7878 5.25358 13.7622 5.58161 13.6186 5.86421L13.0006 7.07821C12.9864 7.10562 12.979 7.13603 12.979 7.16688C12.979 7.19773 12.9864 7.22813 13.0006 7.25554L13.6186 8.46954C13.69 8.60942 13.7331 8.762 13.7454 8.91855C13.7578 9.07511 13.7392 9.23256 13.6906 9.38191C13.6421 9.53126 13.5646 9.66957 13.4625 9.78894C13.3605 9.9083 13.2359 10.0064 13.0959 10.0775L11.8826 10.6955C11.855 10.7096 11.8312 10.73 11.813 10.755C11.7948 10.78 11.7828 10.809 11.7779 10.8395L11.5652 12.1849C11.5154 12.4979 11.3433 12.7784 11.0868 12.9647C10.8303 13.1509 10.5103 13.2277 10.1972 13.1782L8.8519 12.9655C8.82147 12.9607 8.79031 12.9631 8.76098 12.9726C8.73166 12.9821 8.70501 12.9984 8.68324 13.0202L7.7199 13.9835C7.6089 14.0946 7.47712 14.1826 7.33207 14.2427C7.18703 14.3028 7.03157 14.3338 6.87457 14.3338C6.71757 14.3338 6.56211 14.3028 6.41707 14.2427C6.27202 14.1826 6.14024 14.0946 6.02924 13.9835L5.0659 13.0202C5.04412 12.9984 5.01748 12.9821 4.98815 12.9726C4.95883 12.9631 4.92767 12.9607 4.89724 12.9655L3.5519 13.1782C3.23879 13.2277 2.91883 13.1509 2.66231 12.9647C2.4058 12.7784 2.23373 12.4979 2.1839 12.1849L1.97124 10.8395C1.96634 10.809 1.95431 10.78 1.93613 10.755C1.91794 10.73 1.89411 10.7096 1.86657 10.6955L0.653235 10.0775C0.370899 9.9334 0.157291 9.68313 0.0592995 9.38165C-0.0386923 9.08018 -0.0130607 8.75214 0.130568 8.46954L0.748568 7.25554C0.762717 7.22813 0.7701 7.19773 0.7701 7.16688C0.7701 7.13603 0.762717 7.10562 0.748568 7.07821L0.130568 5.86421C0.0591813 5.72433 0.0160727 5.57175 0.00370858 5.4152C-0.00865558 5.25865 0.00996728 5.10119 0.0585119 4.95185C0.107056 4.8025 0.18457 4.66418 0.286619 4.54482C0.388667 4.42546 0.513248 4.32738 0.653235 4.25621L1.86657 3.63821C1.89411 3.62413 1.91794 3.60375 1.93613 3.57873C1.95431 3.55371 1.96634 3.52475 1.97124 3.49421L2.1839 2.14888C2.23373 1.83581 2.4058 1.55534 2.66231 1.36908C2.91883 1.18282 3.23879 1.10601 3.5519 1.15554L4.89724 1.36821C4.92767 1.3731 4.95883 1.3707 4.98815 1.36119C5.01748 1.35169 5.04412 1.33536 5.0659 1.31354L6.02924 0.35021ZM4.1879 7.52021L5.74324 9.07621C5.78967 9.12267 5.8448 9.15953 5.90549 9.18468C5.96617 9.20983 6.03121 9.22277 6.0969 9.22277C6.16259 9.22277 6.22763 9.20983 6.28832 9.18468C6.349 9.15953 6.40414 9.12267 6.45057 9.07621L9.56124 5.96488C9.65236 5.87062 9.70282 5.74434 9.70174 5.61324C9.70066 5.48214 9.64814 5.35671 9.55548 5.26396C9.46282 5.17121 9.33743 5.11857 9.20634 5.11737C9.07524 5.11617 8.94891 5.16651 8.85457 5.25754L6.09657 8.01554L4.89457 6.81354C4.84817 6.76714 4.79308 6.73034 4.73246 6.70522C4.67183 6.68011 4.60686 6.66719 4.54123 6.66719C4.47562 6.66719 4.41064 6.68011 4.35001 6.70522C4.28939 6.73034 4.2343 6.76714 4.1879 6.81354C4.1415 6.85994 4.10469 6.91503 4.07958 6.97565C4.05447 7.03628 4.04155 7.10126 4.04155 7.16688C4.04155 7.2325 4.05447 7.29747 4.07958 7.3581C4.10469 7.41873 4.1415 7.47381 4.1879 7.52021Z" fill="white" fill-opacity="0.9"/>
</svg>
