<svg width="23" height="23" viewBox="0 0 23 23" fill="none" xmlns="http://www.w3.org/2000/svg">
<path d="M7.33333 22.6667C5.29911 22.6667 3.56833 21.953 2.141 20.5257C0.713667 19.0983 0 17.3676 0 15.3333V7.33333C0 5.29911 0.713667 3.56833 2.141 2.141C3.56833 0.713666 5.29911 0 7.33333 0H15.3333C17.3676 0 19.0983 0.713666 20.5257 2.141C21.953 3.56833 22.6667 5.29911 22.6667 7.33333V15.3333C22.6667 17.3676 21.953 19.0983 20.5257 20.5257C19.0983 21.953 17.3676 22.6667 15.3333 22.6667H7.33333ZM10 13.395L7.76933 11.164C7.58467 10.9796 7.35256 10.8851 7.073 10.8807C6.79367 10.8764 6.55733 10.9709 6.364 11.164C6.17089 11.3573 6.07433 11.5916 6.07433 11.8667C6.07433 12.1418 6.17089 12.376 6.364 12.5693L9.15633 15.3617C9.39744 15.6026 9.67867 15.723 10 15.723C10.3213 15.723 10.6026 15.6026 10.8437 15.3617L16.836 9.36933C17.0204 9.18467 17.1149 8.95256 17.1193 8.673C17.1236 8.39367 17.0291 8.15733 16.836 7.964C16.6427 7.77089 16.4084 7.67433 16.1333 7.67433C15.8582 7.67433 15.624 7.77089 15.4307 7.964L10 13.395Z" fill="#E1F2A6"/>
</svg>
