<svg width="28" height="28" viewBox="0 0 28 28" fill="none" xmlns="http://www.w3.org/2000/svg">
<mask id="mask0_141_3695" style="mask-type:alpha" maskUnits="userSpaceOnUse" x="0" y="0" width="28" height="28">
<rect width="28" height="28" fill="#D9D9D9"/>
</mask>
<g mask="url(#mask0_141_3695)">
<path d="M11.1417 17.675L21.0292 7.7875C21.2625 7.55417 21.5347 7.4375 21.8458 7.4375C22.157 7.4375 22.4292 7.55417 22.6625 7.7875C22.8959 8.02083 23.0125 8.29792 23.0125 8.61875C23.0125 8.93958 22.8959 9.21667 22.6625 9.45L11.9584 20.1833C11.725 20.4167 11.4528 20.5333 11.1417 20.5333C10.8306 20.5333 10.5584 20.4167 10.325 20.1833L5.30835 15.1667C5.07502 14.9333 4.96321 14.6562 4.97293 14.3354C4.98266 14.0146 5.10418 13.7375 5.33752 13.5042C5.57085 13.2708 5.84793 13.1542 6.16877 13.1542C6.4896 13.1542 6.76668 13.2708 7.00002 13.5042L11.1417 17.675Z" fill="#00AC47"/>
</g>
</svg>
