<svg width="28" height="28" viewBox="0 0 28 28" fill="none" xmlns="http://www.w3.org/2000/svg">
<mask id="mask0_141_3700" style="mask-type:alpha" maskUnits="userSpaceOnUse" x="0" y="0" width="28" height="28">
<rect width="28" height="28" fill="#D9D9D9"/>
</mask>
<g mask="url(#mask0_141_3700)">
<path d="M14 15.6313L8.28333 21.348C8.06944 21.5619 7.79722 21.6688 7.46666 21.6688C7.13611 21.6688 6.86388 21.5619 6.65 21.348C6.43611 21.1341 6.32916 20.8619 6.32916 20.5313C6.32916 20.2008 6.43611 19.9285 6.65 19.7146L12.3667 13.998L6.65 8.28132C6.43611 8.06743 6.32916 7.7952 6.32916 7.46465C6.32916 7.13409 6.43611 6.86187 6.65 6.64798C6.86388 6.43409 7.13611 6.32715 7.46666 6.32715C7.79722 6.32715 8.06944 6.43409 8.28333 6.64798L14 12.3646L19.7167 6.64798C19.9306 6.43409 20.2028 6.32715 20.5333 6.32715C20.8639 6.32715 21.1361 6.43409 21.35 6.64798C21.5639 6.86187 21.6708 7.13409 21.6708 7.46465C21.6708 7.7952 21.5639 8.06743 21.35 8.28132L15.6333 13.998L21.35 19.7146C21.5639 19.9285 21.6708 20.2008 21.6708 20.5313C21.6708 20.8619 21.5639 21.1341 21.35 21.348C21.1361 21.5619 20.8639 21.6688 20.5333 21.6688C20.2028 21.6688 19.9306 21.5619 19.7167 21.348L14 15.6313Z" fill="#FF0005"/>
</g>
</svg>
