<svg width="24" height="24" viewBox="0 0 24 24" fill="none" xmlns="http://www.w3.org/2000/svg">
<mask id="mask0_108_532" style="mask-type:alpha" maskUnits="userSpaceOnUse" x="0" y="0" width="24" height="24">
<rect width="24" height="24" fill="#D9D9D9"/>
</mask>
<g mask="url(#mask0_108_532)">
<path d="M10.5 21.8653V20.5H5.30775C4.80258 20.5 4.375 20.325 4.025 19.975C3.675 19.625 3.5 19.1974 3.5 18.6923V5.30777C3.5 4.8026 3.675 4.37502 4.025 4.02502C4.375 3.67502 4.80258 3.50002 5.30775 3.50002H10.5V2.13477C10.5 1.92227 10.5719 1.7441 10.7158 1.60027C10.8596 1.4566 11.0378 1.38477 11.2503 1.38477C11.4629 1.38477 11.641 1.4566 11.7845 1.60027C11.9282 1.7441 12 1.92227 12 2.13477V21.8653C12 22.0778 11.9281 22.2559 11.7843 22.3998C11.6404 22.5434 11.4622 22.6153 11.2497 22.6153C11.0371 22.6153 10.859 22.5434 10.7155 22.3998C10.5718 22.2559 10.5 22.0778 10.5 21.8653ZM5.30775 19H10.5V16.5H8C7.7875 16.5 7.60942 16.4281 7.46575 16.2843C7.32192 16.1404 7.25 15.9623 7.25 15.7498C7.25 15.5371 7.32192 15.359 7.46575 15.2155C7.60942 15.0718 7.7875 15 8 15H10.5V12.75H8C7.7875 12.75 7.60942 12.6781 7.46575 12.5343C7.32192 12.3904 7.25 12.2123 7.25 11.9998C7.25 11.7871 7.32192 11.609 7.46575 11.4655C7.60942 11.3218 7.7875 11.25 8 11.25H10.5V9.00002H8C7.7875 9.00002 7.60942 8.9281 7.46575 8.78427C7.32192 8.64043 7.25 8.46227 7.25 8.24976C7.25 8.0371 7.32192 7.85901 7.46575 7.71552C7.60942 7.57185 7.7875 7.50002 8 7.50002H10.5V5.00002H5.30775C5.23075 5.00002 5.16025 5.0321 5.09625 5.09626C5.03208 5.16026 5 5.23077 5 5.30777V18.6923C5 18.7693 5.03208 18.8398 5.09625 18.9038C5.16025 18.9679 5.23075 19 5.30775 19ZM14.8462 20.5C14.6337 20.5 14.4556 20.4281 14.3117 20.2843C14.1681 20.1404 14.0962 19.9623 14.0962 19.7498C14.0962 19.5371 14.1681 19.359 14.3117 19.2155C14.4556 19.0718 14.6337 19 14.8462 19H18.7885C18.8653 19 18.9358 18.9679 19 18.9038C19.0642 18.8398 19.0962 18.7693 19.0962 18.6923V5.30777C19.0962 5.23077 19.0642 5.16026 19 5.09626C18.9358 5.0321 18.8653 5.00002 18.7885 5.00002H14.8462C14.6337 5.00002 14.4556 4.9281 14.3117 4.78427C14.1681 4.64043 14.0962 4.46227 14.0962 4.24977C14.0962 4.0371 14.1681 3.85902 14.3117 3.71552C14.4556 3.57185 14.6337 3.50002 14.8462 3.50002H18.7885C19.2937 3.50002 19.7212 3.67502 20.0712 4.02502C20.4211 4.37502 20.596 4.8026 20.596 5.30777V18.6923C20.596 19.1974 20.4211 19.625 20.0712 19.975C19.7212 20.325 19.2937 20.5 18.7885 20.5H14.8462ZM14.8462 12.75C14.6337 12.75 14.4556 12.6781 14.3117 12.5343C14.1681 12.3904 14.0962 12.2123 14.0962 11.9998C14.0962 11.7871 14.1681 11.609 14.3117 11.4655C14.4556 11.3218 14.6337 11.25 14.8462 11.25H16.5962C16.8087 11.25 16.9868 11.3219 17.1305 11.4658C17.2743 11.6096 17.3462 11.7878 17.3462 12.0003C17.3462 12.2129 17.2743 12.391 17.1305 12.5345C16.9868 12.6782 16.8087 12.75 16.5962 12.75H14.8462ZM14.8462 9.00002C14.6337 9.00002 14.4556 8.9281 14.3117 8.78427C14.1681 8.64043 14.0962 8.46227 14.0962 8.24976C14.0962 8.0371 14.1681 7.85901 14.3117 7.71552C14.4556 7.57185 14.6337 7.50002 14.8462 7.50002H16.5962C16.8087 7.50002 16.9868 7.57193 17.1305 7.71577C17.2743 7.8596 17.3462 8.03777 17.3462 8.25027C17.3462 8.46293 17.2743 8.64102 17.1305 8.78452C16.9868 8.92818 16.8087 9.00002 16.5962 9.00002H14.8462Z" fill="#00AC47"/>
</g>
</svg>
