<svg width="16" height="16" viewBox="0 0 16 16" fill="none" xmlns="http://www.w3.org/2000/svg">
<mask id="mask0_221_20619" style="mask-type:alpha" maskUnits="userSpaceOnUse" x="0" y="0" width="16" height="16">
<rect width="16" height="16" fill="#D9D9D9"/>
</mask>
<g mask="url(#mask0_221_20619)">
<path d="M3.977 9.84101C4.62311 9.52645 5.27394 9.28845 5.9295 9.12701C6.58506 8.96545 7.24744 8.8804 7.91667 8.87184C7.93978 8.89317 7.95944 8.91178 7.97567 8.92767C7.99189 8.94345 8.01794 8.96328 8.05383 8.98717C8.17439 9.02306 8.268 9.0934 8.33467 9.19817C8.40133 9.30284 8.41756 9.41756 8.38333 9.54234C8.34911 9.66712 8.27922 9.75495 8.17367 9.80584C8.06811 9.85662 7.95294 9.87862 7.82817 9.87184C7.24961 9.85984 6.67483 9.93245 6.10383 10.0897C5.53294 10.247 4.97694 10.4616 4.43583 10.7333C4.30172 10.806 4.19556 10.8998 4.11733 11.0147C4.03911 11.1297 4 11.2547 4 11.3897V11.8718H8.53583C8.7025 11.8718 8.8275 11.9238 8.91083 12.0277C8.99417 12.1316 9.03583 12.2459 9.03583 12.3707C9.03583 12.4953 8.99417 12.61 8.91083 12.7147C8.8275 12.8195 8.7025 12.8718 8.53583 12.8718H4.01283C3.73161 12.8718 3.4925 12.7733 3.2955 12.5763C3.0985 12.3792 3 12.1401 3 11.859V11.3897C3 11.0632 3.08867 10.7609 3.266 10.4827C3.44333 10.2045 3.68033 9.99056 3.977 9.84101ZM8 7.79484C7.35833 7.79484 6.80906 7.5664 6.35217 7.10951C5.89517 6.65251 5.66667 6.10317 5.66667 5.46151C5.66667 4.81984 5.89517 4.27056 6.35217 3.81367C6.80906 3.35667 7.35833 3.12817 8 3.12817C8.64167 3.12817 9.19094 3.35667 9.64783 3.81367C10.1048 4.27056 10.3333 4.81984 10.3333 5.46151C10.3333 6.10317 10.1048 6.65251 9.64783 7.10951C9.19094 7.5664 8.64167 7.79484 8 7.79484ZM8 6.79484C8.36667 6.79484 8.68056 6.66428 8.94167 6.40317C9.20278 6.14206 9.33333 5.82817 9.33333 5.46151C9.33333 5.09484 9.20278 4.78095 8.94167 4.51984C8.68056 4.25873 8.36667 4.12817 8 4.12817C7.63333 4.12817 7.31944 4.25873 7.05833 4.51984C6.79722 4.78095 6.66667 5.09484 6.66667 5.46151C6.66667 5.82817 6.79722 6.14206 7.05833 6.40317C7.31944 6.66428 7.63333 6.79484 8 6.79484ZM11.8115 9.30001C12.0209 9.09056 12.2102 8.91556 12.3793 8.77501C12.5483 8.63445 12.7814 8.56417 13.0787 8.56417C13.4578 8.56417 13.7617 8.69406 13.9903 8.95384C14.219 9.21362 14.3333 9.50801 14.3333 9.83701C14.3333 9.99112 14.3032 10.1453 14.243 10.2995C14.1827 10.4536 14.0906 10.5926 13.9668 10.7165L12.2333 12.45C12.1128 12.5705 11.9722 12.6307 11.8115 12.6307C11.6508 12.6307 11.5102 12.5705 11.3897 12.45L9.65767 10.718C9.52178 10.582 9.4265 10.4378 9.37183 10.2855C9.31717 10.1331 9.28983 9.98062 9.28983 9.82817C9.28983 9.49928 9.40739 9.2064 9.6425 8.94951C9.87772 8.69262 10.1794 8.56417 10.5475 8.56417C10.8366 8.56417 11.0638 8.63101 11.229 8.76467C11.3942 8.89845 11.5884 9.0769 11.8115 9.30001Z" fill="white"/>
</g>
</svg>
