<svg width="20" height="20" viewBox="0 0 20 20" fill="none" xmlns="http://www.w3.org/2000/svg">
<mask id="mask0_971_580" style="mask-type:alpha" maskUnits="userSpaceOnUse" x="0" y="0" width="20" height="20">
<rect width="20" height="20" fill="#D9D9D9"/>
</mask>
<g mask="url(#mask0_971_580)">
<path d="M9.9987 13.1089C10.6129 13.1089 11.1604 12.9244 11.6412 12.5552C12.1219 12.1862 12.4723 11.7158 12.6925 11.1441H7.30787C7.52801 11.7158 7.87794 12.1862 8.35766 12.5552C8.83752 12.9244 9.38454 13.1089 9.9987 13.1089ZM8.07891 9.9679C8.38225 9.9679 8.6394 9.86179 8.85037 9.64956C9.06134 9.43734 9.16683 9.17956 9.16683 8.87623C9.16683 8.57303 9.06072 8.31595 8.8485 8.10498C8.63613 7.89401 8.37836 7.78852 8.07516 7.78852C7.77197 7.78852 7.51488 7.89463 7.30391 8.10685C7.09294 8.31908 6.98745 8.57679 6.98745 8.87998C6.98745 9.18331 7.09357 9.44047 7.30579 9.65144C7.51801 9.86241 7.77572 9.9679 8.07891 9.9679ZM11.9252 9.9679C12.2284 9.9679 12.4854 9.86179 12.6964 9.64956C12.9074 9.43734 13.0129 9.17956 13.0129 8.87623C13.0129 8.57303 12.9068 8.31595 12.6945 8.10498C12.4823 7.89401 12.2246 7.78852 11.9214 7.78852C11.6181 7.78852 11.3609 7.89463 11.15 8.10685C10.939 8.31908 10.8335 8.57679 10.8335 8.87998C10.8335 9.18331 10.9396 9.44047 11.1518 9.65144C11.3642 9.86241 11.622 9.9679 11.9252 9.9679ZM6.56266 5.62185L8.81579 2.66498C8.96537 2.46484 9.14301 2.3179 9.3487 2.22415C9.5544 2.13026 9.77155 2.08331 10.0002 2.08331C10.2288 2.08331 10.4459 2.13026 10.6516 2.22415C10.8573 2.3179 11.035 2.46484 11.1845 2.66498L13.4377 5.62185L16.8831 6.78519C17.2122 6.89102 17.4689 7.07762 17.6531 7.34498C17.8374 7.61248 17.9295 7.9079 17.9295 8.23123C17.9295 8.38053 17.9077 8.52936 17.8641 8.67769C17.8205 8.82602 17.7488 8.96817 17.6491 9.10415L15.4056 12.2179L15.4889 15.5225C15.5028 15.9612 15.3581 16.331 15.055 16.6319C14.7519 16.9328 14.3987 17.0833 13.9954 17.0833C13.9836 17.0833 13.8441 17.0651 13.577 17.0287L10.0002 16.0031L6.42329 17.0287C6.35384 17.0565 6.28218 17.0725 6.20829 17.0769C6.1344 17.0812 6.06662 17.0833 6.00495 17.0833C5.59787 17.0833 5.2437 16.9328 4.94245 16.6319C4.6412 16.331 4.49752 15.9612 4.51141 15.5225L4.59475 12.1971L2.36391 9.10415C2.26419 8.96762 2.19252 8.82491 2.14891 8.67602C2.1053 8.52699 2.0835 8.37804 2.0835 8.22915C2.0835 7.91484 2.17502 7.62255 2.35808 7.35227C2.54113 7.08199 2.79683 6.89033 3.12516 6.77727L6.56266 5.62185ZM7.33516 6.69873L3.52579 7.9679C3.44565 7.99456 3.39093 8.04935 3.36162 8.13227C3.33218 8.21505 3.34419 8.29116 3.39766 8.3606L5.85266 11.8254L5.76141 15.5481C5.756 15.6389 5.78801 15.711 5.85745 15.7644C5.9269 15.8178 6.0044 15.8312 6.08995 15.8046L10.0002 14.7066L13.9104 15.8254C13.9959 15.8521 14.0734 15.8387 14.1429 15.7852C14.2123 15.7319 14.2443 15.6598 14.2389 15.5689L14.1477 11.8254L16.6027 8.40227C16.6561 8.33283 16.6681 8.25672 16.6387 8.17394C16.6094 8.09102 16.5547 8.03623 16.4745 8.00956L12.6652 6.69873L10.2006 3.4456C10.1524 3.37602 10.0856 3.34123 10.0002 3.34123C9.91475 3.34123 9.84794 3.37602 9.79975 3.4456L7.33516 6.69873Z" fill="#0088FF"/>
</g>
</svg>
