<svg width="16" height="16" viewBox="0 0 16 16" fill="none" xmlns="http://www.w3.org/2000/svg">
<mask id="mask0_221_20604" style="mask-type:alpha" maskUnits="userSpaceOnUse" x="0" y="0" width="16" height="16">
<rect width="16" height="16" fill="#D9D9D9"/>
</mask>
<g mask="url(#mask0_221_20604)">
<path d="M8 14.3334C6.60511 14.3334 5.42306 13.8488 4.45383 12.8796C3.48461 11.9104 3 10.7283 3 9.33344C3 8.2061 3.32522 7.1106 3.97567 6.04694C4.62611 4.98327 5.518 4.04799 6.65133 3.2411C6.86578 3.08299 7.09078 3.06721 7.32633 3.19377C7.56178 3.32021 7.6795 3.51421 7.6795 3.77577V4.3411C7.6795 4.74877 7.84528 5.10499 8.17683 5.40977C8.5085 5.71444 8.89956 5.86677 9.35 5.86677C9.54744 5.86677 9.73867 5.82833 9.92367 5.75144C10.1088 5.67455 10.2787 5.56471 10.4333 5.42194C10.5222 5.33216 10.6276 5.27983 10.7493 5.26494C10.8711 5.24994 10.9846 5.2826 11.0897 5.36294C11.6871 5.83305 12.1549 6.41744 12.493 7.1161C12.831 7.81488 13 8.55399 13 9.33344C13 10.7283 12.5154 11.9104 11.5462 12.8796C10.5769 13.8488 9.39489 14.3334 8 14.3334ZM4 9.33344C4 10.0052 4.1605 10.6304 4.4815 11.2091C4.80239 11.7878 5.24361 12.2544 5.80517 12.6091C5.75561 12.5151 5.72011 12.4213 5.69867 12.3276C5.67733 12.234 5.66667 12.136 5.66667 12.0334C5.66667 11.7249 5.72589 11.4343 5.84433 11.1616C5.96267 10.8889 6.1325 10.6419 6.35383 10.4206L8 8.80144L9.6525 10.4206C9.87395 10.6419 10.0428 10.8889 10.159 11.1616C10.2752 11.4343 10.3333 11.7249 10.3333 12.0334C10.3333 12.136 10.3227 12.234 10.3013 12.3276C10.2799 12.4213 10.2444 12.5151 10.1948 12.6091C10.7564 12.2544 11.1976 11.7878 11.5185 11.2091C11.8395 10.6304 12 10.0052 12 9.33344C12 8.77788 11.8972 8.25288 11.6917 7.75844C11.4861 7.26399 11.1889 6.82233 10.8 6.43344C10.5778 6.57788 10.3444 6.68621 10.1 6.75844C9.85556 6.83066 9.60556 6.86677 9.35 6.86677C8.65689 6.86677 8.05756 6.63899 7.552 6.18344C7.04644 5.72788 6.75689 5.16249 6.68333 4.48727C5.81667 5.21638 5.15278 5.99799 4.69167 6.8321C4.23056 7.66633 4 8.5001 4 9.33344ZM8 10.2001L7.05 11.1334C6.92778 11.2557 6.83333 11.3945 6.76667 11.5501C6.7 11.7057 6.66667 11.8668 6.66667 12.0334C6.66667 12.389 6.79722 12.6945 7.05833 12.9501C7.31944 13.2057 7.63333 13.3334 8 13.3334C8.36667 13.3334 8.68056 13.2057 8.94167 12.9501C9.20278 12.6945 9.33333 12.389 9.33333 12.0334C9.33333 11.8557 9.3 11.6918 9.23333 11.5418C9.16667 11.3918 9.07222 11.2557 8.95 11.1334L8 10.2001Z" fill="white"/>
</g>
</svg>
