<svg width="20" height="20" viewBox="0 0 20 20" fill="none" xmlns="http://www.w3.org/2000/svg">
<mask id="mask0_971_598" style="mask-type:alpha" maskUnits="userSpaceOnUse" x="0" y="0" width="20" height="20">
<rect width="20" height="20" fill="#D9D9D9"/>
</mask>
<g mask="url(#mask0_971_598)">
<path d="M10 13.0127C10.1907 13.0127 10.3506 12.9483 10.4796 12.8194C10.6086 12.6903 10.6731 12.5305 10.6731 12.3398C10.6731 12.1491 10.6086 11.9892 10.4796 11.8602C10.3506 11.7312 10.1907 11.6667 10 11.6667C9.80931 11.6667 9.64944 11.7312 9.52042 11.8602C9.39139 11.9892 9.32688 12.1491 9.32688 12.3398C9.32688 12.5305 9.39139 12.6903 9.52042 12.8194C9.64944 12.9483 9.80931 13.0127 10 13.0127ZM10.0002 10.1762C10.1774 10.1762 10.3258 10.1164 10.4454 9.99666C10.5651 9.8768 10.625 9.72832 10.625 9.55124V6.77895C10.625 6.60187 10.5651 6.45339 10.4452 6.33353C10.3253 6.21381 10.1769 6.15395 9.99979 6.15395C9.82257 6.15395 9.67417 6.21381 9.55458 6.33353C9.43486 6.45339 9.375 6.60187 9.375 6.77895V9.55124C9.375 9.72832 9.43493 9.8768 9.55479 9.99666C9.67465 10.1164 9.82313 10.1762 10.0002 10.1762ZM10 17.8092C9.91347 17.8092 9.82854 17.8022 9.74521 17.7883C9.66187 17.7744 9.58118 17.7536 9.50312 17.7258C7.74576 17.1008 6.34757 15.9927 5.30854 14.4014C4.26951 12.8101 3.75 11.0929 3.75 9.24999V5.49686C3.75 5.18034 3.84104 4.89541 4.02313 4.64207C4.20507 4.38888 4.44042 4.20534 4.72917 4.09145L9.47271 2.32062C9.65118 2.25645 9.82694 2.22437 10 2.22437C10.1731 2.22437 10.3488 2.25645 10.5273 2.32062L15.2708 4.09145C15.5596 4.20534 15.7949 4.38888 15.9769 4.64207C16.159 4.89541 16.25 5.18034 16.25 5.49686V9.24999C16.25 11.0929 15.7305 12.8101 14.6915 14.4014C13.6524 15.9927 12.2542 17.1008 10.4969 17.7258C10.4188 17.7536 10.3381 17.7744 10.2548 17.7883C10.1715 17.8022 10.0865 17.8092 10 17.8092ZM10 16.5833C11.4444 16.125 12.6389 15.2083 13.5833 13.8333C14.5278 12.4583 15 10.9305 15 9.24999V5.48874C15 5.43541 14.9853 5.38735 14.9558 5.34457C14.9265 5.3018 14.8851 5.26971 14.8317 5.24832L10.0881 3.47749C10.0615 3.4668 10.0321 3.46145 10 3.46145C9.96792 3.46145 9.93854 3.4668 9.91187 3.47749L5.16833 5.24832C5.11486 5.26971 5.07347 5.3018 5.04417 5.34457C5.01472 5.38735 5 5.43541 5 5.48874V9.24999C5 10.9305 5.47222 12.4583 6.41667 13.8333C7.36111 15.2083 8.55556 16.125 10 16.5833Z" fill="#FF383C"/>
</g>
</svg>
