<svg width="20" height="20" viewBox="0 0 20 20" fill="none" xmlns="http://www.w3.org/2000/svg">
<mask id="mask0_971_586" style="mask-type:alpha" maskUnits="userSpaceOnUse" x="0" y="0" width="20" height="20">
<rect width="20" height="20" fill="#D9D9D9"/>
</mask>
<g mask="url(#mask0_971_586)">
<path d="M12.8385 9.00644C13.1418 9.00644 13.399 8.90026 13.61 8.6879C13.8209 8.47567 13.9264 8.21797 13.9264 7.91477C13.9264 7.61158 13.8203 7.35449 13.6081 7.14352C13.3959 6.93241 13.1381 6.82685 12.8347 6.82685C12.5316 6.82685 12.2745 6.93303 12.0635 7.1454C11.8525 7.35762 11.747 7.61533 11.747 7.91852C11.747 8.22172 11.8531 8.4788 12.0654 8.68977C12.2776 8.90088 12.5353 9.00644 12.8385 9.00644ZM7.16558 9.00644C7.46877 9.00644 7.72586 8.90026 7.93683 8.6879C8.1478 8.47567 8.25329 8.21797 8.25329 7.91477C8.25329 7.61158 8.14718 7.35449 7.93495 7.14352C7.72273 6.93241 7.46502 6.82685 7.16183 6.82685C6.8585 6.82685 6.60134 6.93303 6.39037 7.1454C6.1794 7.35762 6.07391 7.61533 6.07391 7.91852C6.07391 8.22172 6.18002 8.4788 6.39225 8.68977C6.60447 8.90088 6.86225 9.00644 7.16558 9.00644ZM8.061 12.7885H11.9393C12.0828 12.7885 12.2015 12.7416 12.2954 12.6477C12.3891 12.5539 12.436 12.4354 12.436 12.2921C12.436 12.1486 12.3891 12.0298 12.2954 11.9358C12.2015 11.8418 12.0828 11.7948 11.9393 11.7948H8.061C7.91752 11.7948 7.79884 11.8417 7.70495 11.9356C7.6112 12.0294 7.56433 12.1479 7.56433 12.2912C7.56433 12.4347 7.6112 12.5535 7.70495 12.6475C7.79884 12.7415 7.91752 12.7885 8.061 12.7885ZM10.0016 17.9166C8.90662 17.9166 7.87738 17.7089 6.91391 17.2933C5.95044 16.8778 5.11238 16.3138 4.39975 15.6014C3.68711 14.8891 3.12287 14.0514 2.70704 13.0883C2.29134 12.1253 2.0835 11.0963 2.0835 10.0014C2.0835 8.90644 2.29127 7.8772 2.70683 6.91373C3.12238 5.95026 3.68634 5.1122 4.3987 4.39956C5.11107 3.68692 5.94877 3.12269 6.91183 2.70685C7.87489 2.29116 8.90384 2.08331 9.9987 2.08331C11.0937 2.08331 12.1229 2.29109 13.0864 2.70665C14.0499 3.1222 14.8879 3.68616 15.6006 4.39852C16.3132 5.11088 16.8775 5.94859 17.2933 6.91165C17.709 7.8747 17.9168 8.90366 17.9168 9.99852C17.9168 11.0935 17.7091 12.1228 17.2935 13.0862C16.8779 14.0497 16.314 14.8878 15.6016 15.6004C14.8893 16.313 14.0516 16.8773 13.0885 17.2931C12.1254 17.7088 11.0965 17.9166 10.0016 17.9166ZM10.0002 16.6666C11.8613 16.6666 13.4377 16.0208 14.7293 14.7291C16.021 13.4375 16.6668 11.8611 16.6668 9.99998C16.6668 8.13887 16.021 6.56248 14.7293 5.27081C13.4377 3.97915 11.8613 3.33331 10.0002 3.33331C8.13905 3.33331 6.56266 3.97915 5.271 5.27081C3.97933 6.56248 3.3335 8.13887 3.3335 9.99998C3.3335 11.8611 3.97933 13.4375 5.271 14.7291C6.56266 16.0208 8.13905 16.6666 10.0002 16.6666Z" fill="#FFCC00"/>
</g>
</svg>
