<svg width="20" height="20" viewBox="0 0 20 20" fill="none" xmlns="http://www.w3.org/2000/svg">
<mask id="mask0_971_592" style="mask-type:alpha" maskUnits="userSpaceOnUse" x="0" y="0" width="20" height="20">
<rect width="20" height="20" fill="#D9D9D9"/>
</mask>
<g mask="url(#mask0_971_592)">
<path d="M9.40229 12.2917H10.5977C10.7108 12.2917 10.8087 12.2446 10.8917 12.1504C10.9746 12.0562 11.0022 11.9527 10.9744 11.8398L10.5785 9.6602C10.8402 9.54798 11.0509 9.37159 11.2106 9.13103C11.3703 8.89048 11.4502 8.62457 11.4502 8.33332C11.4502 7.93443 11.3081 7.59298 11.024 7.30895C10.7398 7.02506 10.3982 6.88312 9.99917 6.88312C9.60014 6.88312 9.25882 7.02506 8.97521 7.30895C8.6916 7.59298 8.54979 7.93443 8.54979 8.33332C8.54979 8.62457 8.62965 8.89048 8.78938 9.13103C8.9491 9.37159 9.15979 9.54798 9.42146 9.6602L9.02563 11.8398C8.99785 11.9527 9.02542 12.0562 9.10833 12.1504C9.19125 12.2446 9.28924 12.2917 9.40229 12.2917ZM10 17.8092C9.91347 17.8092 9.82854 17.8022 9.74521 17.7883C9.66187 17.7744 9.58118 17.7536 9.50312 17.7258C7.74576 17.1008 6.34757 15.9927 5.30854 14.4014C4.26951 12.8101 3.75 11.0929 3.75 9.24999V5.49686C3.75 5.18034 3.84104 4.89541 4.02313 4.64207C4.20507 4.38888 4.44042 4.20534 4.72917 4.09145L9.47271 2.32062C9.65118 2.25645 9.82694 2.22437 10 2.22437C10.1731 2.22437 10.3488 2.25645 10.5273 2.32062L15.2708 4.09145C15.5596 4.20534 15.7949 4.38888 15.9769 4.64207C16.159 4.89541 16.25 5.18034 16.25 5.49686V9.24999C16.25 11.0929 15.7305 12.8101 14.6915 14.4014C13.6524 15.9927 12.2542 17.1008 10.4969 17.7258C10.4188 17.7536 10.3381 17.7744 10.2548 17.7883C10.1715 17.8022 10.0865 17.8092 10 17.8092ZM10 16.5833C11.4444 16.125 12.6389 15.2083 13.5833 13.8333C14.5278 12.4583 15 10.9305 15 9.24999V5.48874C15 5.43541 14.9853 5.38735 14.9558 5.34457C14.9265 5.3018 14.8851 5.26971 14.8317 5.24832L10.0881 3.47749C10.0615 3.4668 10.0321 3.46145 10 3.46145C9.96792 3.46145 9.93854 3.4668 9.91187 3.47749L5.16833 5.24832C5.11486 5.26971 5.07347 5.3018 5.04417 5.34457C5.01472 5.38735 5 5.43541 5 5.48874V9.24999C5 10.9305 5.47222 12.4583 6.41667 13.8333C7.36111 15.2083 8.55556 16.125 10 16.5833Z" fill="#00AC47"/>
</g>
</svg>
