<svg width="20" height="20" viewBox="0 0 20 20" fill="none" xmlns="http://www.w3.org/2000/svg">
<mask id="mask0_1033_45" style="mask-type:alpha" maskUnits="userSpaceOnUse" x="0" y="0" width="20" height="20">
<rect width="20" height="20" fill="#D9D9D9"/>
</mask>
<g mask="url(#mask0_1033_45)">
<path d="M5.13641 16.25C4.95933 16.25 4.81086 16.1901 4.691 16.0702C4.57127 15.9503 4.51141 15.8019 4.51141 15.6248C4.51141 15.4475 4.57127 15.2991 4.691 15.1796C4.81086 15.0598 4.95933 15 5.13641 15H14.8639C15.041 15 15.1895 15.0599 15.3093 15.1798C15.4291 15.2996 15.4889 15.4481 15.4889 15.6252C15.4889 15.8024 15.4291 15.9508 15.3093 16.0704C15.1895 16.1901 15.041 16.25 14.8639 16.25H5.13641ZM5.75183 13.5898C5.38641 13.5898 5.06482 13.4725 4.78704 13.2379C4.50926 13.0035 4.33565 12.7062 4.2662 12.3462L3.35266 7.06248C3.32489 7.06776 3.29363 7.07255 3.25891 7.07685C3.22419 7.08116 3.19294 7.08331 3.16516 7.08331C2.86072 7.08331 2.60433 6.97817 2.396 6.7679C2.18766 6.55748 2.0835 6.30206 2.0835 6.00165C2.0835 5.69665 2.18766 5.43741 2.396 5.22394C2.60433 5.0106 2.86093 4.90394 3.16579 4.90394C3.47051 4.90394 3.72954 5.0106 3.94287 5.22394C4.15634 5.43741 4.26308 5.69665 4.26308 6.00165C4.26308 6.07915 4.25662 6.15116 4.2437 6.21769C4.23093 6.28408 4.21065 6.34665 4.18287 6.4054L6.63475 7.45186C6.68822 7.47324 6.74162 7.47595 6.79495 7.45998C6.84843 7.44387 6.89384 7.41179 6.9312 7.36373L9.35912 4.05769C9.22245 3.96255 9.11218 3.83741 9.02829 3.68227C8.9444 3.52713 8.90245 3.36005 8.90245 3.18102C8.90245 2.87616 9.00912 2.61699 9.22245 2.40352C9.43579 2.19005 9.69489 2.08331 9.99975 2.08331C10.3045 2.08331 10.5637 2.18991 10.7775 2.4031C10.9911 2.61616 11.0979 2.87498 11.0979 3.17956C11.0979 3.3622 11.0559 3.53047 10.972 3.68435C10.8881 3.8381 10.7779 3.96255 10.6412 4.05769L13.0691 7.36373C13.1065 7.41179 13.1519 7.44387 13.2054 7.45998C13.2587 7.47595 13.3121 7.47324 13.3656 7.45186L15.8175 6.4054C15.7961 6.34859 15.7774 6.28602 15.7614 6.21769C15.7453 6.14949 15.7372 6.07748 15.7372 6.00165C15.7372 5.69665 15.8414 5.43741 16.0497 5.22394C16.2581 5.0106 16.5147 4.90394 16.8195 4.90394C17.1243 4.90394 17.3834 5.0106 17.5968 5.22394C17.8102 5.43741 17.9168 5.69665 17.9168 6.00165C17.9168 6.30123 17.81 6.55644 17.5962 6.76727C17.3825 6.97797 17.1229 7.08331 16.8175 7.08331C16.793 7.08331 16.7655 7.07984 16.735 7.0729C16.7045 7.06595 16.6741 7.06248 16.6437 7.06248L15.7341 12.3462C15.6647 12.7062 15.4911 13.0035 15.2133 13.2379C14.9355 13.4725 14.6139 13.5898 14.2485 13.5898H5.75183ZM5.75975 12.3398H14.2406C14.2993 12.3398 14.3527 12.3211 14.4008 12.2837C14.4488 12.2462 14.4782 12.1981 14.4889 12.1394L15.231 8.04311L13.856 8.60415C13.5322 8.74081 13.2031 8.76512 12.8687 8.67706C12.5344 8.58887 12.262 8.40005 12.0514 8.1106L10.0002 5.29331L7.94891 8.1106C7.73836 8.40005 7.46593 8.58887 7.13162 8.67706C6.79718 8.76512 6.46808 8.74081 6.14433 8.60415L4.76933 8.04311L5.51141 12.1394C5.52211 12.1981 5.55148 12.2462 5.59954 12.2837C5.64759 12.3211 5.701 12.3398 5.75975 12.3398Z" fill="#FF8D28"/>
</g>
</svg>
