<svg width="16" height="16" viewBox="0 0 16 16" fill="none" xmlns="http://www.w3.org/2000/svg">
<mask id="mask0_221_20649" style="mask-type:alpha" maskUnits="userSpaceOnUse" x="0" y="0" width="16" height="16">
<rect width="16" height="16" fill="#D9D9D9"/>
</mask>
<g mask="url(#mask0_221_20649)">
<path d="M1.66675 8.00006C1.66675 7.06073 1.8503 6.19256 2.21741 5.39556C2.58453 4.59856 3.08519 3.90945 3.71942 3.32823C4.35353 2.74712 5.08553 2.30889 5.91542 2.01356C6.74542 1.71823 7.62792 1.61245 8.56292 1.69623C8.7048 1.71423 8.81636 1.7745 8.89758 1.87706C8.97869 1.97962 9.00686 2.10134 8.98208 2.24223C8.95719 2.38312 8.88875 2.49573 8.77675 2.58006C8.66486 2.66428 8.53847 2.70084 8.39758 2.68973C7.62236 2.63084 6.89114 2.72423 6.20392 2.96989C5.5168 3.21567 4.90914 3.583 4.38092 4.07189C3.85269 4.56078 3.43491 5.14112 3.12758 5.81289C2.82036 6.48467 2.66675 7.21373 2.66675 8.00006C2.66675 9.48895 3.18341 10.7501 4.21675 11.7834C5.25008 12.8167 6.51119 13.3334 8.00008 13.3334C8.77953 13.3334 9.50297 13.181 10.1704 12.8762C10.8377 12.5716 11.4181 12.1547 11.9116 11.6257C12.4227 11.0795 12.7984 10.459 13.0386 9.76423C13.2787 9.06934 13.3693 8.34878 13.3104 7.60256C13.2993 7.46167 13.3359 7.33528 13.4201 7.22339C13.5044 7.11139 13.617 7.04295 13.7579 7.01806C13.8988 6.99328 14.0205 7.02145 14.1231 7.10256C14.2256 7.18378 14.2859 7.29534 14.3039 7.43723C14.3834 8.36545 14.2776 9.24345 13.9866 10.0712C13.6956 10.899 13.2632 11.6306 12.6896 12.2659C12.084 12.9334 11.3775 13.4449 10.5701 13.8004C9.76275 14.1557 8.90608 14.3334 8.00008 14.3334C7.12397 14.3334 6.30064 14.1671 5.53008 13.8346C4.75953 13.5021 4.08925 13.0509 3.51925 12.4809C2.94925 11.9109 2.49803 11.2406 2.16558 10.4701C1.83303 9.6995 1.66675 8.87617 1.66675 8.00006ZM11.8726 5.96156C11.3636 5.96156 10.9306 5.78339 10.5737 5.42706C10.217 5.07073 10.0386 4.63806 10.0386 4.12906C10.0386 3.61995 10.2167 3.187 10.5731 2.83023C10.9294 2.47334 11.3621 2.29489 11.8711 2.29489C12.3802 2.29489 12.8131 2.47306 13.1699 2.82939C13.5268 3.18573 13.7052 3.61845 13.7052 4.12756C13.7052 4.63656 13.5271 5.06951 13.1707 5.42639C12.8144 5.78317 12.3817 5.96156 11.8726 5.96156Z" fill="white"/>
</g>
</svg>
