<svg width="20" height="20" viewBox="0 0 20 20" fill="none" xmlns="http://www.w3.org/2000/svg">
<mask id="mask0_971_604" style="mask-type:alpha" maskUnits="userSpaceOnUse" x="0" y="0" width="20" height="20">
<rect width="20" height="20" fill="#D9D9D9"/>
</mask>
<g mask="url(#mask0_971_604)">
<path d="M10.0002 14.8719C10.8847 14.8719 11.6401 14.5588 12.2662 13.9327C12.8923 13.3066 13.2054 12.5512 13.2054 11.6666V10.8814C13.2054 10.668 13.1331 10.4891 12.9887 10.3448C12.8444 10.2003 12.6655 10.1281 12.452 10.1281H7.54829C7.33482 10.1281 7.15593 10.2003 7.01162 10.3448C6.86718 10.4891 6.79495 10.668 6.79495 10.8814V11.6666C6.79495 12.5512 7.10801 13.3066 7.73412 13.9327C8.36023 14.5588 9.11558 14.8719 10.0002 14.8719ZM10.0002 13.8781C9.38475 13.8781 8.86232 13.6634 8.43287 13.2339C8.00343 12.8045 7.7887 12.2821 7.7887 11.6666V11.1219H12.2116V11.6666C12.2116 12.2821 11.9969 12.8045 11.5675 13.2339C11.138 13.6634 10.6156 13.8781 10.0002 13.8781ZM7.08266 5.96144C6.63766 5.96144 6.2453 6.10491 5.90558 6.39185C5.56586 6.67866 5.30676 7.02824 5.12829 7.44061C5.07495 7.56144 5.08273 7.67658 5.15162 7.78602C5.22051 7.89547 5.32016 7.96838 5.45058 8.00477C5.57016 8.04116 5.69301 8.02783 5.81912 7.96477C5.94509 7.90172 6.03482 7.80984 6.08829 7.68915C6.1962 7.4872 6.33377 7.31567 6.501 7.17456C6.66822 7.03359 6.86238 6.96047 7.0835 6.95519C7.30461 6.96047 7.49877 7.03574 7.666 7.18102C7.83322 7.3263 7.97079 7.49991 8.0787 7.70185C8.13426 7.82394 8.22322 7.91269 8.34558 7.9681C8.4678 8.02352 8.5887 8.0331 8.70829 7.99685C8.8387 7.96047 8.93975 7.88887 9.01141 7.78206C9.08294 7.67526 9.09204 7.56144 9.0387 7.44061C8.86023 7.02824 8.60086 6.67866 8.26058 6.39185C7.9203 6.10491 7.52766 5.96144 7.08266 5.96144ZM12.916 5.96144C12.471 5.96144 12.0786 6.10491 11.7389 6.39185C11.3992 6.67866 11.1401 7.02824 10.9616 7.44061C10.9083 7.56144 10.9161 7.67658 10.985 7.78602C11.0538 7.89547 11.1535 7.96838 11.2839 8.00477C11.4035 8.04116 11.5263 8.02783 11.6525 7.96477C11.7784 7.90172 11.8681 7.80984 11.9216 7.68915C12.0241 7.4872 12.1604 7.31435 12.3304 7.1706C12.5002 7.02699 12.6957 6.95519 12.9168 6.95519C13.1379 6.95519 13.3334 7.02915 13.5033 7.17706C13.6733 7.32498 13.8095 7.49991 13.912 7.70185C13.9676 7.82394 14.0566 7.91269 14.1789 7.9681C14.3011 8.02352 14.422 8.0331 14.5416 7.99685C14.672 7.96047 14.7731 7.88887 14.8447 7.78206C14.9163 7.67526 14.9254 7.56144 14.872 7.44061C14.6936 7.02824 14.4342 6.67866 14.0939 6.39185C13.7536 6.10491 13.361 5.96144 12.916 5.96144ZM10.0016 17.9166C8.90662 17.9166 7.87738 17.7089 6.91391 17.2933C5.95044 16.8778 5.11238 16.3138 4.39975 15.6014C3.68711 14.8891 3.12287 14.0514 2.70704 13.0883C2.29134 12.1253 2.0835 11.0963 2.0835 10.0014C2.0835 8.90644 2.29127 7.8772 2.70683 6.91373C3.12238 5.95026 3.68634 5.1122 4.3987 4.39956C5.11107 3.68692 5.94877 3.12269 6.91183 2.70685C7.87489 2.29116 8.90384 2.08331 9.9987 2.08331C11.0937 2.08331 12.1229 2.29109 13.0864 2.70665C14.0499 3.1222 14.8879 3.68616 15.6006 4.39852C16.3132 5.11088 16.8775 5.94859 17.2933 6.91165C17.709 7.8747 17.9168 8.90366 17.9168 9.99852C17.9168 11.0935 17.7091 12.1228 17.2935 13.0862C16.8779 14.0497 16.314 14.8878 15.6016 15.6004C14.8893 16.313 14.0516 16.8773 13.0885 17.2931C12.1254 17.7088 11.0965 17.9166 10.0016 17.9166ZM10.0002 16.6666C11.8613 16.6666 13.4377 16.0208 14.7293 14.7291C16.021 13.4375 16.6668 11.8611 16.6668 9.99998C16.6668 8.13887 16.021 6.56248 14.7293 5.27081C13.4377 3.97915 11.8613 3.33331 10.0002 3.33331C8.13905 3.33331 6.56266 3.97915 5.271 5.27081C3.97933 6.56248 3.3335 8.13887 3.3335 9.99998C3.3335 11.8611 3.97933 13.4375 5.271 14.7291C6.56266 16.0208 8.13905 16.6666 10.0002 16.6666Z" fill="#00C0E8"/>
</g>
</svg>
