<svg width="16" height="16" viewBox="0 0 16 16" fill="none" xmlns="http://www.w3.org/2000/svg">
<mask id="mask0_221_20634" style="mask-type:alpha" maskUnits="userSpaceOnUse" x="0" y="0" width="16" height="16">
<rect width="16" height="16" fill="#D9D9D9"/>
</mask>
<g mask="url(#mask0_221_20634)">
<path d="M12.4615 8.50002H11.0513C10.9097 8.50002 10.7909 8.45208 10.695 8.35619C10.5992 8.2603 10.5513 8.14152 10.5513 7.99986C10.5513 7.85808 10.5992 7.73936 10.695 7.64369C10.7909 7.54791 10.9097 7.50002 11.0513 7.50002H12.4615C12.6032 7.50002 12.7219 7.54797 12.8178 7.64386C12.9136 7.73975 12.9615 7.85852 12.9615 8.00019C12.9615 8.14197 12.9136 8.26069 12.8178 8.35636C12.7219 8.45213 12.6032 8.50002 12.4615 8.50002ZM9.68849 11.1424C9.77394 11.0252 9.8831 10.9577 10.016 10.9397C10.1489 10.9218 10.2739 10.9556 10.391 11.041L11.5153 11.8859C11.6324 11.9714 11.7 12.0806 11.718 12.2135C11.7359 12.3464 11.7021 12.4714 11.6167 12.5885C11.5312 12.7055 11.422 12.773 11.2892 12.791C11.1562 12.809 11.0312 12.7752 10.9142 12.6897L9.78966 11.8449C9.67266 11.7594 9.60516 11.6502 9.58716 11.5174C9.56927 11.3845 9.60305 11.2595 9.68849 11.1424ZM11.4897 4.08852L10.3653 4.93336C10.2482 5.0188 10.1232 5.05258 9.99033 5.03469C9.85744 5.01669 9.74827 4.94913 9.66283 4.83202C9.57738 4.71502 9.5436 4.59002 9.56149 4.45702C9.57949 4.32413 9.64705 4.21497 9.76416 4.12952L10.8885 3.28469C11.0056 3.19925 11.1306 3.16547 11.2635 3.18336C11.3964 3.20136 11.5055 3.26886 11.591 3.38586C11.6764 3.50297 11.7102 3.62797 11.6923 3.76086C11.6743 3.89386 11.6068 4.00308 11.4897 4.08852ZM4.84616 9.66669H2.97433C2.80366 9.66669 2.66055 9.60891 2.54499 9.49336C2.42955 9.37791 2.37183 9.2348 2.37183 9.06402V6.93602C2.37183 6.76524 2.42955 6.62213 2.54499 6.50669C2.66055 6.39113 2.80366 6.33336 2.97433 6.33336H4.84616L6.84099 4.33852C7.00088 4.17875 7.18488 4.14269 7.39299 4.23036C7.6011 4.31802 7.70516 4.47458 7.70516 4.70002V11.3C7.70516 11.5255 7.6011 11.682 7.39299 11.7697C7.18488 11.8574 7.00088 11.8213 6.84099 11.6615L4.84616 9.66669ZM6.70516 5.90002L5.27183 7.33336H3.37183V8.66669H5.27183L6.70516 10.1V5.90002Z" fill="white"/>
</g>
</svg>
