<svg width="24" height="24" viewBox="0 0 24 24" fill="none" xmlns="http://www.w3.org/2000/svg">
<mask id="mask0_108_546" style="mask-type:alpha" maskUnits="userSpaceOnUse" x="0" y="0" width="24" height="24">
<rect width="24" height="24" fill="#D9D9D9"/>
</mask>
<g mask="url(#mask0_108_546)">
<path d="M15.8077 20.5C15.3987 20.5 15.0465 20.3523 14.751 20.0568C14.4555 19.7613 14.3077 19.409 14.3077 19V14.8077C14.3077 14.3987 14.4555 14.0465 14.751 13.751C15.0465 13.4555 15.3987 13.3077 15.8077 13.3077H20C20.409 13.3077 20.7613 13.4555 21.0568 13.751C21.3523 14.0465 21.5 14.3987 21.5 14.8077V19C21.5 19.409 21.3523 19.7613 21.0568 20.0568C20.7613 20.3523 20.409 20.5 20 20.5H15.8077ZM15.8077 19H20V14.8077H15.8077V19ZM3.25 17.6538C3.0375 17.6538 2.85942 17.5818 2.71575 17.438C2.57192 17.2943 2.5 17.1162 2.5 16.9035C2.5 16.6908 2.57192 16.5128 2.71575 16.3693C2.85942 16.2256 3.0375 16.1538 3.25 16.1538H10.3655C10.578 16.1538 10.7561 16.2257 10.8997 16.3695C11.0436 16.5133 11.1155 16.6916 11.1155 16.9043C11.1155 17.1168 11.0436 17.2948 10.8997 17.4385C10.7561 17.582 10.578 17.6538 10.3655 17.6538H3.25ZM15.8077 10.6923C15.3987 10.6923 15.0465 10.5445 14.751 10.249C14.4555 9.9535 14.3077 9.60125 14.3077 9.19225V5C14.3077 4.591 14.4555 4.23875 14.751 3.94325C15.0465 3.64775 15.3987 3.5 15.8077 3.5H20C20.409 3.5 20.7613 3.64775 21.0568 3.94325C21.3523 4.23875 21.5 4.591 21.5 5V9.19225C21.5 9.60125 21.3523 9.9535 21.0568 10.249C20.7613 10.5445 20.409 10.6923 20 10.6923H15.8077ZM15.8077 9.19225H20V5H15.8077V9.19225ZM3.25 7.84625C3.0375 7.84625 2.85942 7.77433 2.71575 7.6305C2.57192 7.48667 2.5 7.30842 2.5 7.09575C2.5 6.88325 2.57192 6.70517 2.71575 6.5615C2.85942 6.418 3.0375 6.34625 3.25 6.34625H10.3655C10.578 6.34625 10.7561 6.41817 10.8997 6.562C11.0436 6.70567 11.1155 6.88383 11.1155 7.0965C11.1155 7.30917 11.0436 7.48725 10.8997 7.63075C10.7561 7.77442 10.578 7.84625 10.3655 7.84625H3.25Z" fill="#00AC47"/>
</g>
</svg>
