<svg width="329" height="320" viewBox="0 0 329 320" fill="none" xmlns="http://www.w3.org/2000/svg">
<mask id="path-1-inside-1_108_471" fill="white">
<path d="M353.183 213.188C355.027 213.187 356.841 213.666 358.445 214.576C360.048 215.487 361.388 216.798 362.333 218.382C363.279 219.968 363.797 221.773 363.837 223.619C363.877 225.465 363.438 227.29 362.563 228.916L316.511 314.191C315.597 315.882 314.242 317.293 312.591 318.277C310.94 319.261 309.054 319.781 307.132 319.781H88.0579L149.654 213.188H353.183ZM169.337 135.546L65.9456 314.45C65.0092 316.07 63.6637 317.416 62.0432 318.352C60.4227 319.287 58.5842 319.78 56.7131 319.78H56.5559C54.6603 319.754 52.8061 319.222 51.1848 318.239C49.5634 317.257 48.2338 315.859 47.3333 314.19L1.28149 228.915C0.414815 227.312 -0.0261508 225.513 0.0012207 223.69C0.0285973 221.868 0.523241 220.083 1.43774 218.506L109.46 31.9404L169.337 135.546ZM229.747 0C231.616 0.00110938 233.451 0.493332 235.07 1.42676C236.688 2.36024 238.032 3.70269 238.969 5.31934L346.983 191.868H227.082L125.433 15.9893C123.528 12.6892 123.529 8.63016 125.433 5.33008C127.337 2.02994 130.857 0 134.666 0H229.747Z"/>
</mask>
<path d="M353.183 213.188C355.027 213.187 356.841 213.666 358.445 214.576C360.048 215.487 361.388 216.798 362.333 218.382C363.279 219.968 363.797 221.773 363.837 223.619C363.877 225.465 363.438 227.29 362.563 228.916L316.511 314.191C315.597 315.882 314.242 317.293 312.591 318.277C310.94 319.261 309.054 319.781 307.132 319.781H88.0579L149.654 213.188H353.183ZM169.337 135.546L65.9456 314.45C65.0092 316.07 63.6637 317.416 62.0432 318.352C60.4227 319.287 58.5842 319.78 56.7131 319.78H56.5559C54.6603 319.754 52.8061 319.222 51.1848 318.239C49.5634 317.257 48.2338 315.859 47.3333 314.19L1.28149 228.915C0.414815 227.312 -0.0261508 225.513 0.0012207 223.69C0.0285973 221.868 0.523241 220.083 1.43774 218.506L109.46 31.9404L169.337 135.546ZM229.747 0C231.616 0.00110938 233.451 0.493332 235.07 1.42676C236.688 2.36024 238.032 3.70269 238.969 5.31934L346.983 191.868H227.082L125.433 15.9893C123.528 12.6892 123.529 8.63016 125.433 5.33008C127.337 2.02994 130.857 0 134.666 0H229.747Z" fill="#00AC47" fill-opacity="0.05"/>
<path d="M353.183 213.188V214.188H353.183L353.183 213.188ZM358.445 214.576L358.938 213.707L358.938 213.707L358.445 214.576ZM362.333 218.382L363.192 217.87L363.192 217.87L362.333 218.382ZM363.837 223.619L364.837 223.597V223.597L363.837 223.619ZM362.563 228.916L363.443 229.391L363.443 229.39L362.563 228.916ZM316.511 314.191L317.391 314.667L317.391 314.667L316.511 314.191ZM312.591 318.277L313.103 319.136H313.103L312.591 318.277ZM307.132 319.781V320.781H307.132L307.132 319.781ZM88.0579 319.781L87.192 319.281L86.3251 320.781H88.0579V319.781ZM149.654 213.188V212.188H149.076L148.788 212.687L149.654 213.188ZM169.337 135.546L170.203 136.046L170.492 135.546L170.203 135.046L169.337 135.546ZM65.9456 314.45L66.8113 314.951L66.8114 314.951L65.9456 314.45ZM62.0432 318.352L62.5431 319.218H62.5432L62.0432 318.352ZM56.7131 319.78V320.78H56.7135L56.7131 319.78ZM56.5559 319.78L56.542 320.78H56.5559V319.78ZM51.1848 318.239L50.6665 319.094H50.6665L51.1848 318.239ZM47.3333 314.19L48.2132 313.715L48.2131 313.715L47.3333 314.19ZM1.28149 228.915L2.16139 228.44L2.16121 228.44L1.28149 228.915ZM0.0012207 223.69L-0.998666 223.675H-0.998667L0.0012207 223.69ZM1.43774 218.506L2.30277 219.008L2.30315 219.007L1.43774 218.506ZM109.46 31.9404L110.326 31.4401L109.461 29.9433L108.595 31.4394L109.46 31.9404ZM229.747 0L229.748 -1H229.747V0ZM235.07 1.42676L235.569 0.560524L235.569 0.560505L235.07 1.42676ZM238.969 5.31934L239.834 4.81826L239.834 4.81807L238.969 5.31934ZM346.983 191.868V192.868H348.717L347.848 191.367L346.983 191.868ZM227.082 191.868L226.216 192.369L226.505 192.868H227.082V191.868ZM125.433 15.9893L124.567 16.4892L124.567 16.4896L125.433 15.9893ZM125.433 5.33008L124.567 4.83025L124.567 4.83028L125.433 5.33008ZM353.183 213.188L353.183 214.188C354.854 214.187 356.498 214.621 357.951 215.446L358.445 214.576L358.938 213.707C357.184 212.71 355.2 212.187 353.183 212.188L353.183 213.188ZM358.445 214.576L357.951 215.446C359.404 216.271 360.618 217.459 361.474 218.894L362.333 218.382L363.192 217.87C362.159 216.137 360.693 214.703 358.938 213.707L358.445 214.576ZM362.333 218.382L361.474 218.894C362.331 220.331 362.801 221.967 362.837 223.641L363.837 223.619L364.837 223.597C364.793 221.578 364.227 219.605 363.192 217.87L362.333 218.382ZM363.837 223.619L362.837 223.641C362.874 225.314 362.476 226.968 361.682 228.442L362.563 228.916L363.443 229.39C364.401 227.612 364.881 225.616 364.837 223.597L363.837 223.619ZM362.563 228.916L361.683 228.441L315.631 313.716L316.511 314.191L317.391 314.667L363.443 229.391L362.563 228.916ZM316.511 314.191L315.631 313.716C314.803 315.247 313.575 316.527 312.079 317.418L312.591 318.277L313.103 319.136C314.909 318.06 316.39 316.516 317.391 314.667L316.511 314.191ZM312.591 318.277L312.079 317.418C310.583 318.31 308.874 318.781 307.132 318.781L307.132 319.781L307.132 320.781C309.234 320.781 311.297 320.212 313.103 319.136L312.591 318.277ZM307.132 319.781V318.781H88.0579V319.781V320.781H307.132V319.781ZM88.0579 319.781L88.9237 320.282L150.519 213.688L149.654 213.188L148.788 212.687L87.192 319.281L88.0579 319.781ZM149.654 213.188V214.188H353.183V213.188V212.188H149.654V213.188ZM169.337 135.546L168.471 135.046L65.0797 313.95L65.9456 314.45L66.8114 314.951L170.203 136.046L169.337 135.546ZM65.9456 314.45L65.0798 313.95C64.231 315.418 63.0116 316.638 61.5433 317.486L62.0432 318.352L62.5432 319.218C64.3159 318.194 65.7873 316.722 66.8113 314.951L65.9456 314.45ZM62.0432 318.352L61.5433 317.486C60.0748 318.333 58.4086 318.78 56.7128 318.78L56.7131 319.78L56.7135 320.78C58.7599 320.78 60.7707 320.241 62.5431 319.218L62.0432 318.352ZM56.7131 319.78V318.78H56.5559V319.78V320.78H56.7131V319.78ZM56.5559 319.78L56.5699 318.78C54.8523 318.756 53.1721 318.274 51.7031 317.384L51.1848 318.239L50.6665 319.094C52.44 320.169 54.4684 320.751 56.542 320.78L56.5559 319.78ZM51.1848 318.239L51.7031 317.384C50.234 316.494 49.0293 315.227 48.2132 313.715L47.3333 314.19L46.4533 314.665C47.4384 316.49 48.8928 318.02 50.6665 319.094L51.1848 318.239ZM47.3333 314.19L48.2131 313.715L2.16139 228.44L1.28149 228.915L0.401602 229.39L46.4534 314.666L47.3333 314.19ZM1.28149 228.915L2.16121 228.44C1.37584 226.987 0.976308 225.357 1.00111 223.705L0.0012207 223.69L-0.998667 223.675C-1.02861 225.669 -0.546215 227.637 0.401782 229.391L1.28149 228.915ZM0.0012207 223.69L1.00111 223.705C1.02591 222.054 1.47413 220.436 2.30277 219.008L1.43774 218.506L0.572718 218.004C-0.427654 219.729 -0.96872 221.682 -0.998666 223.675L0.0012207 223.69ZM1.43774 218.506L2.30315 219.007L110.326 32.4415L109.46 31.9404L108.595 31.4394L0.57234 218.005L1.43774 218.506ZM109.46 31.9404L108.594 32.4408L168.471 136.046L169.337 135.546L170.203 135.046L110.326 31.4401L109.46 31.9404ZM229.747 0L229.747 1C231.44 1.00101 233.103 1.44706 234.57 2.29301L235.07 1.42676L235.569 0.560505C233.799 -0.460395 231.792 -0.998786 229.748 -1L229.747 0ZM235.07 1.42676L234.57 2.29299C236.036 3.13889 237.255 4.35542 238.104 5.8206L238.969 5.31934L239.834 4.81807C238.81 3.04995 237.339 1.5816 235.569 0.560524L235.07 1.42676ZM238.969 5.31934L238.104 5.82041L346.117 192.369L346.983 191.868L347.848 191.367L239.834 4.81826L238.969 5.31934ZM346.983 191.868V190.868H227.082V191.868V192.868H346.983V191.868ZM227.082 191.868L227.948 191.368L126.299 15.4889L125.433 15.9893L124.567 16.4896L226.216 192.369L227.082 191.868ZM125.433 15.9893L126.299 15.4893C124.572 12.4988 124.573 8.8208 126.299 5.82988L125.433 5.33008L124.567 4.83028C122.484 8.43951 122.483 12.8797 124.567 16.4892L125.433 15.9893ZM125.433 5.33008L126.299 5.82991C128.025 2.83961 131.214 1 134.666 1V0V-1C130.5 -1 126.65 1.22027 124.567 4.83025L125.433 5.33008ZM134.666 0V1H229.747V0V-1H134.666V0Z" fill="url(#paint0_linear_108_471)" mask="url(#path-1-inside-1_108_471)"/>
<defs>
<linearGradient id="paint0_linear_108_471" x1="181.92" y1="0" x2="181.92" y2="319.781" gradientUnits="userSpaceOnUse">
<stop stop-color="#00AC47" stop-opacity="0.2"/>
<stop offset="1" stop-color="#00AC47" stop-opacity="0.05"/>
</linearGradient>
</defs>
</svg>
