<svg width="69" height="60" viewBox="0 0 69 60" fill="none" xmlns="http://www.w3.org/2000/svg">
<mask id="path-1-inside-1_108_1127" fill="white">
<path d="M31.7727 25.4326L12.3733 59C12.1976 59.3039 11.9449 59.556 11.6409 59.7314C11.3368 59.9069 10.9919 59.9999 10.6409 60H10.6116C10.2559 59.995 9.90793 59.8953 9.60376 59.7109C9.29957 59.5266 9.05008 59.2642 8.8811 58.9512L0.240479 42.9512C0.0778624 42.6503 -0.00488167 42.3126 0.000244141 41.9707C0.00537917 41.6288 0.0982408 41.2938 0.269775 40.998L20.5383 5.99316L31.7727 25.4326ZM66.2668 40C66.6129 39.9999 66.9532 40.0899 67.2542 40.2607C67.555 40.4316 67.8064 40.6775 67.9836 40.9746C68.1611 41.2722 68.2583 41.6107 68.2659 41.957C68.2734 42.3035 68.1909 42.6461 68.0266 42.9512L59.386 58.9512C59.2144 59.2683 58.9603 59.5332 58.6506 59.7178C58.3409 59.9023 57.9868 60 57.6262 60H16.5227L28.0793 40H66.2668ZM43.1067 0C43.4573 0.000194404 43.802 0.0924295 44.1057 0.267578C44.4094 0.442711 44.6614 0.694735 44.8372 0.998047L65.1038 36H42.6067L23.5344 3C23.1771 2.3809 23.1772 1.6191 23.5344 1C23.8917 0.380922 24.5522 0.000149415 25.2668 0H43.1067Z"/>
</mask>
<path d="M31.7727 25.4326L12.3733 59C12.1976 59.3039 11.9449 59.556 11.6409 59.7314C11.3368 59.9069 10.9919 59.9999 10.6409 60H10.6116C10.2559 59.995 9.90793 59.8953 9.60376 59.7109C9.29957 59.5266 9.05008 59.2642 8.8811 58.9512L0.240479 42.9512C0.0778624 42.6503 -0.00488167 42.3126 0.000244141 41.9707C0.00537917 41.6288 0.0982408 41.2938 0.269775 40.998L20.5383 5.99316L31.7727 25.4326ZM66.2668 40C66.6129 39.9999 66.9532 40.0899 67.2542 40.2607C67.555 40.4316 67.8064 40.6775 67.9836 40.9746C68.1611 41.2722 68.2583 41.6107 68.2659 41.957C68.2734 42.3035 68.1909 42.6461 68.0266 42.9512L59.386 58.9512C59.2144 59.2683 58.9603 59.5332 58.6506 59.7178C58.3409 59.9023 57.9868 60 57.6262 60H16.5227L28.0793 40H66.2668ZM43.1067 0C43.4573 0.000194404 43.802 0.0924295 44.1057 0.267578C44.4094 0.442711 44.6614 0.694735 44.8372 0.998047L65.1038 36H42.6067L23.5344 3C23.1771 2.3809 23.1772 1.6191 23.5344 1C23.8917 0.380922 24.5522 0.000149415 25.2668 0H43.1067Z" fill="url(#paint0_linear_108_1127)"/>
<path d="M31.7727 25.4326L32.2056 25.6828L32.3502 25.4326L32.2056 25.1824L31.7727 25.4326ZM12.3733 59L12.8061 59.2503L12.8062 59.2502L12.3733 59ZM11.6409 59.7314L11.8908 60.1645L11.8908 60.1645L11.6409 59.7314ZM10.6409 60V60.5H10.641L10.6409 60ZM10.6116 60L10.6046 60.5H10.6116V60ZM9.60376 59.7109L9.34461 60.1385L9.34462 60.1385L9.60376 59.7109ZM8.8811 58.9512L9.32108 58.7136L9.32105 58.7136L8.8811 58.9512ZM0.240479 42.9512L0.680424 42.7136L0.680331 42.7134L0.240479 42.9512ZM0.000244141 41.9707L-0.499699 41.9632L-0.4997 41.9632L0.000244141 41.9707ZM0.269775 40.998L0.702309 41.2489L0.702475 41.2486L0.269775 40.998ZM20.5383 5.99316L20.9712 5.74298L20.5387 4.99461L20.1056 5.74262L20.5383 5.99316ZM66.2668 40V40.5H66.267L66.2668 40ZM67.2542 40.2607L67.501 39.8259L67.501 39.8259L67.2542 40.2607ZM67.9836 40.9746L68.4131 40.7186L68.413 40.7184L67.9836 40.9746ZM68.2659 41.957L68.7657 41.9461V41.9461L68.2659 41.957ZM68.0266 42.9512L68.4666 43.1888L68.4668 43.1883L68.0266 42.9512ZM59.386 58.9512L59.8257 59.1891L59.8259 59.1888L59.386 58.9512ZM58.6506 59.7178L58.9066 60.1473L58.9066 60.1473L58.6506 59.7178ZM57.6262 60L57.6262 59.5H57.6262V60ZM16.5227 60L16.0898 59.7498L15.6563 60.5H16.5227V60ZM28.0793 40V39.5H27.7908L27.6464 39.7498L28.0793 40ZM43.1067 0L43.107 -0.5H43.1067V0ZM44.1057 0.267578L44.3555 -0.165548L44.3555 -0.165548L44.1057 0.267578ZM44.8372 0.998047L45.2699 0.747507L45.2698 0.747393L44.8372 0.998047ZM65.1038 36V36.5H65.971L65.5365 35.7495L65.1038 36ZM42.6067 36L42.1738 36.2502L42.3182 36.5H42.6067V36ZM23.5344 3L23.1014 3.24994L23.1015 3.25019L23.5344 3ZM23.5344 1L23.1014 0.750086L23.1013 0.750134L23.5344 1ZM25.2668 0V-0.5H25.2667L25.2668 0ZM31.7727 25.4326L31.3398 25.1824L11.9404 58.7498L12.3733 59L12.8062 59.2502L32.2056 25.6828L31.7727 25.4326ZM12.3733 59L11.9404 58.7497C11.8088 58.9774 11.6192 59.1666 11.3909 59.2984L11.6409 59.7314L11.8908 60.1645C12.2705 59.9453 12.5864 59.6303 12.8061 59.2503L12.3733 59ZM11.6409 59.7314L11.3909 59.2984C11.1624 59.4303 10.9036 59.4999 10.6407 59.5L10.6409 60L10.641 60.5C11.0803 60.4999 11.5112 60.3836 11.8908 60.1645L11.6409 59.7314ZM10.6409 60V59.5H10.6116V60V60.5H10.6409V60ZM10.6116 60L10.6186 59.5C10.3518 59.4963 10.0909 59.4215 9.8629 59.2833L9.60376 59.7109L9.34462 60.1385C9.72498 60.3691 10.1601 60.4937 10.6046 60.5L10.6116 60ZM9.60376 59.7109L9.86291 59.2833C9.63494 59.1452 9.44783 58.9484 9.32108 58.7136L8.8811 58.9512L8.44113 59.1887C8.65233 59.5799 8.9642 59.908 9.34461 60.1385L9.60376 59.7109ZM8.8811 58.9512L9.32105 58.7136L0.680424 42.7136L0.240479 42.9512L-0.199467 43.1888L8.44116 59.1888L8.8811 58.9512ZM0.240479 42.9512L0.680331 42.7134C0.558397 42.4878 0.496345 42.2346 0.500188 41.9782L0.000244141 41.9707L-0.4997 41.9632C-0.506108 42.3907 -0.402672 42.8128 -0.199373 43.1889L0.240479 42.9512ZM0.000244141 41.9707L0.500188 41.9782C0.504037 41.7219 0.573658 41.4707 0.702309 41.2489L0.269775 40.998L-0.162758 40.7472C-0.377177 41.117 -0.493279 41.5357 -0.499699 41.9632L0.000244141 41.9707ZM0.269775 40.998L0.702475 41.2486L20.971 6.24371L20.5383 5.99316L20.1056 5.74262L-0.162924 40.7475L0.269775 40.998ZM20.5383 5.99316L20.1054 6.24335L31.3398 25.6828L31.7727 25.4326L32.2056 25.1824L20.9712 5.74298L20.5383 5.99316ZM66.2668 40L66.267 40.5C66.5263 40.4999 66.7815 40.5674 67.0073 40.6956L67.2542 40.2607L67.501 39.8259C67.1249 39.6124 66.6995 39.4999 66.2667 39.5L66.2668 40ZM67.2542 40.2607L67.0073 40.6955C67.2329 40.8237 67.4214 41.008 67.5542 41.2308L67.9836 40.9746L68.413 40.7184C68.1914 40.3469 67.8771 40.0395 67.501 39.8259L67.2542 40.2607ZM67.9836 40.9746L67.5542 41.2307C67.6873 41.454 67.7603 41.708 67.766 41.968L68.2659 41.957L68.7657 41.9461C68.7563 41.5133 68.6348 41.0904 68.4131 40.7186L67.9836 40.9746ZM68.2659 41.957L67.766 41.9679C67.7717 42.2279 67.7097 42.4851 67.5864 42.7141L68.0266 42.9512L68.4668 43.1883C68.6721 42.8071 68.7752 42.379 68.7657 41.9461L68.2659 41.957ZM68.0266 42.9512L67.5867 42.7136L58.946 58.7136L59.386 58.9512L59.8259 59.1888L68.4666 43.1888L68.0266 42.9512ZM59.386 58.9512L58.9462 58.7132C58.8175 58.9511 58.6269 59.1498 58.3946 59.2883L58.6506 59.7178L58.9066 60.1473C59.2938 59.9165 59.6113 59.5854 59.8257 59.1891L59.386 58.9512ZM58.6506 59.7178L58.3947 59.2882C58.1622 59.4268 57.8965 59.5 57.6262 59.5L57.6262 60L57.6262 60.5C58.077 60.5 58.5196 60.3779 58.9066 60.1473L58.6506 59.7178ZM57.6262 60V59.5H16.5227V60V60.5H57.6262V60ZM16.5227 60L16.9556 60.2502L28.5123 40.2502L28.0793 40L27.6464 39.7498L16.0898 59.7498L16.5227 60ZM28.0793 40V40.5H66.2668V40V39.5H28.0793V40ZM43.1067 0L43.1064 0.5C43.3695 0.500146 43.6282 0.569398 43.8559 0.700704L44.1057 0.267578L44.3555 -0.165548C43.9758 -0.384539 43.545 -0.499757 43.107 -0.5L43.1067 0ZM44.1057 0.267578L43.8559 0.700704C44.0834 0.831916 44.2725 1.0209 44.4045 1.2487L44.8372 0.998047L45.2698 0.747393C45.0503 0.368572 44.7353 0.0535065 44.3555 -0.165548L44.1057 0.267578ZM44.8372 0.998047L44.4045 1.24859L64.6711 36.2505L65.1038 36L65.5365 35.7495L45.2699 0.747507L44.8372 0.998047ZM65.1038 36V35.5H42.6067V36V36.5H65.1038V36ZM42.6067 36L43.0396 35.7498L23.9673 2.74981L23.5344 3L23.1015 3.25019L42.1738 36.2502L42.6067 36ZM23.5344 3L23.9675 2.75006C23.6995 2.28569 23.6995 1.71439 23.9675 1.24987L23.5344 1L23.1013 0.750134C22.655 1.5238 22.6548 2.47611 23.1014 3.24994L23.5344 3ZM23.5344 1L23.9675 1.24991C24.2353 0.785855 24.7306 0.500112 25.267 0.5L25.2668 0L25.2667 -0.5C24.3738 -0.499813 23.5481 -0.0240102 23.1014 0.750086L23.5344 1ZM25.2668 0V0.5H43.1067V0V-0.5H25.2668V0Z" fill="url(#paint1_linear_108_1127)" mask="url(#path-1-inside-1_108_1127)"/>
<defs>
<linearGradient id="paint0_linear_108_1127" x1="34.1334" y1="0" x2="34.1334" y2="60" gradientUnits="userSpaceOnUse">
<stop stop-color="#00AC47" stop-opacity="0.05"/>
<stop offset="1" stop-color="#00AC47" stop-opacity="0"/>
</linearGradient>
<linearGradient id="paint1_linear_108_1127" x1="34.1334" y1="0" x2="34.1334" y2="60" gradientUnits="userSpaceOnUse">
<stop stop-color="#00AC47" stop-opacity="0.2"/>
<stop offset="1" stop-color="#00AC47" stop-opacity="0.05"/>
</linearGradient>
</defs>
</svg>
