<svg width="1318" height="439" viewBox="0 0 1318 439" fill="none" xmlns="http://www.w3.org/2000/svg">
<path d="M1321.33 418.121H-3.05859V419.291H1321.33V418.121Z" fill="#043723"/>
<path d="M1321.33 379.837H-3.05859V381.007H1321.33V379.837Z" fill="#043723"/>
<path d="M1321.33 341.554H-3.05859V342.724H1321.33V341.554Z" fill="#043723"/>
<path d="M1321.33 303.271H-3.05859V304.441H1321.33V303.271Z" fill="#043723"/>
<path d="M1321.33 264.985H-3.05859V266.156H1321.33V264.985Z" fill="#043723"/>
<path d="M1321.33 226.702H-3.05859V227.872H1321.33V226.702Z" fill="#043723"/>
<path d="M1321.33 188.419H-3.05859V189.589H1321.33V188.419Z" fill="#043723"/>
<path d="M1321.33 150.136H-3.05859V151.306H1321.33V150.136Z" fill="#043723"/>
<path d="M1321.33 111.852H-3.05859V113.022H1321.33V111.852Z" fill="#043723"/>
<path d="M1321.33 73.5674H-3.05859V74.7375H1321.33V73.5674Z" fill="#043723"/>
<path d="M1321.33 35.2832H-3.05859V36.4534H1321.33V35.2832Z" fill="#043723"/>
<path d="M1321.33 52.0944C1306.62 35.4806 1301.07 21.6002 1299.03 14.1993C1296.15 3.73329 1296.73 -2.2922 1296.74 -2.35333L1295.57 -2.47559C1295.55 -2.22234 1294.95 3.80315 1297.9 14.5093C1300.01 22.1634 1305.8 36.629 1321.33 53.8628V52.0944Z" fill="#043723"/>
<path d="M1321.33 84.326C1311.06 76.6063 1302.08 68.9086 1294.58 61.3287C1274.16 40.6892 1267.27 22.9445 1264.98 14.2076C1262.24 3.71536 1262.8 -2.29703 1262.81 -2.35379L1261.64 -2.47168C1261.61 -2.2228 1261.05 3.78086 1263.85 14.5045C1266.17 23.355 1273.13 41.3179 1293.75 62.1539C1301.46 69.9477 1310.72 77.8638 1321.33 85.793V84.3303V84.326Z" fill="#043723"/>
<path d="M1321.33 110.105C1313.19 105.053 1305.61 100.032 1298.61 95.0714C1282.71 83.7758 1269.37 72.4278 1258.98 61.3374C1239.63 40.6979 1233.11 22.9489 1230.94 14.2119C1228.33 3.69353 1228.87 -2.30139 1228.87 -2.35816L1227.71 -2.47168C1227.68 -2.2228 1227.14 3.75903 1229.8 14.4958C1232 23.3462 1238.6 41.3092 1258.13 62.1408C1268.58 73.288 1281.97 84.6884 1297.94 96.0276C1305.12 101.127 1312.95 106.284 1321.34 111.476V110.105H1321.33Z" fill="#043723"/>
<path d="M1321.33 133.595C1297.93 120.619 1277.56 107.673 1260.81 95.0802C1245.79 83.7933 1233.2 72.4409 1223.37 61.3505C1205.1 40.7066 1198.94 22.9576 1196.89 14.2163C1194.42 3.67607 1194.93 -2.30576 1194.94 -2.36252L1193.77 -2.47168C1193.75 -2.2228 1193.23 3.7372 1195.75 14.4827C1197.82 23.3288 1204.05 41.2874 1222.5 62.1233C1232.37 73.2749 1245.03 84.6753 1260.1 96.0145C1277.04 108.738 1297.64 121.828 1321.34 134.936V133.591L1321.33 133.595Z" fill="#043723"/>
<path d="M1321.33 156.318C1307.25 149.061 1294.12 141.896 1282.09 134.866C1259.16 121.47 1239.28 108.087 1223 95.0889C1208.87 83.7976 1197.02 72.4496 1187.77 61.3636C1170.57 40.7197 1164.77 22.9707 1162.85 14.225C1160.52 3.66297 1161 -2.30576 1161.01 -2.36689L1159.84 -2.47168C1159.82 -2.2228 1159.33 3.711 1161.7 14.4739C1163.65 23.32 1169.52 41.2743 1186.87 62.1102C1196.17 73.2618 1208.08 84.6622 1222.27 96.0014C1238.59 109.035 1258.52 122.448 1281.5 135.874C1293.7 143.005 1307.03 150.275 1321.33 157.636V156.318Z" fill="#043723"/>
<path d="M1321.33 179.145C1290.74 164.081 1263.57 149.192 1240.58 134.875C1219.08 121.474 1200.44 108.096 1185.19 95.102C1171.94 83.8152 1160.83 72.4672 1152.16 61.3768C1136.85 41.7677 1131 24.9138 1128.79 14.2338C1126.61 3.64993 1127.06 -2.3057 1127.07 -2.36683L1125.9 -2.46289C1125.88 -2.21401 1125.42 3.70232 1127.64 14.474C1129.88 25.2806 1135.79 42.3135 1151.24 62.1016C1159.95 73.2531 1171.12 84.6579 1184.43 95.9971C1199.72 109.026 1218.41 122.439 1239.96 135.87C1263.1 150.288 1290.48 165.286 1321.33 180.454V179.145H1321.33Z" fill="#043723"/>
<path d="M1321.33 202.696C1305.34 195.011 1290.27 187.475 1276.31 180.144C1246.99 164.744 1221 149.519 1199.08 134.883C1179.02 121.492 1161.62 108.109 1147.39 95.1147C1135.03 83.8278 1124.66 72.4842 1116.57 61.3938C1102.27 41.7803 1096.81 24.9264 1094.75 14.2421C1092.7 3.63637 1093.13 -2.31053 1093.14 -2.36729L1091.97 -2.45898C1091.95 -2.21447 1091.52 3.6844 1093.59 14.4648C1095.68 25.267 1101.19 42.2956 1115.61 62.0836C1123.75 73.2395 1134.17 84.6443 1146.59 95.9792C1160.88 109.013 1178.31 122.43 1198.43 135.857C1220.38 150.514 1246.41 165.761 1275.76 181.179C1289.88 188.593 1305.13 196.221 1321.33 203.993V202.692L1321.33 202.696Z" fill="#043723"/>
<path d="M1321.33 227.636C1286.98 211.232 1256.01 195.269 1229.28 180.153C1202.05 164.753 1177.93 149.527 1157.57 134.896C1138.95 121.505 1122.8 108.126 1109.58 95.1321C1098.09 83.8453 1088.46 72.4973 1080.96 61.4112C1067.68 41.7978 1062.61 24.9395 1060.7 14.2508C1058.8 3.62327 1059.2 -2.31053 1059.21 -2.37166L1058.04 -2.45898C1058.02 -2.21447 1057.62 3.66257 1059.55 14.4561C1061.49 25.2583 1066.6 42.2825 1079.99 62.0662C1087.54 73.2177 1097.22 84.6225 1108.76 95.9661C1122.02 109.004 1138.22 122.422 1156.89 135.848C1177.28 150.501 1201.45 165.753 1228.71 181.174C1255.59 196.374 1286.76 212.433 1321.34 228.933V227.636H1321.33Z" fill="#043723"/>
<path d="M1321.33 254.646C1304.05 246.302 1287.82 238.233 1272.46 230.356C1238.65 213.004 1208.3 196.115 1182.26 180.165C1157.14 164.774 1134.87 149.545 1116.08 134.913C1098.88 121.522 1083.98 108.143 1071.78 95.1536C1061.18 83.8667 1052.29 72.5231 1045.36 61.4327C1033.1 41.8149 1028.42 24.9522 1026.66 14.2635C1024.9 3.61413 1025.27 -2.31093 1025.28 -2.3677L1024.11 -2.44629C1024.09 -2.20178 1023.72 3.6578 1025.5 14.4557C1027.28 25.2535 1032.01 42.2733 1044.37 62.057C1051.34 73.2129 1060.28 84.6177 1070.92 95.957C1083.16 108.995 1098.11 122.412 1115.36 135.843C1134.18 150.505 1156.49 165.757 1181.66 181.17C1207.72 197.133 1238.09 214.035 1271.93 231.404C1287.44 239.364 1303.85 247.516 1321.33 255.951V254.65V254.646Z" fill="#043723"/>
<path d="M1321.33 284.607C1281.95 265.015 1248.11 247.266 1217.92 230.364C1186.92 213.008 1159.1 196.124 1135.24 180.174C1112.21 164.782 1091.8 149.557 1074.57 134.926C1058.82 121.534 1045.15 108.156 1033.97 95.1662C1024.26 83.8836 1016.11 72.5356 1009.76 61.4496C1000.86 45.9187 994.934 29.6018 992.606 14.2674C990.991 3.60052 991.336 -2.31582 991.34 -2.37694L990.17 -2.45117C990.152 -2.20666 989.812 3.63545 991.445 14.442C993.79 29.9206 999.771 46.3728 1008.74 62.0303C1015.13 73.1862 1023.32 84.591 1033.08 95.9303C1044.3 108.968 1058.01 122.39 1073.81 135.816C1091.07 150.478 1111.52 165.73 1134.59 181.147C1158.47 197.11 1186.32 214.012 1217.34 231.386C1247.69 248.371 1281.71 266.212 1321.33 285.917V284.607H1321.33Z" fill="#043723"/>
<path d="M1321.33 318.799C1297.53 306.32 1277.08 295.387 1257.99 284.947C1221.94 265.225 1190.99 247.375 1163.39 230.377C1135.21 213.026 1109.92 196.141 1088.23 180.191C1067.29 164.796 1048.74 149.57 1033.08 134.943C999.824 103.855 982.682 77.8276 974.155 61.4671C965.95 45.7091 960.706 29.8332 958.558 14.2718C957.091 3.58742 957.405 -2.32455 957.41 -2.38131L956.24 -2.45117C956.227 -2.20666 955.912 3.61798 957.397 14.4333C959.562 30.1258 964.85 46.137 973.115 62.0129C981.682 78.452 998.903 104.602 1032.28 135.803C1047.97 150.461 1066.55 165.717 1087.53 181.139C1109.26 197.106 1134.57 214.012 1162.77 231.377C1190.4 248.388 1221.36 266.246 1257.43 285.978C1276.67 296.501 1297.29 307.525 1321.33 320.127V318.804V318.799Z" fill="#043723"/>
<path d="M1321.33 359.216C1312.02 353.919 1302.74 348.632 1293.55 343.37C1252.31 319.757 1221.61 301.742 1194 284.967C1161.53 265.231 1133.67 247.382 1108.85 230.397C1083.49 213.041 1060.73 196.156 1041.21 180.215C1022.37 164.819 1005.67 149.598 991.585 134.971C961.654 103.883 946.228 77.8558 938.552 61.4953C931.169 45.7373 926.445 29.8527 924.51 14.2869C923.187 3.58506 923.471 -2.31817 923.475 -2.3793L922.305 -2.44043C922.305 -2.3793 922.008 3.61563 923.349 14.4309C925.296 30.1234 930.056 46.1259 937.491 61.993C945.202 78.4322 960.698 104.582 990.738 135.783C1004.86 150.446 1021.59 165.697 1040.47 181.123C1060.01 197.086 1082.8 213.988 1108.19 231.366C1133.03 248.36 1160.9 266.222 1193.39 285.971C1221 302.755 1251.72 320.775 1292.97 344.392C1302.35 349.767 1311.82 355.159 1321.34 360.569V359.22L1321.33 359.216Z" fill="#043723"/>
<path d="M1321.33 409.388C1300.98 396.184 1280.7 383.212 1260.7 370.427C1246.49 361.35 1232.4 352.342 1218.49 343.382C1165.74 309.399 1104.98 269.4 1054.32 230.409C1031.78 213.057 1011.55 196.173 994.197 180.227C977.452 164.836 962.611 149.615 950.084 134.988C923.48 103.9 909.765 77.872 902.945 61.5115C886.886 22.9309 889.51 -2.10548 889.536 -2.35L888.375 -2.48535C888.344 -2.23211 885.677 23.075 901.867 61.9612C911.695 85.5349 928.06 111.052 949.197 135.752C961.751 150.418 976.627 165.67 993.406 181.091C1010.78 197.059 1031.03 213.965 1053.6 231.339C1104.3 270.356 1165.08 310.369 1217.86 344.365C1231.77 353.329 1245.86 362.332 1260.07 371.414C1280.28 384.329 1300.78 397.437 1321.34 410.785V409.388H1321.33Z" fill="#043723"/>
<path d="M1321.33 477.158C1318.23 474.639 1315.11 472.111 1311.9 469.543C1268.46 434.796 1223.66 402.071 1180.33 370.424C1167.9 361.351 1155.59 352.352 1143.43 343.405C1097.27 309.418 1044.1 269.423 999.784 230.436C961.409 196.671 930.727 164.566 908.59 135.019C890.164 110.415 875.899 85.0032 867.337 61.5387C853.155 22.6044 855.574 -2.10882 855.6 -2.35333L854.434 -2.47559C854.408 -2.22671 851.95 22.7267 866.232 61.9404C874.834 85.5141 889.151 111.026 907.647 135.722C929.832 165.334 960.57 197.497 999.007 231.314C1043.36 270.326 1096.55 310.344 1142.73 344.344C1154.89 353.295 1167.21 362.289 1179.63 371.367C1222.95 403.005 1267.74 435.722 1311.16 470.456C1314.62 473.224 1318 475.953 1321.33 478.66V477.154L1321.33 477.158Z" fill="#043723"/>
<path d="M1321.33 588.826C1309.28 571.858 1295.27 554.515 1278.84 536.22C1260.21 515.472 1238.6 493.671 1212.78 469.569C1175.62 434.887 1137.15 402.101 1099.94 370.393C1089.31 361.333 1078.77 352.356 1068.38 343.431C1028.82 309.452 983.258 269.457 945.262 230.466C912.371 196.701 886.068 164.6 867.097 135.054C851.304 110.445 839.074 85.0333 831.734 61.5645C819.473 22.3027 821.648 -2.11801 821.67 -2.35816L820.504 -2.47168C820.478 -2.22717 818.277 22.4031 830.616 61.9138C837.986 85.483 850.26 110.995 866.11 135.687C885.125 165.299 911.476 197.461 944.424 231.282C982.45 270.304 1028.04 310.321 1067.62 344.317C1078.01 353.242 1088.55 362.223 1099.18 371.283C1136.38 402.983 1174.85 435.761 1211.99 470.425C1237.78 494.505 1259.36 516.284 1277.98 537.002C1294.81 555.755 1309.09 573.504 1321.34 590.869V588.821L1321.33 588.826Z" fill="#043723"/>
<path d="M824.569 135.647C840.415 165.255 862.368 197.417 889.828 231.243C915.03 262.274 945.73 296.083 992.493 344.282C1001.12 353.176 1009.88 362.132 1018.72 371.174C1049.79 402.948 1081.91 435.804 1112.79 470.39C1134.28 494.461 1152.27 516.24 1167.78 536.967C1185.68 560.89 1200.15 583.193 1212.01 605.151C1236.68 650.862 1249.97 697.747 1250.59 740.995H1251.76C1251.14 697.555 1237.8 650.478 1213.04 604.597C1201.15 582.59 1186.65 560.239 1168.72 536.268C1153.18 515.515 1135.17 493.714 1113.66 469.613C1082.77 435.005 1050.63 402.14 1019.55 370.358C1010.71 361.32 1001.95 352.364 993.327 343.47C946.59 295.297 915.904 261.515 890.728 230.51C863.316 196.741 841.401 164.64 825.591 135.102C812.239 110.14 802.323 85.4089 796.119 61.5951C785.827 22.0364 787.709 -2.12232 787.731 -2.36247L786.565 -2.46289C786.543 -2.22274 784.64 22.115 794.988 61.8876C801.214 85.7887 811.165 110.607 824.561 135.647H824.569Z" fill="#043723"/>
<path d="M783.028 135.604C795.703 165.212 813.269 197.374 835.235 231.195C861.368 271.418 894.333 313.797 929.237 358.665C956.942 394.276 985.585 431.106 1013.61 470.337C1050.14 521.484 1075.36 564.309 1092.99 605.103C1113.02 651.495 1123.38 697.188 1123.86 740.991H1125.03C1124.55 697.027 1114.15 651.176 1094.06 604.636C1076.39 563.763 1051.14 520.873 1014.56 469.656C986.523 430.403 957.872 393.569 930.163 357.944C895.276 313.098 862.324 270.732 836.222 230.553C814.295 196.789 796.76 164.683 784.11 135.137C773.426 110.166 765.493 85.4307 760.528 61.6125C752.241 21.7963 753.8 -2.14415 753.813 -2.37993L752.643 -2.46289C752.625 -2.22274 751.053 21.8618 759.38 61.8527C764.362 85.7451 772.317 110.559 783.032 135.599L783.028 135.604Z" fill="#043723"/>
<path d="M780.639 231.133C800.074 271.014 824.9 313.595 851.19 358.677C872.013 394.384 893.543 431.314 914.418 470.275C941.813 521.422 960.732 564.246 973.957 605.049C988.986 651.454 996.762 697.165 997.12 740.99H998.291C997.928 697.043 990.134 651.21 975.071 604.687C961.823 563.814 942.878 520.928 915.449 469.72C894.565 430.738 873.026 393.803 852.199 358.083C825.922 313.023 801.104 270.46 781.692 230.617C742.788 150.736 729.418 90.4637 724.912 61.6461C718.664 21.6159 719.86 -2.1499 719.874 -2.38568L718.703 -2.45117C718.69 -2.21539 717.481 21.6639 723.755 61.8251C728.274 90.7082 741.67 151.112 780.639 231.128V231.133Z" fill="#043723"/>
<path d="M726.049 231.06C738.903 270.623 755.521 313.395 773.117 358.678C787.028 394.478 801.411 431.499 815.235 470.202C851.863 572.801 869.883 661.411 870.359 741H871.529C871.053 661.276 853.007 572.535 816.335 469.809C802.507 431.089 788.12 394.063 774.205 358.255C756.617 312.989 740.003 270.23 727.162 230.702C701.222 150.803 692.306 90.5133 689.298 61.687C685.115 21.4952 685.931 -2.15266 685.94 -2.38407L684.77 -2.42773C684.761 -2.19195 683.94 21.5258 688.136 61.8092C691.144 90.6836 700.073 151.065 726.049 231.064V231.06Z" fill="#043723"/>
<path d="M693.582 350.299C716.858 469.351 743.205 604.169 743.633 740.991H744.803C744.375 604.055 718.015 469.176 694.73 350.072C686.447 307.706 678.623 267.689 672.623 230.781C650.307 93.2422 651.988 -1.46278 652.01 -2.40154L650.84 -2.42773C650.822 -1.48461 649.133 93.3164 671.475 230.968C677.474 267.894 685.303 307.92 693.586 350.299H693.582Z" fill="#043723"/>
<path d="M618.074 -2.41504H616.904V740.991H618.074V-2.41504Z" fill="#043723"/>
<path d="M491.342 740.996C491.77 604.169 518.116 469.351 541.397 350.299C549.684 307.924 557.509 267.899 563.508 230.973C585.851 93.3165 584.161 -1.48461 584.143 -2.42773L582.973 -2.40154C582.991 -1.46278 584.676 93.2422 562.355 230.785C556.361 267.693 548.536 307.71 540.249 350.077C516.959 469.181 490.6 604.055 490.172 740.996H491.342Z" fill="#043723"/>
<path d="M364.62 740.995C365.096 661.411 383.115 572.797 419.744 470.197C433.568 431.494 447.951 394.477 461.862 358.678C479.458 313.395 496.076 270.623 508.93 231.06C534.905 151.056 543.835 90.6743 546.843 61.8044C551.035 21.5209 550.218 -2.19684 550.209 -2.43262L549.039 -2.38895C549.048 -2.15317 549.864 21.4903 545.682 61.6821C542.677 90.5084 533.762 150.798 507.817 230.697C494.976 270.23 478.362 312.989 460.77 358.254C446.859 394.062 432.472 431.084 418.64 469.804C381.967 572.53 363.921 661.271 363.445 740.995H364.615H364.62Z" fill="#043723"/>
<path d="M237.857 740.996C238.22 697.172 245.992 651.461 261.02 605.056C274.246 564.253 293.165 521.428 320.559 470.281C341.435 431.316 362.965 394.391 383.788 358.683C410.077 313.601 434.904 271.021 454.338 231.139C493.307 151.122 506.708 90.7189 511.222 61.8359C517.492 21.6703 516.283 -2.20465 516.274 -2.44043L515.104 -2.37494C515.117 -2.13916 516.318 21.6266 510.065 61.6568C505.559 90.4744 492.19 150.747 453.286 230.628C433.873 270.471 409.055 313.033 382.779 358.094C361.952 393.814 340.413 430.749 319.529 469.731C292.1 520.943 273.159 563.829 259.911 604.698C244.843 651.221 237.049 697.054 236.691 741H237.862L237.857 740.996Z" fill="#043723"/>
<path d="M111.116 740.994C111.596 697.191 121.962 651.494 141.99 605.106C159.621 564.312 184.845 521.491 221.369 470.345C249.397 431.113 278.04 394.288 305.739 358.672C340.643 313.804 373.609 271.421 399.741 231.198C421.708 197.377 439.274 165.215 451.949 135.607C462.664 110.57 470.624 85.7568 475.601 61.8644C483.924 21.8735 482.352 -2.21103 482.334 -2.45117L481.164 -2.36821C481.182 -2.13243 482.74 21.8123 474.453 61.6243C469.489 85.4424 461.555 110.177 450.871 135.144C438.222 164.691 420.686 196.792 398.759 230.561C372.653 270.739 339.7 313.106 304.814 357.952C277.105 393.572 248.453 430.411 220.413 469.659C183.841 520.876 158.578 563.766 140.912 604.639C120.818 651.175 110.422 697.03 109.941 740.994H111.112H111.116Z" fill="#043723"/>
<path d="M448.409 -2.46289L447.244 -2.36247C447.265 -2.12232 449.147 22.0408 438.856 61.5951C432.651 85.4045 422.736 110.135 409.383 135.097C393.573 164.64 371.659 196.741 344.247 230.51C319.067 261.519 288.385 295.301 241.648 343.47C233.02 352.364 224.265 361.32 215.428 370.358C184.349 402.14 152.213 435.005 121.317 469.613C99.7998 493.715 81.7932 515.52 66.2622 536.268C48.3255 560.244 33.825 582.595 21.94 604.597C11.5613 623.826 3.21727 643.265 -3.05273 662.555V666.362C3.30023 646.007 12.0023 625.463 22.9704 605.151C34.8293 583.197 49.2948 560.894 67.201 536.967C82.7101 516.249 100.699 494.47 122.19 470.39C153.073 435.8 185.196 402.948 216.266 371.174C225.104 362.136 233.863 353.176 242.49 344.287C289.249 296.091 319.953 262.283 345.155 231.248C372.615 197.422 394.573 165.26 410.414 135.652C423.81 110.611 433.76 85.7931 439.987 61.892C450.335 22.1194 448.431 -2.21838 448.409 -2.45852V-2.46289Z" fill="#043723"/>
<path d="M414.473 -2.47168L413.307 -2.35816C413.329 -2.11364 415.503 22.3071 403.243 61.5644C395.903 85.0333 383.678 110.445 367.88 135.054C348.909 164.6 322.606 196.701 289.715 230.466C251.719 269.453 206.157 309.448 166.594 343.431C156.215 352.347 145.684 361.32 135.065 370.371C97.8466 402.083 59.3664 434.879 22.1961 469.573C13.2801 477.895 4.90117 485.925 -3.05859 493.749V495.387C5.13695 487.318 13.7866 479.026 22.9951 470.429C60.1436 435.756 98.6194 402.97 135.825 371.262C146.448 362.21 156.975 353.238 167.358 344.322C206.939 310.326 252.531 270.308 290.553 231.287C323.501 197.465 349.847 165.303 368.867 135.691C384.717 110.995 396.99 85.483 404.361 61.9181C416.695 22.4075 414.495 -2.2228 414.473 -2.46731V-2.47168Z" fill="#043723"/>
<path d="M380.539 -2.47559L379.373 -2.35333C379.399 -2.10882 381.818 22.6088 367.636 61.5387C359.074 85.0076 344.814 110.415 326.388 135.019C304.251 164.566 273.569 196.667 235.189 230.436C190.871 269.414 137.707 309.418 91.5421 343.405C79.3863 352.356 67.0646 361.355 54.6338 370.432C35.6054 384.33 16.2933 398.451 -3.0625 412.847V414.305C16.5247 399.735 36.0726 385.439 55.328 371.38C67.7545 362.302 80.0806 353.303 92.2363 344.348C138.419 310.348 191.613 270.326 235.962 231.318C274.398 197.501 305.137 165.334 327.322 135.726C345.813 111.031 360.135 85.5141 368.737 61.9448C383.023 22.7267 380.565 -2.22671 380.539 -2.47559Z" fill="#043723"/>
<path d="M346.603 -2.47949L345.442 -2.34414C345.468 -2.09526 348.097 22.9411 332.033 61.5173C325.213 77.8779 311.498 103.91 284.894 134.993C272.372 149.621 257.526 164.841 240.782 180.233C223.43 196.178 203.201 213.063 180.662 230.415C130 269.406 69.2429 309.401 16.4893 343.388C10.0141 347.562 3.49085 351.745 -3.05859 355.937V357.33C3.7048 352.998 10.4376 348.68 17.1268 344.371C69.8979 310.375 130.685 270.362 181.378 231.345C203.943 213.971 224.199 197.069 241.576 181.097C258.356 165.675 273.232 150.42 285.785 135.758C306.922 111.062 323.287 85.5451 333.116 61.9671C349.306 23.0765 346.634 -2.23061 346.603 -2.47949Z" fill="#043723"/>
<path d="M312.673 -2.44681L311.503 -2.38568C311.503 -2.32892 311.791 3.57869 310.468 14.2805C308.538 29.8463 303.814 45.7309 296.426 61.4889C288.755 77.8494 273.324 103.877 243.393 134.965C229.308 149.592 212.606 164.813 193.766 180.209C174.253 196.146 151.496 213.03 126.128 230.39C101.305 247.375 73.4525 265.225 40.9804 284.96C27.3575 293.239 12.9705 301.823 -3.0625 311.232V312.59C13.2194 303.037 27.7941 294.344 41.5873 285.96C74.0769 266.212 101.947 248.353 126.787 231.355C152.181 213.973 174.965 197.071 194.504 181.112C213.384 165.691 230.115 150.435 244.236 135.773C274.276 104.571 289.772 78.4214 297.483 61.9823C304.923 46.1108 309.678 30.1083 311.625 14.4202C312.966 3.60489 312.673 -2.39004 312.669 -2.45117L312.673 -2.44681Z" fill="#043723"/>
<path d="M278.744 -2.45117L277.574 -2.38131C277.574 -2.32455 277.892 3.58742 276.425 14.2718C274.281 29.8332 269.033 45.7135 260.829 61.4671C252.301 77.8276 235.159 103.855 201.906 134.943C186.252 149.57 167.696 164.796 146.759 180.191C125.072 196.137 99.7823 213.021 71.6022 230.377C49.2381 244.149 24.6296 258.496 -3.05273 273.922V275.263C24.8785 259.706 49.6834 245.249 72.2135 231.377C100.424 214.004 125.736 197.102 147.449 181.139C168.425 165.717 187.012 150.461 202.705 135.803C236.081 104.602 253.301 78.4563 261.868 62.0129C270.133 46.137 275.421 30.1301 277.587 14.4333C279.076 3.62235 278.761 -2.20666 278.744 -2.45117Z" fill="#043723"/>
<path d="M244.807 -2.45117L243.637 -2.37694C243.637 -2.32018 243.987 3.60052 242.371 14.2674C240.044 29.6018 234.114 45.9187 225.22 61.4496C218.863 72.54 210.72 83.8836 201.005 95.1705C189.818 108.165 176.156 121.539 160.398 134.93C143.173 149.561 122.761 164.787 99.7328 180.178C75.8666 196.128 48.0489 213.017 17.0569 230.369C10.5424 234.014 3.81396 237.713 -3.05859 241.45V242.786C4.01918 238.944 10.931 235.141 17.6289 231.395C48.6471 214.026 76.491 197.124 100.383 181.156C123.451 165.734 143.898 150.483 161.158 135.825C176.964 122.394 190.67 108.977 201.895 95.939C211.654 84.5997 219.845 73.195 226.238 62.0391C235.206 46.3815 241.183 29.9249 243.528 14.4508C245.161 3.64418 244.821 -2.19793 244.803 -2.44244L244.807 -2.45117Z" fill="#043723"/>
<path d="M210.873 -2.45508L209.703 -2.37648C209.703 -2.31972 210.083 3.60971 208.323 14.2547C206.555 24.9478 201.874 41.8105 189.618 61.4282C182.684 72.5143 173.799 83.8579 163.202 95.1491C150.998 108.143 136.091 121.517 118.901 134.909C100.109 149.544 77.8407 164.765 52.7126 180.161C35.8587 190.487 17.1753 201.207 -3.0625 212.188V213.52C17.4067 202.425 36.2997 191.592 53.3239 181.161C78.4869 165.743 100.79 150.492 119.617 135.834C136.86 122.404 151.81 108.986 164.053 95.9482C174.703 84.6045 183.636 73.1998 190.609 62.0482C202.97 42.2689 207.69 25.2447 209.476 14.4469C211.257 3.64901 210.886 -2.21057 210.869 -2.45508H210.873Z" fill="#043723"/>
<path d="M176.944 -2.45898L175.778 -2.37166C175.778 -2.3149 176.184 3.62327 174.284 14.2508C172.368 24.9395 167.303 41.7934 154.025 61.4112C146.515 72.5016 136.887 83.8453 125.408 95.1321C112.187 108.126 96.036 121.505 77.4094 134.896C57.0537 149.527 32.9256 164.753 5.70169 180.153C2.84177 181.768 -0.0967505 183.401 -3.05273 185.039V186.379C0.104099 184.633 3.23037 182.895 6.27804 181.174C33.5412 165.753 57.6999 150.506 78.0906 135.848C96.7652 122.422 112.96 109.004 126.225 95.9661C137.76 84.6268 147.436 73.2221 154.99 62.0662C168.381 42.2781 173.499 25.2539 175.433 14.4561C177.363 3.66257 176.961 -2.21447 176.944 -2.45898Z" fill="#043723"/>
<path d="M143.009 -2.45898L141.843 -2.36729C141.847 -2.31053 142.279 3.63637 140.236 14.2421C138.175 24.9264 132.717 41.7803 118.422 61.3938C110.336 72.4842 99.9657 83.8278 87.6003 95.1147C73.3662 108.109 55.9709 121.487 35.9077 134.883C24.0794 142.777 11.0286 150.85 -3.05273 159.029V160.382C11.2731 152.077 24.5423 143.878 36.5583 135.861C56.6739 122.43 74.1129 109.017 88.3906 95.9836C100.813 84.6443 111.235 73.2395 119.37 62.088C133.796 42.2999 139.306 25.267 141.389 14.4692C143.467 3.6844 143.035 -2.21011 143.013 -2.45462L143.009 -2.45898Z" fill="#043723"/>
<path d="M109.074 -2.46289L107.908 -2.36683C107.912 -2.3057 108.371 3.64993 106.188 14.2338C103.978 24.9182 98.1319 41.7677 82.8149 61.3768C74.1478 72.4672 63.0399 83.8108 49.7926 95.102C35.1524 107.572 17.3641 120.405 -3.05273 133.263V134.652C17.6784 121.632 35.72 108.633 50.5523 95.9971C63.8608 84.6579 75.0254 73.2531 83.7405 62.1016C99.1972 42.3135 105.1 25.2806 107.336 14.474C109.558 3.70232 109.1 -2.21401 109.078 -2.46289H109.074Z" fill="#043723"/>
<path d="M75.1433 -2.4668L73.9775 -2.36201C73.9819 -2.30524 74.4665 3.66785 72.1393 14.2299C70.2094 22.9756 64.4066 40.7246 47.2121 61.3685C37.9643 72.4589 26.1141 83.8069 11.9848 95.0938C7.27793 98.8531 2.23922 102.643 -3.05273 106.455V107.896C2.50993 103.909 7.79752 99.9404 12.7183 96.0107C26.9088 84.6714 38.8201 73.271 48.1159 62.1195C65.4719 41.2879 71.3359 23.3337 73.2876 14.4832C75.6542 3.72025 75.1695 -2.21355 75.1477 -2.46243L75.1433 -2.4668Z" fill="#043723"/>
<path d="M41.2069 -2.4668L40.0411 -2.35764C40.0455 -2.29651 40.5564 3.68532 38.0894 14.2212C36.0416 22.9625 29.8764 40.7115 11.6078 61.3554C7.25897 66.2631 2.34252 71.2232 -3.05859 76.2008V77.7945C2.68745 72.5418 7.89645 67.3066 12.4854 62.1282C30.9243 41.2922 37.1594 23.338 39.2334 14.4875C41.7484 3.73771 41.2331 -2.22228 41.2113 -2.4668H41.2069Z" fill="#043723"/>
<path d="M7.27253 -2.47168L6.10673 -2.35816C6.11109 -2.29703 6.64815 3.6979 4.04147 14.2119C2.99792 18.4123 0.932663 24.7042 -3.0625 32.3801V34.8645C1.67057 26.1974 4.03274 19.1022 5.17671 14.4958C7.84015 3.75903 7.29873 -2.2228 7.27253 -2.47168Z" fill="#043723"/>
</svg>
