<svg width="46" height="46" viewBox="0 0 46 46" fill="none" xmlns="http://www.w3.org/2000/svg">
<rect width="46" height="46" rx="23" fill="url(#paint0_radial_110_13667)"/>
<path d="M29.083 12.1883C30.0332 12.367 30.8735 12.6762 31.6243 13.2021C32.8673 14.0678 33.6051 15.2457 33.8463 16.7156C33.9146 17.1221 33.9284 17.5448 33.934 17.9591C33.9401 18.279 33.6747 18.47 33.3776 18.4024C33.1641 18.3557 33.0437 18.191 33.0286 17.9489C32.998 17.5179 32.9928 17.0832 32.9035 16.6642C32.5587 15.0376 31.5521 13.9522 29.9843 13.3633C29.5704 13.2088 29.1266 13.1403 28.6957 13.0348C28.6538 13.0262 28.5992 13.0504 28.5529 13.0584C28.5694 13.1036 28.5774 13.1569 28.6023 13.194C28.9013 13.5939 29.2087 13.9939 29.5076 14.3978C29.6197 14.5463 29.627 14.7021 29.5294 14.8615C29.4447 15.0003 29.3057 15.0813 29.1426 15.0434C29.0338 15.0181 28.9085 14.9556 28.842 14.8732C28.3185 14.197 27.8078 13.5168 27.2971 12.8326C27.1227 12.5976 27.1747 12.356 27.4356 12.206C28.1552 11.7884 28.8792 11.3708 29.6031 10.9532C29.8303 10.8235 30.0688 10.8825 30.189 11.0843C30.3091 11.2902 30.2446 11.5153 30.0174 11.6491C29.7269 11.8194 29.4239 11.9897 29.083 12.1883Z" fill="white"/>
<path d="M16.9951 33.9264C16.0437 33.7542 15.2012 33.4508 14.4467 32.9299C13.1976 32.0726 12.4516 30.8997 12.2001 29.4314C12.129 29.0253 12.1121 28.6028 12.1037 28.1887C12.0953 27.8686 12.3594 27.6759 12.657 27.7416C12.8708 27.7868 12.9923 27.9508 13.009 28.1927C13.0426 28.6234 13.051 29.0582 13.1432 29.4766C13.4994 31.1006 14.5138 32.1793 16.0855 32.7575C16.5005 32.9093 16.9449 32.9749 17.3766 33.0775C17.4185 33.0857 17.473 33.0611 17.5191 33.0529C17.5023 33.0077 17.494 32.9544 17.4688 32.9176C17.1669 32.5197 16.8568 32.1218 16.5551 31.7199C16.4419 31.5723 16.4334 31.4165 16.5298 31.2565C16.6137 31.1171 16.752 31.035 16.9154 31.072C17.0246 31.0965 17.1502 31.158 17.2173 31.24C17.7454 31.9127 18.2611 32.5895 18.7765 33.2703C18.9525 33.5041 18.9022 33.7461 18.6423 33.8978C17.9257 34.3203 17.2046 34.7427 16.4838 35.1651C16.2575 35.2964 16.0185 35.2389 15.897 35.0379C15.7754 34.8328 15.8382 34.6072 16.0646 34.472C16.3539 34.2996 16.6556 34.1275 16.9951 33.9264Z" fill="white"/>
<path d="M25.5227 12.2111V20.2333H23.2468C21.8049 20.2333 20.6397 21.3777 20.6397 22.7844V26.082H11.3472C9.90541 26.082 8.74023 24.9377 8.74023 23.531V12.2111C8.74023 10.8002 9.90541 9.66 11.3472 9.66H22.9156C24.3533 9.66 25.5227 10.8002 25.5227 12.2111Z" fill="white"/>
<path d="M37.261 22.465V33.7848C37.261 35.1959 36.0916 36.34 34.654 36.34H23.0856C21.6438 36.34 20.4785 35.1959 20.4785 33.7848V25.7626H22.7544C24.1921 25.7626 25.3616 24.6182 25.3616 23.2115V19.914H34.654C36.0916 19.914 37.261 21.0583 37.261 22.465Z" fill="white"/>
<path d="M28.9892 24.0148C26.6671 24.0517 24.6719 25.9588 24.6719 28.3335C24.6762 30.8108 26.818 32.6892 29.1107 32.6564C31.4621 32.6196 33.4656 30.7165 33.4614 28.3418C33.4656 25.9301 31.4328 23.9778 28.9892 24.0148ZM29.1442 32.4268C26.8222 32.4678 24.9318 30.6262 24.9025 28.3294C24.8774 26.1762 26.7635 24.3019 28.943 24.2404C31.2232 24.1747 33.2393 26.045 33.2351 28.3459C33.2351 30.4129 31.4914 32.3898 29.1442 32.4268Z" fill="#207196"/>
<path d="M31.5883 25.5563C31.4291 25.6424 31.2823 25.6999 31.165 25.7942C30.9261 25.987 30.88 26.2659 31.0184 26.5859C31.0811 26.7376 31.1566 26.8853 31.2488 27.0206C31.6135 27.5496 31.6805 28.1197 31.5046 28.7267C31.3327 29.3174 31.1482 29.9079 30.968 30.4985C30.9638 30.5191 30.9512 30.5354 30.9219 30.5888C30.4609 29.2394 30.0081 27.9229 29.5513 26.5859C29.6771 26.5775 29.7777 26.5734 29.8824 26.5612C29.937 26.553 30.0039 26.5489 30.0334 26.5161C30.0711 26.4751 30.0836 26.4094 30.0878 26.3521C30.0878 26.3396 30.0208 26.3069 29.983 26.3069C29.3543 26.3069 28.7214 26.3111 28.0927 26.3111C28.0717 26.3111 28.0466 26.3111 28.0256 26.3151C27.9627 26.3314 27.8496 26.3028 27.8621 26.4054C27.8663 26.4587 27.9585 26.4997 28.0089 26.5449C28.0131 26.5489 28.0256 26.5489 28.034 26.5489C28.3065 26.5242 28.4112 26.6884 28.4867 26.9098C28.6292 27.3077 28.7885 27.7014 28.9353 28.0952C28.952 28.1403 28.9562 28.2018 28.9436 28.2469C28.6837 29.0098 28.4196 29.7685 28.1597 30.5313C28.1555 30.5478 28.143 30.5601 28.1136 30.6134C27.6526 29.2641 27.2 27.9475 26.7388 26.6104C26.8771 26.59 26.9861 26.5775 27.0909 26.5571C27.1831 26.5367 27.3089 26.5284 27.3006 26.4136C27.2922 26.2906 27.1664 26.3028 27.0741 26.3028C26.764 26.3069 26.4581 26.3151 26.1479 26.3233C26.0766 26.3233 26.0053 26.3233 25.9258 26.3028C26.4538 25.5276 27.158 24.9945 28.0842 24.7607C29.392 24.4244 30.5488 24.736 31.5883 25.5563Z" fill="#207196"/>
<path d="M29.1614 28.674C29.5471 29.7198 29.9327 30.7657 30.3309 31.8445C30.1086 31.8936 29.9033 31.947 29.6979 31.988C29.1908 32.0864 28.6879 32.0576 28.1891 31.947C27.9836 31.9018 27.9794 31.8896 28.0465 31.7009C28.3861 30.7329 28.7255 29.765 29.0692 28.7971C29.0818 28.756 29.1027 28.7191 29.1238 28.6781C29.1322 28.6781 29.1447 28.674 29.1614 28.674Z" fill="#207196"/>
<path d="M25.6538 26.8465C26.249 28.442 26.8442 30.0415 27.4394 31.6368C27.4268 31.6451 27.4101 31.6533 27.3975 31.6615C26.5885 31.2637 25.9891 30.6567 25.6246 29.8447C25.176 28.8521 25.2221 27.8472 25.6035 26.8506C25.6162 26.8506 25.6329 26.8465 25.6538 26.8465Z" fill="#207196"/>
<path d="M32.4183 26.6021C32.8584 27.4922 32.9589 28.4191 32.6823 29.3747C32.4099 30.3139 31.8273 31.0318 30.9512 31.5198C30.9639 31.4787 30.9723 31.4377 30.9848 31.4007C31.3704 30.3015 31.7561 29.2024 32.1374 28.1033C32.2841 27.6808 32.3889 27.2502 32.3638 26.799C32.3596 26.7334 32.3721 26.6678 32.3763 26.6021C32.3889 26.6062 32.4058 26.6021 32.4183 26.6021Z" fill="#207196"/>
<mask id="mask0_110_13667" style="mask-type:luminance" maskUnits="userSpaceOnUse" x="12" y="13" width="10" height="9">
<path d="M21.2277 13.7903H12.9043V21.0185H21.2277V13.7903Z" fill="white"/>
</mask>
<g mask="url(#mask0_110_13667)">
<path d="M13.5336 19.9854L13.9006 20.6016C13.9769 20.7314 14.0865 20.8333 14.2153 20.9074L15.5262 18.7019H12.9043C12.9043 18.8456 12.9424 18.9892 13.0187 19.1189L13.5336 19.9854Z" fill="#0066DA"/>
<path d="M17.066 16.1071L15.7551 13.9016C15.6263 13.9757 15.5167 14.0777 15.4404 14.2074L13.0187 18.2848C12.9438 18.4118 12.9044 18.5555 12.9043 18.7019H15.5262L17.066 16.1071Z" fill="#00AC47"/>
<path d="M19.9166 20.9074C20.0453 20.8333 20.155 20.7314 20.2313 20.6016L20.3838 20.3468L21.1132 19.1189C21.1894 18.9892 21.2276 18.8456 21.2276 18.7019H18.6055L19.1634 19.7676L19.9166 20.9074Z" fill="#EA4335"/>
<path d="M17.0668 16.107L18.3778 13.9015C18.2491 13.8274 18.1013 13.7903 17.9488 13.7903H16.1849C16.0324 13.7903 15.8846 13.832 15.7559 13.9015L17.0668 16.107Z" fill="#00832D"/>
<path d="M18.6054 18.7019H15.5258L14.2148 20.9074C14.3436 20.9816 14.4913 21.0186 14.6439 21.0186H19.4873C19.6399 21.0186 19.7876 20.9769 19.9164 20.9074L18.6054 18.7019Z" fill="#2684FC"/>
<path d="M19.9029 16.2462L18.692 14.2074C18.6157 14.0777 18.5061 13.9758 18.3774 13.9016L17.0664 16.1072L18.6062 18.7019H21.2234C21.2234 18.5582 21.1852 18.4146 21.109 18.2849L19.9029 16.2462Z" fill="#FFBA00"/>
</g>
<defs>
<radialGradient id="paint0_radial_110_13667" cx="0" cy="0" r="1" gradientUnits="userSpaceOnUse" gradientTransform="translate(14.26 -24.38) rotate(75.524) scale(72.6876)">
<stop stop-color="#E1F2A6"/>
<stop offset="1" stop-color="#15BE7C"/>
</radialGradient>
</defs>
</svg>
