<svg width="24" height="24" viewBox="0 0 24 24" fill="none" xmlns="http://www.w3.org/2000/svg">
<mask id="mask0_108_518" style="mask-type:alpha" maskUnits="userSpaceOnUse" x="0" y="0" width="24" height="24">
<rect width="24" height="24" fill="#D9D9D9"/>
</mask>
<g mask="url(#mask0_108_518)">
<path d="M4.30775 14.5C3.80258 14.5 3.375 14.325 3.025 13.975C2.675 13.625 2.5 13.1974 2.5 12.6923V4.30775C2.5 3.80258 2.675 3.375 3.025 3.025C3.375 2.675 3.80258 2.5 4.30775 2.5H12.6923C13.1974 2.5 13.625 2.675 13.975 3.025C14.325 3.375 14.5 3.80258 14.5 4.30775V12.6923C14.5 13.1974 14.325 13.625 13.975 13.975C13.625 14.325 13.1974 14.5 12.6923 14.5H4.30775ZM4.30775 13H12.6923C12.7821 13 12.8558 12.9712 12.9135 12.9135C12.9712 12.8558 13 12.7821 13 12.6923V4.30775C13 4.21792 12.9712 4.14417 12.9135 4.0865C12.8558 4.02883 12.7821 4 12.6923 4H4.30775C4.21792 4 4.14417 4.02883 4.0865 4.0865C4.02883 4.14417 4 4.21792 4 4.30775V12.6923C4 12.7821 4.02883 12.8558 4.0865 12.9135C4.14417 12.9712 4.21792 13 4.30775 13ZM8 11.5L6.98075 10.0962C6.93725 10.0359 6.877 10.0057 6.8 10.0057C6.723 10.0057 6.66275 10.0359 6.61925 10.0962L5.4635 11.6385C5.40317 11.7153 5.39483 11.7948 5.4385 11.877C5.482 11.959 5.55058 12 5.64425 12H11.3558C11.4494 12 11.518 11.959 11.5615 11.877C11.6052 11.7948 11.5968 11.7153 11.5365 11.6385L9.88075 9.48075C9.83725 9.42058 9.777 9.3905 9.7 9.3905C9.623 9.3905 9.56275 9.42058 9.51925 9.48075L8 11.5ZM16.75 21.5C15.9872 21.5 15.3382 21.2323 14.803 20.697C14.2677 20.1618 14 19.5128 14 18.75C14 17.9872 14.2677 17.3382 14.803 16.803C15.3382 16.2677 15.9872 16 16.75 16C16.991 16 17.2131 16.0327 17.4163 16.098C17.6196 16.1635 17.8142 16.2533 18 16.3673V11.9038C18 11.6461 18.0863 11.4311 18.2587 11.2587C18.4311 11.0863 18.6461 11 18.9038 11H20.75C20.9628 11 21.141 11.0718 21.2845 11.2155C21.4282 11.359 21.5 11.5372 21.5 11.75C21.5 11.9628 21.4282 12.141 21.2845 12.2845C21.141 12.4282 20.9628 12.5 20.75 12.5H19.5V18.75C19.5 19.5128 19.2323 20.1618 18.697 20.697C18.1618 21.2323 17.5128 21.5 16.75 21.5Z" fill="#00AC47"/>
</g>
</svg>
