<svg width="71" height="20" viewBox="0 0 71 20" fill="none" xmlns="http://www.w3.org/2000/svg">
<path d="M47.7227 0.761719H42.2823C41.9108 0.761719 41.5933 1.03194 41.5359 1.40011L39.3358 15.3501C39.2919 15.6248 39.5047 15.8748 39.7839 15.8748H42.5751C42.8352 15.8748 43.057 15.6856 43.0975 15.4278L43.7212 11.4725C43.7787 11.1054 44.0962 10.8341 44.4677 10.8341H46.1892C49.773 10.8341 51.8413 9.10017 52.3817 5.66278C52.6249 4.1597 52.3918 2.97863 51.6882 2.15109C50.9135 1.24248 49.5422 0.761719 47.7227 0.761719ZM48.351 5.85645C48.0537 7.80989 46.5619 7.80989 45.1196 7.80989H44.2988L44.8742 4.16421C44.9091 3.94353 45.0994 3.7814 45.3223 3.7814H45.6983C46.6801 3.7814 47.6079 3.7814 48.0864 4.34097C48.3724 4.67424 48.4591 5.17077 48.351 5.85645Z" fill="#009ADE"/>
<path d="M8.91607 0.761719H3.47569C3.10414 0.761719 2.78664 1.03194 2.72922 1.40011L0.529196 15.3501C0.485285 15.6248 0.698081 15.8748 0.977306 15.8748H3.57477C3.94632 15.8748 4.26383 15.6045 4.32125 15.2364L4.9146 11.4725C4.97202 11.1054 5.28953 10.8341 5.66108 10.8341H7.38259C10.9663 10.8341 13.0346 9.10017 13.5751 5.66278C13.8183 4.1597 13.5852 2.97863 12.8815 2.15109C12.1069 1.24248 10.7355 0.761719 8.91607 0.761719ZM9.5432 5.85645C9.24596 7.80989 7.75413 7.80989 6.31185 7.80989H5.49106L6.0664 4.16421C6.1013 3.94353 6.29158 3.7814 6.51451 3.7814H6.89056C7.87235 3.7814 8.8001 3.7814 9.27861 4.34097C9.56572 4.67424 9.65241 5.17077 9.5432 5.85645Z" fill="#002F87"/>
<path d="M25.1784 5.7912H22.5731C22.3502 5.7912 22.1599 5.95333 22.125 6.174L22.0101 6.90247L21.8277 6.63901C21.2637 5.82047 20.006 5.54688 18.7506 5.54688C15.8728 5.54688 13.4138 7.72775 12.9353 10.7868C12.6865 12.3124 13.04 13.7716 13.9047 14.7894C14.6996 15.7251 15.8345 16.1135 17.1856 16.1135C19.505 16.1135 20.7919 14.6228 20.7919 14.6228L20.6759 15.3468C20.632 15.6226 20.8448 15.8714 21.124 15.8714H23.4704C23.842 15.8714 24.1595 15.6012 24.2169 15.2331L25.6254 6.31587C25.6705 6.03889 25.4577 5.7912 25.1784 5.7912ZM21.5474 10.8612C21.2963 12.3496 20.1141 13.3483 18.6076 13.3483C17.8522 13.3483 17.2476 13.1051 16.858 12.6446C16.4729 12.1886 16.3277 11.5389 16.4493 10.815C16.6835 9.34005 17.8848 8.30873 19.3688 8.30873C20.1085 8.30873 20.7097 8.55417 21.106 9.01804C21.5057 9.48642 21.6622 10.1406 21.5474 10.8612Z" fill="#002F87"/>
<path d="M63.9753 5.7912H61.37C61.147 5.7912 60.9568 5.95333 60.9219 6.174L60.807 6.90247L60.6246 6.63901C60.0605 5.82047 58.8029 5.54688 57.5475 5.54688C54.6697 5.54688 52.2107 7.72775 51.7322 10.7868C51.4834 12.3124 51.8369 13.7716 52.7016 14.7894C53.4965 15.7251 54.6314 16.1135 55.9825 16.1135C58.3019 16.1135 59.5888 14.6228 59.5888 14.6228L59.4728 15.3468C59.4289 15.6226 59.6417 15.8714 59.9209 15.8714H62.2673C62.6389 15.8714 62.9564 15.6012 63.0138 15.2331L64.4223 6.31587C64.4673 6.03889 64.2545 5.7912 63.9753 5.7912ZM60.3454 10.8612C60.0943 12.3496 58.9121 13.3483 57.4056 13.3483C56.6502 13.3483 56.0456 13.1051 55.656 12.6446C55.2709 12.1886 55.1257 11.5389 55.2473 10.815C55.4815 9.34005 56.6828 8.30873 58.1668 8.30873C58.9065 8.30873 59.5077 8.55417 59.904 9.01804C60.3026 9.48642 60.4591 10.1406 60.3454 10.8612Z" fill="#009ADE"/>
<path d="M39.0494 5.79297H36.4305C36.1805 5.79297 35.9464 5.91682 35.8056 6.12398L32.1937 11.4439L30.6625 6.33227C30.5668 6.01252 30.2718 5.79297 29.9385 5.79297H27.3647C27.054 5.79297 26.8355 6.09921 26.9357 6.39307L29.8192 14.8554L27.1069 18.6812C26.8941 18.9818 27.1091 19.3973 27.4773 19.3973H30.0928C30.3405 19.3973 30.5724 19.2757 30.7143 19.0719L39.422 6.50454C39.6303 6.20392 39.4153 5.79297 39.0494 5.79297Z" fill="#002F87"/>
<path d="M67.0476 1.14287L64.8149 15.3473C64.7722 15.622 64.9849 15.8708 65.263 15.8708H67.5092C67.8808 15.8708 68.1983 15.6006 68.2557 15.2325L70.4569 1.28248C70.5008 1.00776 70.288 0.757812 70.0087 0.757812H67.4957C67.2728 0.760064 67.0825 0.922189 67.0476 1.14287Z" fill="#009ADE"/>
</svg>
