<svg width="64" height="75" viewBox="0 0 64 75" fill="none" xmlns="http://www.w3.org/2000/svg">
<path d="M12.9752 71.5886C12.9752 73.0614 14.1691 74.2553 15.6419 74.2553C17.1146 74.2553 18.3085 73.0614 18.3085 71.5886C18.3085 70.1159 17.1146 68.922 15.6419 68.922C14.1691 68.922 12.9752 70.1159 12.9752 71.5886ZM8.14168 34.5886L7.90586 34.1477L8.14168 34.5886ZM6.64128 5.0887L6.21254 4.83145L6.64128 5.0887ZM63.36 10.0385C63.6085 9.91807 63.7122 9.61897 63.5917 9.3705L61.6285 5.32134C61.508 5.07286 61.2089 4.9691 60.9605 5.08957C60.712 5.21005 60.6082 5.50914 60.7287 5.75762L62.4738 9.35687L58.8745 11.102C58.6261 11.2224 58.5223 11.5215 58.6428 11.77C58.7633 12.0185 59.0623 12.1223 59.3108 12.0018L63.36 10.0385ZM15.6419 71.5886C15.9785 71.2189 15.9785 71.2189 15.9785 71.2189C15.9785 71.2189 15.9785 71.2189 15.9785 71.2189C15.9785 71.2189 15.9785 71.2189 15.9785 71.2189C15.9785 71.2189 15.9785 71.2189 15.9784 71.2189C15.9783 71.2188 15.9782 71.2187 15.978 71.2185C15.9776 71.2181 15.9769 71.2175 15.976 71.2167C15.9741 71.215 15.9712 71.2123 15.9673 71.2087C15.9595 71.2016 15.9476 71.1906 15.9319 71.1761C15.9003 71.1469 15.8531 71.1031 15.7913 71.0451C15.6678 70.9292 15.4861 70.757 15.2552 70.533L14.9071 70.8919L14.5589 71.2508C14.7941 71.4789 14.9798 71.655 15.1071 71.7744C15.1708 71.8342 15.2199 71.8798 15.2533 71.9106C15.27 71.926 15.2828 71.9378 15.2915 71.9458C15.2958 71.9498 15.2992 71.9528 15.3015 71.9549C15.3026 71.956 15.3035 71.9568 15.3041 71.9574C15.3045 71.9576 15.3047 71.9579 15.3049 71.958C15.305 71.9581 15.3051 71.9582 15.3051 71.9583C15.3052 71.9583 15.3052 71.9583 15.3052 71.9583C15.3052 71.9583 15.3052 71.9583 15.3052 71.9584C15.3052 71.9584 15.3053 71.9584 15.6419 71.5886ZM13.47 69.4521L13.8291 69.1041C13.4067 68.6682 12.9371 68.1727 12.4343 67.6249L12.0659 67.963L11.6975 68.3011C12.207 68.8561 12.6828 69.3582 13.111 69.8L13.47 69.4521ZM10.6983 66.4321L11.0756 66.1041C10.6506 65.6151 10.2129 65.0987 9.76901 64.5582L9.38261 64.8755L8.99621 65.1928C9.44642 65.741 9.89017 66.2646 10.3209 66.7601L10.6983 66.4321ZM8.10896 63.2766L8.50478 62.9711C8.09848 62.4447 7.69217 61.9014 7.29057 61.3436L6.88481 61.6357L6.47904 61.9279C6.88757 62.4953 7.30055 63.0475 7.71315 63.5821L8.10896 63.2766ZM5.72129 59.9561L6.13764 59.6792C5.7661 59.1205 5.40321 58.5509 5.05308 57.9727L4.62538 58.2316L4.19768 58.4906C4.55564 59.0818 4.92616 59.6633 5.30494 60.2329L5.72129 59.9561ZM3.60872 56.4584L4.04861 56.2207C3.72762 55.6267 3.42371 55.0265 3.14093 54.4223L2.68807 54.6343L2.23522 54.8462C2.52679 55.4692 2.83946 56.0866 3.16884 56.6961L3.60872 56.4584ZM1.88498 52.7577L2.35134 52.5775C2.10717 51.9459 1.89026 51.3129 1.70495 50.6809L1.22515 50.8216L0.745348 50.9623C0.939183 51.6233 1.16529 52.2828 1.41861 52.938L1.88498 52.7577ZM0.747816 48.8347L1.23949 48.7438C1.11757 48.0843 1.0356 47.4293 0.998329 46.7814L0.499154 46.8101L-2.08914e-05 46.8388C0.0398546 47.532 0.127303 48.2286 0.256147 48.9256L0.747816 48.8347ZM0.53167 44.7696L1.02948 44.8164C1.09063 44.165 1.20463 43.5237 1.37678 42.8951L0.894536 42.7631L0.412295 42.631C0.22402 43.3184 0.100125 44.017 0.0338583 44.7229L0.53167 44.7696ZM1.61313 40.8522L2.06279 41.0708C2.33888 40.503 2.67235 39.9469 3.06858 39.405L2.66497 39.1099L2.26136 38.8148C1.83032 39.4043 1.46592 40.0115 1.16347 40.6335L1.61313 40.8522ZM3.99504 37.5711L4.34693 37.9263C4.79243 37.4849 5.28868 37.0551 5.83934 36.6388L5.53777 36.2399L5.2362 35.8411C4.65199 36.2829 4.12187 36.7416 3.64315 37.2159L3.99504 37.5711ZM7.23059 35.1037L7.48709 35.5329C7.77276 35.3621 8.06946 35.1943 8.3775 35.0295L8.14168 34.5886L7.90586 34.1477C7.58428 34.3198 7.27377 34.4954 6.97408 34.6745L7.23059 35.1037ZM8.14168 34.5886L8.3775 35.0295C8.70119 34.8564 9.01348 34.6845 9.31464 34.5138L9.06807 34.0788L8.82151 33.6438C8.5278 33.8103 8.22269 33.9783 7.90586 34.1477L8.14168 34.5886ZM10.8158 33.0207L11.0884 33.4399C11.716 33.0317 12.2809 32.6294 12.7867 32.2322L12.4779 31.839L12.1691 31.4457C11.6895 31.8223 11.1492 32.2074 10.5432 32.6016L10.8158 33.0207ZM13.9865 30.4895L14.3471 30.8358C14.9026 30.2575 15.3397 29.6845 15.6677 29.1139L15.2342 28.8647L14.8007 28.6156C14.5198 29.1044 14.1349 29.6131 13.6259 30.1431L13.9865 30.4895ZM15.9019 26.9521L16.3979 27.0149C16.495 26.2489 16.4088 25.5061 16.1885 24.7863L15.7104 24.9326L15.2322 25.0789C15.4168 25.6818 15.4828 26.2816 15.4059 26.8892L15.9019 26.9521ZM14.8363 23.0908L15.2596 22.8246C14.898 22.2495 14.4709 21.6838 14.0052 21.1251L13.6212 21.4453L13.2371 21.7654C13.6839 22.3015 14.082 22.8304 14.413 23.3569L14.8363 23.0908ZM12.2564 19.9189L12.6206 19.5763C12.1573 19.0839 11.6758 18.5889 11.1972 18.0938L10.8378 18.4414L10.4783 18.7889C10.96 19.2871 11.4349 19.7755 11.8923 20.2616L12.2564 19.9189ZM9.42857 16.9573L9.79634 16.6185C9.33413 16.1167 8.88854 15.6111 8.47367 15.0983L8.08497 15.4128L7.69626 15.7273C8.12865 16.2617 8.58932 16.7842 9.06081 17.296L9.42857 16.9573ZM6.88344 13.7561L7.30583 13.4886C6.94562 12.9199 6.64104 12.344 6.40802 11.7577L5.94337 11.9424L5.47872 12.127C5.73896 12.7819 6.07437 13.4132 6.46104 14.0237L6.88344 13.7561ZM5.43667 9.96903L5.9335 9.91279C5.86469 9.30496 5.88202 8.67887 6.00425 8.02984L5.51289 7.93731L5.02153 7.84477C4.88042 8.59402 4.86006 9.32045 4.93984 10.0253L5.43667 9.96903ZM6.15266 6.00083L6.60502 6.21383C6.73871 5.92992 6.89318 5.64069 7.07003 5.34595L6.64128 5.0887L6.21254 4.83145C6.01937 5.15338 5.84896 5.47211 5.7003 5.78783L6.15266 6.00083ZM6.64128 5.0887L7.07003 5.34595C7.22551 5.08681 7.40061 4.84107 7.59463 4.60813L7.21045 4.28812L6.82628 3.96811C6.60009 4.23965 6.39505 4.52727 6.21254 4.83145L6.64128 5.0887ZM8.66131 2.97279L8.94693 3.38318C9.43041 3.0467 9.97369 2.74832 10.573 2.48649L10.3729 2.02831L10.1727 1.57012C9.52156 1.85458 8.91972 2.18377 8.37569 2.56239L8.66131 2.97279ZM12.2255 1.37577L12.3605 1.85719C12.9499 1.69185 13.5746 1.55211 14.2314 1.43654L14.1447 0.944109L14.0581 0.451674C13.3727 0.572275 12.7154 0.719039 12.0904 0.894351L12.2255 1.37577ZM16.093 0.678328L16.1431 1.17581C16.7666 1.11302 17.4113 1.06777 18.0748 1.03891L18.0531 0.539379L18.0313 0.0398516C17.3507 0.0694552 16.687 0.115979 16.0429 0.180845L16.093 0.678328ZM20.0174 0.500082L20.0165 1.00008C20.6526 1.00126 21.3021 1.01518 21.9632 1.04092L21.9826 0.541297L22.0021 0.0416754C21.3296 0.0154907 20.6677 0.00128421 20.0183 8.32379e-05L20.0174 0.500082ZM23.947 0.649168L23.9121 1.14795C24.5538 1.19289 25.2039 1.2475 25.861 1.311L25.9091 0.813314L25.9572 0.315632C25.2919 0.251347 24.633 0.195987 23.9819 0.15039L23.947 0.649168ZM27.8674 1.02566L27.8079 1.52212C28.4489 1.59887 29.0948 1.68306 29.7441 1.77397L29.8134 1.2788L29.8827 0.783633C29.2272 0.69185 28.5748 0.6068 27.9268 0.52921L27.8674 1.02566ZM31.7569 1.56883L31.6788 2.06269C32.3215 2.16431 32.9661 2.27172 33.6113 2.38427L33.6972 1.8917L33.7831 1.39914C33.133 1.28573 32.4832 1.17744 31.835 1.07496L31.7569 1.56883ZM35.6323 2.24378L35.5393 2.73506C36.1811 2.85652 36.8222 2.98239 37.4612 3.11201L37.5606 2.62199L37.66 2.13197C37.0169 2.00152 36.3715 1.87481 35.7252 1.7525L35.6323 2.24378ZM39.4863 3.02478L39.381 3.51357C40.0235 3.65194 40.6626 3.79348 41.2969 3.93748L41.4076 3.44989L41.5183 2.9623C40.8805 2.81751 40.2378 2.67517 39.5915 2.53598L39.4863 3.02478ZM43.3226 3.89522L43.2069 4.38164C43.8481 4.53423 44.4829 4.68868 45.1096 4.84424L45.23 4.35897L45.3505 3.8737C44.7208 3.71739 44.0829 3.56217 43.4384 3.4088L43.3226 3.89522ZM47.133 4.8407L47.0081 5.32485C47.6533 5.4913 48.2878 5.65813 48.9098 5.82443L49.039 5.3414L49.1681 4.85837C48.5434 4.69134 47.9061 4.52377 47.2579 4.35655L47.133 4.8407ZM50.9395 5.85816L50.8063 6.3401C51.4545 6.51925 52.0856 6.69666 52.6975 6.87115L52.8346 6.39033L52.9717 5.9095C52.3574 5.73429 51.7236 5.55614 51.0727 5.37624L50.9395 5.85816ZM54.7242 6.93745L54.5832 7.41717C55.2397 7.61011 55.8672 7.79749 56.4622 7.97751L56.607 7.49894L56.7518 7.02037C56.1544 6.83961 55.5244 6.65146 54.8652 6.45774L54.7242 6.93745ZM58.4751 8.07249L58.3264 8.54986C59.0254 8.7676 59.6579 8.96826 60.2153 9.14741L60.3683 8.67139L60.5213 8.19536C59.9612 8.01535 59.3258 7.81379 58.6238 7.59512L58.4751 8.07249ZM62.241 9.28392L62.0828 9.75823C62.3742 9.85544 62.5985 9.93129 62.7496 9.98276C62.8252 10.0085 62.8825 10.0281 62.9208 10.0413C62.9399 10.0479 62.9543 10.0529 62.9639 10.0562C62.9687 10.0578 62.9722 10.059 62.9746 10.0598C62.9758 10.0603 62.9766 10.0606 62.9772 10.0608C62.9775 10.0608 62.9777 10.0609 62.9778 10.061C62.9779 10.061 62.9779 10.061 62.9779 10.061C62.978 10.061 62.978 10.061 62.978 10.061C62.978 10.061 62.978 10.061 62.978 10.061C62.978 10.061 62.978 10.061 63.1418 9.58864C63.3057 9.11626 63.3057 9.11625 63.3057 9.11625C63.3057 9.11625 63.3057 9.11625 63.3057 9.11624C63.3057 9.11624 63.3057 9.11623 63.3056 9.11622C63.3056 9.1162 63.3055 9.11618 63.3054 9.11615C63.3052 9.11609 63.305 9.116 63.3046 9.11588C63.304 9.11565 63.303 9.11531 63.3017 9.11486C63.2991 9.11398 63.2954 9.11267 63.2904 9.11094C63.2803 9.10748 63.2655 9.10236 63.2459 9.09562C63.2067 9.08214 63.1485 9.06219 63.0719 9.03613C62.9189 8.98403 62.6927 8.90751 62.3992 8.80961L62.241 9.28392Z" fill="white"/>
</svg>
