<svg width="24" height="24" viewBox="0 0 24 24" fill="none" xmlns="http://www.w3.org/2000/svg">
<mask id="mask0_108_539" style="mask-type:alpha" maskUnits="userSpaceOnUse" x="0" y="0" width="24" height="24">
<rect width="24" height="24" fill="#D9D9D9"/>
</mask>
<g mask="url(#mask0_108_539)">
<path d="M4.30775 21.5C3.80258 21.5 3.375 21.325 3.025 20.975C2.675 20.625 2.5 20.1974 2.5 19.6923V6.30777C2.5 5.8026 2.675 5.37502 3.025 5.02502C3.375 4.67502 3.80258 4.50002 4.30775 4.50002H8.675C8.88783 4.50002 9.06608 4.57185 9.20975 4.71552C9.35325 4.85902 9.425 5.03718 9.425 5.25002C9.425 5.46285 9.35325 5.64102 9.20975 5.78452C9.06608 5.92818 8.88783 6.00002 8.675 6.00002H4.30775C4.23075 6.00002 4.16025 6.0321 4.09625 6.09626C4.03208 6.16026 4 6.23077 4 6.30777V19.6923C4 19.7693 4.03208 19.8398 4.09625 19.9038C4.16025 19.9679 4.23075 20 4.30775 20H17.6923C17.7692 20 17.8398 19.9679 17.9038 19.9038C17.9679 19.8398 18 19.7693 18 19.6923V14.2308C18 14.0179 18.0718 13.8397 18.2155 13.696C18.359 13.5525 18.5372 13.4808 18.75 13.4808C18.9628 13.4808 19.141 13.5525 19.2845 13.696C19.4282 13.8397 19.5 14.0179 19.5 14.2308V19.6923C19.5 20.1974 19.325 20.625 18.975 20.975C18.625 21.325 18.1974 21.5 17.6923 21.5H4.30775ZM18.877 8.82301L21.6077 11.5538C21.7461 11.6923 21.8169 11.8663 21.8202 12.076C21.8234 12.2855 21.7526 12.4628 21.6077 12.6078C21.4627 12.7526 21.2871 12.825 21.0807 12.825C20.8744 12.825 20.6988 12.7526 20.5538 12.6078L17.823 9.87702C17.4987 10.109 17.1381 10.2901 16.7413 10.4203C16.3446 10.5503 15.9308 10.6153 15.5 10.6153C14.3525 10.6153 13.3798 10.2163 12.5817 9.41826C11.7837 8.62027 11.3848 7.64752 11.3848 6.50002C11.3848 5.35252 11.7837 4.37977 12.5817 3.58177C13.3798 2.78377 14.3525 2.38477 15.5 2.38477C16.6475 2.38477 17.6202 2.78377 18.4183 3.58177C19.2162 4.37977 19.6152 5.35252 19.6152 6.50002C19.6152 6.95002 19.547 7.3686 19.4105 7.75576C19.274 8.14293 19.0962 8.49868 18.877 8.82301ZM15.5 9.11552C16.232 9.11552 16.8509 8.8626 17.3568 8.35677C17.8626 7.85093 18.1155 7.23202 18.1155 6.50002C18.1155 5.76802 17.8626 5.1491 17.3568 4.64326C16.8509 4.13743 16.232 3.88452 15.5 3.88452C14.768 3.88452 14.1491 4.13743 13.6432 4.64326C13.1374 5.1491 12.8845 5.76802 12.8845 6.50002C12.8845 7.23202 13.1374 7.85093 13.6432 8.35677C14.1491 8.8626 14.768 9.11552 15.5 9.11552ZM4 20V6.00002V12.6153V12.325V20Z" fill="#00AC47"/>
</g>
</svg>
