<svg width="24" height="24" viewBox="0 0 24 24" fill="none" xmlns="http://www.w3.org/2000/svg">
<path d="M9 2.25H4.5C3.25736 2.25 2.25 3.25736 2.25 4.5V9C2.25 10.2426 3.25736 11.25 4.5 11.25H9C10.2426 11.25 11.25 10.2426 11.25 9V4.5C11.25 3.25736 10.2426 2.25 9 2.25Z" fill="white"/>
<path d="M7.8 12.7768C7.72881 12.6697 7.63226 12.5819 7.51894 12.5212C7.40563 12.4605 7.27906 12.4287 7.1505 12.4287C7.02193 12.4287 6.89537 12.4605 6.78205 12.5212C6.66873 12.5819 6.57219 12.6697 6.501 12.7768L2.4045 19.8748C2.33867 19.9888 2.30402 20.1181 2.30402 20.2498C2.30402 20.3814 2.33867 20.5108 2.40449 20.6248C2.47032 20.7388 2.56499 20.8335 2.679 20.8993C2.79302 20.9651 2.92235 20.9998 3.054 20.9998H11.25C11.3816 20.9998 11.511 20.9651 11.625 20.8993C11.739 20.8335 11.8337 20.7388 11.8995 20.6248C11.9653 20.5108 12 20.3814 12 20.2498C12 20.1181 11.9653 19.9888 11.8995 19.8748L7.8 12.7768Z" fill="white"/>
<path d="M17.25 11.25C19.7353 11.25 21.75 9.23528 21.75 6.75C21.75 4.26472 19.7353 2.25 17.25 2.25C14.7647 2.25 12.75 4.26472 12.75 6.75C12.75 9.23528 14.7647 11.25 17.25 11.25Z" fill="white"/>
<path d="M20.4615 13.519C19.9057 13.156 19.2432 12.9922 18.5823 13.0543C17.9213 13.1164 17.301 13.4008 16.8225 13.861C16.4318 13.4774 15.9404 13.2124 15.4053 13.0967C14.8702 12.981 14.3132 13.0193 13.7989 13.2071C13.2847 13.3949 12.8342 13.7246 12.4996 14.158C12.165 14.5914 11.9601 15.1107 11.9085 15.6557C11.8679 16.0809 11.9218 16.5099 12.0664 16.9118C12.2109 17.3138 12.4426 17.6788 12.7448 17.9807L15.762 21.0002C15.9013 21.1396 16.0667 21.2501 16.2487 21.3255C16.4308 21.401 16.6259 21.4398 16.8229 21.4398C17.0199 21.4398 17.215 21.401 17.3971 21.3255C17.5791 21.2501 17.7445 21.1396 17.8838 21.0002L20.9003 17.983C21.2034 17.6795 21.4354 17.3127 21.5799 16.9088C21.7243 16.505 21.7774 16.0742 21.7354 15.6473C21.6935 15.2205 21.5575 14.8082 21.3372 14.4402C21.117 14.0722 20.8179 13.7576 20.4615 13.519Z" fill="white"/>
</svg>
