<svg width="15" height="19" viewBox="0 0 15 19" fill="none" xmlns="http://www.w3.org/2000/svg">
<path d="M5.51925 13.1577H9.48075C9.73692 13.1577 9.95158 13.0711 10.1248 12.8978C10.2979 12.7246 10.3845 12.5099 10.3845 12.2538V9.29225C10.3845 9.03625 10.2979 8.82158 10.1248 8.64825C9.95158 8.47508 9.73692 8.3885 9.48075 8.3885H9.39425V7.3885C9.39425 6.86417 9.21125 6.419 8.84525 6.053C8.47925 5.68683 8.034 5.50375 7.5095 5.50375C6.98517 5.50375 6.54 5.68683 6.174 6.053C5.808 6.419 5.625 6.86417 5.625 7.3885V8.3885H5.51925C5.26308 8.3885 5.04842 8.47508 4.87525 8.64825C4.70208 8.82158 4.6155 9.03625 4.6155 9.29225V12.2538C4.6155 12.5099 4.70208 12.7246 4.87525 12.8978C5.04842 13.0711 5.26308 13.1577 5.51925 13.1577ZM6.5095 8.3885V7.3885C6.5095 7.10517 6.60533 6.86767 6.797 6.676C6.98867 6.48433 7.22617 6.3885 7.5095 6.3885C7.79283 6.3885 8.03033 6.48433 8.222 6.676C8.41367 6.86767 8.5095 7.10517 8.5095 7.3885V8.3885H6.5095ZM7.5 18.7017C7.39617 18.7017 7.29425 18.6934 7.19425 18.6768C7.09425 18.6601 6.99742 18.6351 6.90375 18.6017C4.79492 17.8517 3.11708 16.522 1.87025 14.6125C0.623417 12.7028 0 10.6423 0 8.43075V3.927C0 3.54717 0.10925 3.20525 0.32775 2.90125C0.546083 2.59742 0.8285 2.37717 1.175 2.2405L6.86725 0.1155C7.08142 0.0384999 7.29233 0 7.5 0C7.70767 0 7.91858 0.0384999 8.13275 0.1155L13.825 2.2405C14.1715 2.37717 14.4539 2.59742 14.6723 2.90125C14.8908 3.20525 15 3.54717 15 3.927V8.43075C15 10.6423 14.3766 12.7028 13.1298 14.6125C11.8829 16.522 10.2051 17.8517 8.09625 18.6017C8.00258 18.6351 7.90575 18.6601 7.80575 18.6768C7.70575 18.6934 7.60383 18.7017 7.5 18.7017ZM7.5 17.2308C9.23333 16.6808 10.6667 15.5808 11.8 13.9308C12.9333 12.2808 13.5 10.4474 13.5 8.43075V3.91725C13.5 3.85325 13.4823 3.79558 13.447 3.74425C13.4118 3.69292 13.3622 3.65442 13.298 3.62875L7.60575 1.50375C7.57375 1.49092 7.5385 1.4845 7.5 1.4845C7.4615 1.4845 7.42625 1.49092 7.39425 1.50375L1.702 3.62875C1.63783 3.65442 1.58817 3.69292 1.553 3.74425C1.51767 3.79558 1.5 3.85325 1.5 3.91725V8.43075C1.5 10.4474 2.06667 12.2808 3.2 13.9308C4.33333 15.5808 5.76667 16.6808 7.5 17.2308Z" fill="#E1F2A6"/>
</svg>
