<svg width="34" height="34" viewBox="0 0 34 34" fill="none" xmlns="http://www.w3.org/2000/svg">
<mask id="mask0_108_1059" style="mask-type:alpha" maskUnits="userSpaceOnUse" x="0" y="0" width="34" height="34">
<rect width="34" height="34" fill="#D9D9D9"/>
</mask>
<g mask="url(#mask0_108_1059)">
<path d="M18.7708 26.797L22.0756 23.5411C22.2687 23.3449 22.5145 23.2468 22.8129 23.2468C23.1114 23.2468 23.3587 23.3449 23.5549 23.5411C23.7509 23.7373 23.8489 23.9846 23.8489 24.2831C23.8489 24.5815 23.7509 24.8273 23.5549 25.0205L18.6047 29.9706C18.3632 30.2122 18.0644 30.333 17.7083 30.333C17.3523 30.333 17.0535 30.2122 16.8119 29.9706L11.8618 25.0205C11.6658 24.8242 11.57 24.5777 11.5745 24.281C11.579 23.9839 11.6794 23.7373 11.8756 23.5411C12.0718 23.3449 12.316 23.2468 12.6083 23.2468C12.9006 23.2468 13.1449 23.3449 13.3411 23.5411L16.6458 26.797V13.8125C16.6458 13.5115 16.7477 13.2592 16.9515 13.0556C17.1552 12.8519 17.4076 12.75 17.7087 12.75C18.01 12.75 18.2622 12.8519 18.4655 13.0556C18.6691 13.2592 18.7708 13.5115 18.7708 13.8125V26.797ZM17.7083 6.375C14.5444 6.375 11.8646 7.47292 9.66875 9.66875C7.47292 11.8646 6.375 14.5444 6.375 17.7083C6.375 18.4965 6.45398 19.2715 6.61194 20.0334C6.7699 20.7951 7.00695 21.533 7.3231 22.247C7.45202 22.5485 7.49417 22.8502 7.44954 23.1522C7.40492 23.4542 7.26656 23.7207 7.03446 23.9516C6.82007 24.1648 6.55846 24.2173 6.24963 24.1092C5.94103 24.001 5.71224 23.7863 5.56325 23.465C5.13282 22.5514 4.80628 21.6167 4.58362 20.6607C4.36121 19.7047 4.25 18.7205 4.25 17.7083C4.25 15.8466 4.60322 14.097 5.30967 12.4596C6.01611 10.8222 6.97484 9.39781 8.18585 8.18656C9.39687 6.97531 10.821 6.01646 12.4582 5.31002C14.0954 4.60334 15.8446 4.25 17.7059 4.25C19.5674 4.25 21.3171 4.60322 22.955 5.30967C24.5929 6.01611 26.0176 6.97496 27.229 8.18621C28.4405 9.39722 29.3997 10.8213 30.1066 12.4585C30.8133 14.0957 31.1667 15.8451 31.1667 17.7066C31.1667 18.7157 31.0568 19.7111 30.8369 20.6929C30.6171 21.6746 30.2848 22.6223 29.84 23.5358C29.691 23.8427 29.4667 24.042 29.167 24.1336C28.8674 24.2255 28.6122 24.166 28.4013 23.9551C28.1817 23.7355 28.0442 23.4772 27.9887 23.1802C27.9332 22.8832 27.9655 22.5912 28.0854 22.3044C28.416 21.5679 28.658 20.8138 28.8115 20.0419C28.9649 19.2701 29.0417 18.4922 29.0417 17.7083C29.0417 14.5444 27.9438 11.8646 25.7479 9.66875C23.5521 7.47292 20.8722 6.375 17.7083 6.375Z" fill="white"/>
</g>
</svg>
