<svg width="257" height="55" viewBox="0 0 257 55" fill="none" xmlns="http://www.w3.org/2000/svg">
<path d="M1.00136e-05 49C1.00136e-05 51.9455 2.38782 54.3333 5.33334 54.3333C8.27886 54.3333 10.6667 51.9455 10.6667 49C10.6667 46.0545 8.27886 43.6667 5.33334 43.6667C2.38782 43.6667 1.00136e-05 46.0545 1.00136e-05 49ZM255.484 37.6494C256.03 37.5663 256.405 37.0563 256.322 36.5103L254.969 27.6127C254.885 27.0667 254.376 26.6914 253.83 26.7745C253.284 26.8575 252.908 27.3675 252.991 27.9135L254.194 35.8225L246.285 37.0256C245.739 37.1086 245.364 37.6186 245.447 38.1646C245.53 38.7106 246.04 39.0859 246.586 39.0028L255.484 37.6494ZM7.46011 48.6305C7.90081 48.2976 7.98823 47.6705 7.65536 47.2298C7.3225 46.7891 6.6954 46.7017 6.25469 47.0346L6.8574 47.8325L7.46011 48.6305ZM9.46539 44.6744C9.01637 44.9959 8.91306 45.6206 9.23462 46.0696C9.55619 46.5187 10.1809 46.622 10.6299 46.3004L10.0476 45.4874L9.46539 44.6744ZM13.8657 44.0387C14.3218 43.7274 14.4392 43.1052 14.1278 42.649C13.8164 42.1929 13.1942 42.0755 12.7381 42.3869L13.3019 43.2128L13.8657 44.0387ZM16.0039 40.2061C15.5416 40.5083 15.4117 41.128 15.7139 41.5903C16.016 42.0526 16.6357 42.1825 17.098 41.8804L16.551 41.0433L16.0039 40.2061ZM20.4025 39.7657C20.8705 39.4723 21.012 38.8552 20.7187 38.3873C20.4253 37.9193 19.8082 37.7778 19.3402 38.0711L19.8714 38.9184L20.4025 39.7657ZM22.7456 35.9791C22.2725 36.264 22.1199 36.8785 22.4048 37.3516C22.6897 37.8248 23.3042 37.9774 23.7773 37.6925L23.2614 36.8358L22.7456 35.9791ZM27.1284 35.7131C27.6062 35.4362 27.7691 34.8243 27.4922 34.3465C27.2153 33.8686 26.6035 33.7057 26.1256 33.9826L26.627 34.8478L27.1284 35.7131ZM29.5732 32.0226C29.0908 32.2916 28.9179 32.9007 29.187 33.3831C29.456 33.8654 30.0651 34.0383 30.5475 33.7692L30.0603 32.8959L29.5732 32.0226ZM34.0015 31.8785C34.488 31.6172 34.6706 31.0109 34.4092 30.5244C34.1479 30.0379 33.5416 29.8553 33.0551 30.1166L33.5283 30.9976L34.0015 31.8785ZM36.5412 28.2787C36.0507 28.5325 35.8588 29.1359 36.1126 29.6264C36.3664 30.1169 36.9698 30.3088 37.4603 30.055L37.0008 29.1669L36.5412 28.2787ZM40.9909 28.2625C41.4852 28.0163 41.6863 27.4159 41.4401 26.9216C41.1939 26.4272 40.5935 26.2261 40.0991 26.4723L40.545 27.3674L40.9909 28.2625ZM43.6271 24.7478C43.1291 24.9867 42.9191 25.584 43.1579 26.0819C43.3967 26.5799 43.994 26.79 44.492 26.5511L44.0596 25.6495L43.6271 24.7478ZM48.0635 24.871C48.565 24.6397 48.784 24.0456 48.5526 23.5441C48.3213 23.0426 47.7272 22.8236 47.2257 23.055L47.6446 23.963L48.0635 24.871ZM50.8168 21.4304C50.3119 21.6543 50.0842 22.2451 50.3081 22.75C50.532 23.2548 51.1228 23.4826 51.6276 23.2587L51.2222 22.3445L50.8168 21.4304ZM55.2399 21.6885C55.748 21.4721 55.9845 20.8847 55.7681 20.3766C55.5517 19.8685 54.9644 19.632 54.4562 19.8484L54.8481 20.7684L55.2399 21.6885ZM58.1009 18.3279C57.5896 18.5368 57.3445 19.1205 57.5534 19.6318C57.7622 20.1431 58.346 20.3882 58.8573 20.1793L58.4791 19.2536L58.1009 18.3279ZM62.5104 18.7184C63.0247 18.5171 63.2785 17.937 63.0772 17.4227C62.876 16.9084 62.2959 16.6546 61.7816 16.8559L62.146 17.7871L62.5104 18.7184ZM65.4727 15.443C64.9554 15.6366 64.6931 16.2129 64.8866 16.7301C65.0802 17.2474 65.6565 17.5097 66.1737 17.3162L65.8232 16.3796L65.4727 15.443ZM69.8674 15.9652C70.3875 15.7794 70.6585 15.2072 70.4727 14.6871C70.2869 14.167 69.7146 13.896 69.1945 14.0818L69.531 15.0235L69.8674 15.9652ZM72.9267 12.7801C72.4039 12.958 72.1243 13.5261 72.3022 14.049C72.4802 14.5718 73.0483 14.8514 73.5711 14.6735L73.2489 13.7268L72.9267 12.7801ZM77.3044 13.4346C77.8299 13.2647 78.1182 12.7009 77.9482 12.1754C77.7783 11.6499 77.2145 11.3617 76.689 11.5316L76.9967 12.4831L77.3044 13.4346ZM80.4581 10.3446C79.93 10.5065 79.6332 11.0657 79.795 11.5938C79.9568 12.1218 80.5161 12.4187 81.0441 12.2569L80.7511 11.3007L80.4581 10.3446ZM84.8157 11.133C85.3462 10.9794 85.6517 10.4249 85.4981 9.89436C85.3446 9.36386 84.79 9.0583 84.2595 9.21187L84.5376 10.1724L84.8157 11.133ZM88.0617 8.14341C87.5289 8.28863 87.2146 8.83831 87.3598 9.37116C87.5051 9.90402 88.0547 10.2183 88.5876 10.073L88.3246 9.10822L88.0617 8.14341ZM92.3952 9.06795C92.9303 8.93128 93.2533 8.3867 93.1166 7.85159C92.98 7.31649 92.4354 6.99349 91.9003 7.13016L92.1477 8.09905L92.3952 9.06795ZM95.7323 6.18424C95.1951 6.31225 94.8633 6.85155 94.9913 7.3888C95.1193 7.92604 95.6586 8.25778 96.1959 8.12977L95.9641 7.157L95.7323 6.18424ZM100.037 7.24778C100.576 7.12863 100.917 6.59487 100.798 6.05559C100.679 5.51631 100.145 5.17572 99.6055 5.29487L99.8213 6.27132L100.037 7.24778ZM103.464 4.47582C102.923 4.586 102.573 5.11404 102.684 5.65522C102.794 6.1964 103.322 6.54579 103.863 6.43561L103.663 5.45571L103.464 4.47582ZM107.727 5.6829C108.27 5.58191 108.628 5.05987 108.527 4.5169C108.426 3.97393 107.904 3.61563 107.361 3.71663L107.544 4.69977L107.727 5.6829ZM111.25 3.02755C110.706 3.11923 110.338 3.63506 110.43 4.17968C110.522 4.7243 111.038 5.09148 111.582 4.9998L111.416 4.01368L111.25 3.02755ZM115.464 4.38112C116.01 4.29896 116.386 3.78963 116.304 3.24349C116.222 2.69735 115.712 2.32122 115.166 2.40338L115.315 3.39225L115.464 4.38112ZM119.084 1.84933C118.536 1.92182 118.151 2.42442 118.224 2.97192C118.296 3.51943 118.799 3.90452 119.346 3.83204L119.215 2.84069L119.084 1.84933ZM123.241 3.35191C123.79 3.2893 124.184 2.79371 124.121 2.24498C124.059 1.69626 123.563 1.30219 123.015 1.36481L123.128 2.35836L123.241 3.35191ZM126.956 0.951382C126.407 1.00395 126.004 1.49225 126.056 2.04203C126.109 2.59181 126.597 2.99487 127.147 2.9423L127.052 1.94684L126.956 0.951382ZM131.051 2.60536C131.602 2.56299 132.014 2.08225 131.972 1.53159C131.929 0.980933 131.448 0.568882 130.898 0.611249L130.974 1.6083L131.051 2.60536ZM134.859 0.344007C134.308 0.375959 133.887 0.848827 133.919 1.40019C133.951 1.95155 134.423 2.37261 134.975 2.34066L134.917 1.34233L134.859 0.344007ZM138.883 2.15148C139.435 2.13006 139.865 1.66532 139.844 1.11345C139.823 0.56158 139.358 0.131563 138.806 0.15298L138.845 1.15223L138.883 2.15148ZM142.775 0.0375497C142.223 0.0482135 141.784 0.50449 141.795 1.05667C141.805 1.60885 142.262 2.04784 142.814 2.03718L142.794 1.03736L142.775 0.0375497ZM146.728 2.00001C147.28 2.00021 147.728 1.55266 147.728 1.00038C147.728 0.448094 147.281 0.000214636 146.728 1.23978e-05L146.728 1.00001L146.728 2.00001ZM150.694 0.041058C150.142 0.0298027 149.685 0.468301 149.674 1.02047C149.662 1.57264 150.101 2.02939 150.653 2.04064L150.673 1.04085L150.694 0.041058ZM154.572 2.16018C155.124 2.18263 155.59 1.75348 155.612 1.20165C155.635 0.649818 155.205 0.18428 154.654 0.161837L154.613 1.16101L154.572 2.16018ZM158.608 0.363245C158.057 0.329485 157.583 0.748995 157.549 1.30025C157.515 1.8515 157.935 2.32574 158.486 2.35951L158.547 1.36138L158.608 0.363245ZM162.405 2.64047C162.956 2.68571 163.439 2.27617 163.484 1.72574C163.529 1.17531 163.12 0.692428 162.569 0.647192L162.487 1.64383L162.405 2.64047ZM166.505 1.01218C165.956 0.955414 165.465 1.35474 165.408 1.9041C165.351 2.45345 165.75 2.94482 166.3 3.00159L166.402 2.00689L166.505 1.01218ZM170.205 3.44723C170.753 3.5157 171.253 3.12694 171.322 2.57891C171.39 2.03089 171.001 1.53112 170.453 1.46266L170.329 2.45494L170.205 3.44723ZM174.371 1.99474C173.825 1.91456 173.317 2.29253 173.237 2.83896C173.156 3.38539 173.534 3.89337 174.081 3.97355L174.226 2.98415L174.371 1.99474ZM177.956 4.58506C178.5 4.67707 179.016 4.3102 179.108 3.76563C179.2 3.22107 178.833 2.70502 178.289 2.61301L178.122 3.59904L177.956 4.58506ZM182.192 3.31642C181.65 3.21253 181.126 3.56804 181.022 4.11046C180.918 4.65289 181.274 5.17683 181.816 5.28071L182.004 4.29857L182.192 3.31642ZM185.651 6.0588C186.191 6.17456 186.722 5.83064 186.838 5.29063C186.954 4.75061 186.61 4.219 186.07 4.10323L185.86 5.08101L185.651 6.0588ZM189.953 4.98083C189.416 4.8531 188.877 5.18513 188.749 5.72244C188.621 6.25975 188.953 6.79887 189.49 6.9266L189.722 5.95372L189.953 4.98083ZM193.276 7.87098C193.811 8.01057 194.357 7.69055 194.497 7.1562C194.636 6.62185 194.316 6.07551 193.782 5.93592L193.529 6.90345L193.276 7.87098ZM197.612 6.98231C197.081 6.83081 196.528 7.13855 196.376 7.66965C196.225 8.20075 196.532 8.7541 197.064 8.90559L197.338 7.94395L197.612 6.98231ZM200.82 10.0226C201.347 10.1859 201.907 9.89063 202.071 9.36305C202.234 8.83546 201.939 8.27537 201.411 8.11204L201.115 9.06731L200.82 10.0226ZM205.178 9.32441C204.654 9.14932 204.087 9.43202 203.912 9.95581C203.737 10.4796 204.02 11.0462 204.544 11.2212L204.861 10.2728L205.178 9.32441ZM208.267 12.5127C208.787 12.6995 209.36 12.4296 209.547 11.9099C209.734 11.3902 209.464 10.8174 208.944 10.6306L208.606 11.5716L208.267 12.5127ZM212.637 12.0049C212.122 11.8065 211.543 12.0636 211.345 12.579C211.147 13.0945 211.404 13.6731 211.919 13.8715L212.278 12.9382L212.637 12.0049ZM215.567 15.3223C216.078 15.5321 216.662 15.288 216.872 14.7771C217.082 14.2663 216.838 13.682 216.327 13.4722L215.947 14.3972L215.567 15.3223ZM219.98 15.0203C219.474 14.7991 218.885 15.0301 218.663 15.5362C218.442 16.0423 218.673 16.6318 219.179 16.853L219.58 15.9366L219.98 15.0203ZM222.741 18.4564C223.242 18.6887 223.837 18.4707 224.069 17.9696C224.301 17.4686 224.083 16.8741 223.582 16.6418L223.162 17.5491L222.741 18.4564ZM227.179 18.3576C226.684 18.1143 226.084 18.319 225.841 18.8149C225.598 19.3107 225.803 19.9098 226.298 20.1531L226.739 19.2553L227.179 18.3576ZM229.782 21.9096C230.273 22.1636 230.876 21.9719 231.13 21.4815C231.384 20.9911 231.193 20.3876 230.702 20.1337L230.242 21.0216L229.782 21.9096ZM234.2 21.9935C233.715 21.7289 233.108 21.9075 232.843 22.3923C232.579 22.8771 232.757 23.4846 233.242 23.7491L233.721 22.8713L234.2 21.9935ZM236.685 25.6763C237.164 25.9512 237.775 25.7858 238.05 25.3068C238.325 24.8278 238.16 24.2167 237.681 23.9417L237.183 24.809L236.685 25.6763ZM241.07 25.9351C240.597 25.6501 239.983 25.8027 239.698 26.2758C239.413 26.7489 239.565 27.3634 240.038 27.6483L240.554 26.7917L241.07 25.9351ZM243.383 29.7113C243.85 30.0061 244.468 29.8666 244.763 29.3996C245.058 28.9325 244.918 28.315 244.451 28.0201L243.917 28.8657L243.383 29.7113ZM247.788 30.176C247.328 29.8715 246.707 29.9983 246.403 30.459C246.098 30.9198 246.225 31.5402 246.686 31.8446L247.237 31.0103L247.788 30.176ZM249.915 34.026C250.37 34.3397 250.993 34.2256 251.306 33.7711C251.62 33.3166 251.506 32.6938 251.052 32.3801L250.484 33.203L249.915 34.026ZM254.304 34.6742C253.856 34.3513 253.231 34.4528 252.908 34.9009C252.585 35.349 252.687 35.974 253.135 36.2968L253.719 35.4855L254.304 34.6742ZM5.33334 49L5.94699 49.7896C6.43899 49.4072 6.94342 49.0207 7.46011 48.6305L6.8574 47.8325L6.25469 47.0346C5.73084 47.4302 5.21911 47.8223 4.7197 48.2104L5.33334 49ZM10.0476 45.4874L10.6299 46.3004C11.6687 45.5565 12.7477 44.8019 13.8657 44.0387L13.3019 43.2128L12.7381 42.3869C11.608 43.1583 10.5167 43.9215 9.46539 44.6744L10.0476 45.4874ZM16.551 41.0433L17.098 41.8804C18.1692 41.1804 19.271 40.475 20.4025 39.7657L19.8714 38.9184L19.3402 38.0711C18.1982 38.787 17.0858 39.4992 16.0039 40.2061L16.551 41.0433ZM23.2614 36.8358L23.7773 37.6925C24.8701 37.0344 25.9874 36.3742 27.1284 35.7131L26.627 34.8478L26.1256 33.9826C24.975 34.6494 23.8481 35.3152 22.7456 35.9791L23.2614 36.8358ZM30.0603 32.8959L30.5475 33.7692C31.6781 33.1386 32.8296 32.508 34.0015 31.8785L33.5283 30.9976L33.0551 30.1166C31.8739 30.7511 30.713 31.3868 29.5732 32.0226L30.0603 32.8959ZM37.0008 29.1669L37.4603 30.055C38.6192 29.4554 39.7963 28.8576 40.9909 28.2625L40.545 27.3674L40.0991 26.4723C38.8954 27.072 37.7092 27.6744 36.5412 28.2787L37.0008 29.1669ZM44.0596 25.6495L44.492 26.5511C45.667 25.9876 46.8577 25.4273 48.0635 24.871L47.6446 23.963L47.2257 23.055C46.0108 23.6154 44.8111 24.18 43.6271 24.7478L44.0596 25.6495ZM51.2222 22.3445L51.6276 23.2587C52.8182 22.7306 54.0224 22.207 55.2399 21.6885L54.8481 20.7684L54.4562 19.8484C53.2296 20.3708 52.0163 20.8984 50.8168 21.4304L51.2222 22.3445ZM58.4791 19.2536L58.8573 20.1793C60.063 19.6867 61.2808 19.1995 62.5104 18.7184L62.146 17.7871L61.7816 16.8559C60.5427 17.3407 59.3157 17.8316 58.1009 18.3279L58.4791 19.2536ZM65.8232 16.3796L66.1737 17.3162C67.3943 16.8594 68.6256 16.4089 69.8674 15.9652L69.531 15.0235L69.1945 14.0818C67.9432 14.5288 66.7025 14.9828 65.4727 15.443L65.8232 16.3796ZM73.2489 13.7268L73.5711 14.6735C74.806 14.2532 76.0505 13.8401 77.3044 13.4346L76.9967 12.4831L76.689 11.5316C75.4254 11.9403 74.1712 12.3566 72.9267 12.7801L73.2489 13.7268ZM80.7511 11.3007L81.0441 12.2569C82.2927 11.8742 83.55 11.4994 84.8157 11.133L84.5376 10.1724L84.2595 9.21187C82.9837 9.5812 81.7165 9.95896 80.4581 10.3446L80.7511 11.3007ZM88.3246 9.10822L88.5876 10.073C89.8491 9.72925 91.1184 9.39406 92.3952 9.06795L92.1477 8.09905L91.9003 7.13016C90.613 7.45893 89.3334 7.79685 88.0617 8.14341L88.3246 9.10822ZM95.9641 7.157L96.1959 8.12977C97.4693 7.82633 98.7498 7.53218 100.037 7.24778L99.8213 6.27132L99.6055 5.29487C98.3075 5.58167 97.0163 5.87828 95.7323 6.18424L95.9641 7.157ZM103.663 5.45571L103.863 6.43561C105.145 6.17465 106.433 5.9236 107.727 5.6829L107.544 4.69977L107.361 3.71663C106.056 3.95942 104.757 4.21263 103.464 4.47582L103.663 5.45571ZM111.416 4.01368L111.582 4.9998C112.87 4.78294 114.164 4.57657 115.464 4.38112L115.315 3.39225L115.166 2.40338C113.855 2.60058 112.55 2.80878 111.25 3.02755L111.416 4.01368ZM119.215 2.84069L119.346 3.83204C120.64 3.6608 121.938 3.50063 123.241 3.35191L123.128 2.35836L123.015 1.36481C121.699 1.5149 120.389 1.67654 119.084 1.84933L119.215 2.84069ZM127.052 1.94684L127.147 2.9423C128.444 2.81826 129.745 2.70582 131.051 2.60536L130.974 1.6083L130.898 0.611249C129.58 0.712668 128.266 0.826178 126.956 0.951382L127.052 1.94684ZM134.917 1.34233L134.975 2.34066C136.274 2.26537 137.577 2.20218 138.883 2.15148L138.845 1.15223L138.806 0.15298C137.487 0.204185 136.171 0.267989 134.859 0.344007L134.917 1.34233ZM142.794 1.03736L142.814 2.03718C144.115 2.01204 145.42 1.99953 146.728 2.00001L146.728 1.00001L146.728 1.23978e-05C145.407 -0.000471234 144.09 0.0121663 142.775 0.0375497L142.794 1.03736ZM150.673 1.04085L150.653 2.04064C151.957 2.06722 153.263 2.10694 154.572 2.16018L154.613 1.16101L154.654 0.161837C153.331 0.108042 152.011 0.0679049 150.694 0.041058L150.673 1.04085ZM158.547 1.36138L158.486 2.35951C159.79 2.43938 161.097 2.53292 162.405 2.64047L162.487 1.64383L162.569 0.647192C161.247 0.538491 159.926 0.443962 158.608 0.363245L158.547 1.36138ZM166.402 2.00689L166.3 3.00159C167.6 3.13594 168.902 3.28437 170.205 3.44723L170.329 2.45494L170.453 1.46266C169.135 1.29802 167.819 1.14798 166.505 1.01218L166.402 2.00689ZM174.226 2.98415L174.081 3.97355C175.371 4.16288 176.663 4.36661 177.956 4.58506L178.122 3.59904L178.289 2.61301C176.982 2.39214 175.676 2.18616 174.371 1.99474L174.226 2.98415ZM182.004 4.29857L181.816 5.28071C183.093 5.52533 184.372 5.78459 185.651 6.0588L185.86 5.08101L186.07 4.10323C184.776 3.82593 183.484 3.56377 182.192 3.31642L182.004 4.29857ZM189.722 5.95372L189.49 6.9266C190.752 7.22648 192.014 7.54117 193.276 7.87098L193.529 6.90345L193.782 5.93592C192.505 5.60236 191.229 5.2841 189.953 4.98083L189.722 5.95372ZM197.338 7.94395L197.064 8.90559C198.315 9.26268 199.568 9.63491 200.82 10.0226L201.115 9.06731L201.411 8.11204C200.145 7.71994 198.878 7.34346 197.612 6.98231L197.338 7.94395ZM204.861 10.2728L204.544 11.2212C205.785 11.6362 207.026 12.0665 208.267 12.5127L208.606 11.5716L208.944 10.6306C207.689 10.1794 206.433 9.74407 205.178 9.32441L204.861 10.2728ZM212.278 12.9382L211.919 13.8715C213.136 14.3396 214.352 14.8231 215.567 15.3223L215.947 14.3972L216.327 13.4722C215.098 12.9673 213.868 12.4783 212.637 12.0049L212.278 12.9382ZM219.58 15.9366L219.179 16.853C220.367 17.3721 221.555 17.9065 222.741 18.4564L223.162 17.5491L223.582 16.6418C222.382 16.0857 221.182 15.5453 219.98 15.0203L219.58 15.9366ZM226.739 19.2553L226.298 20.1531C227.461 20.7233 228.622 21.3088 229.782 21.9096L230.242 21.0216L230.702 20.1337C229.529 19.5261 228.355 18.9342 227.179 18.3576L226.739 19.2553ZM233.721 22.8713L233.242 23.7491C234.391 24.376 235.539 25.0183 236.685 25.6763L237.183 24.809L237.681 23.9417C236.522 23.2766 235.362 22.6272 234.2 21.9935L233.721 22.8713ZM240.554 26.7917L240.038 27.6483C241.155 28.3208 242.27 29.0083 243.383 29.7113L243.917 28.8657L244.451 28.0201C243.326 27.3097 242.199 26.6148 241.07 25.9351L240.554 26.7917ZM247.237 31.0103L246.686 31.8446C247.764 32.557 248.841 33.284 249.915 34.026L250.484 33.203L251.052 32.3801C249.966 31.6304 248.878 30.8958 247.788 30.176L247.237 31.0103ZM253.719 35.4855L253.135 36.2968C253.671 36.6828 254.206 37.0726 254.741 37.4661L255.333 36.6607L255.926 35.8553C255.386 35.4578 254.845 35.0641 254.304 34.6742L253.719 35.4855Z" fill="#00AC47" fill-opacity="0.2"/>
</svg>
