<svg width="16" height="10" viewBox="0 0 16 10" fill="none" xmlns="http://www.w3.org/2000/svg">
<path d="M7.21875 0.370551C7.42708 0.123517 7.6875 0 8 0C8.3125 0 8.57292 0.123517 8.78125 0.370551L15.6562 7.78157C15.8854 8.00614 16 8.28686 16 8.62373C16 8.96059 15.8906 9.24693 15.6719 9.48273C15.4531 9.71854 15.1875 9.83644 14.875 9.83644C14.5625 9.83644 14.3021 9.71292 14.0937 9.46589L8 2.93072L1.90625 9.46589C1.69792 9.71292 1.4375 9.83644 1.125 9.83644C0.8125 9.83644 0.546875 9.71854 0.328125 9.48273C0.109375 9.24693 0 8.96059 0 8.62373C0 8.28686 0.114583 8.00614 0.34375 7.78157L7.21875 0.370551Z" fill="#0061FE"/>
</svg>
