<svg width="24" height="24" viewBox="0 0 24 24" fill="none" xmlns="http://www.w3.org/2000/svg">
<g clip-path="url(#clip0_108_484)">
<path d="M11.6616 0.791606C13.837 0.791606 15.9546 1.43961 17.7482 2.65461C19.4955 3.8349 20.8725 5.50118 21.694 7.44518C23.1289 10.8356 22.747 14.712 20.6873 17.7553C19.507 19.5026 17.8408 20.8796 15.8968 21.7012C12.5063 23.136 8.6299 22.7542 5.58663 20.6944C3.83935 19.5142 2.46235 17.8479 1.64078 15.9039C0.205924 12.5134 0.587781 8.63701 2.64749 5.59375C3.82778 3.84647 5.49407 2.46947 7.43806 1.6479C8.76876 1.0809 10.2152 0.791606 11.6616 0.791606ZM11.6616 0.0973206C5.27421 0.0973206 0.09021 5.28132 0.09021 11.6687C0.09021 18.0562 5.27421 23.2402 11.6616 23.2402C18.049 23.2402 23.233 18.0562 23.233 11.6687C23.233 5.28132 18.049 0.0973206 11.6616 0.0973206Z" fill="white"/>
<path d="M2.02295 11.6686C2.02295 15.3598 4.12895 18.7387 7.46152 20.3471L2.85609 7.74587C2.30066 8.98398 2.02295 10.3147 2.02295 11.6686ZM18.1767 11.1825C18.1767 9.99069 17.7485 9.16912 17.3782 8.52116C17.0079 7.87316 16.4294 7.05158 16.4294 6.26473C16.4294 5.47787 17.1005 4.55216 18.0494 4.55216H18.1767C14.2539 0.953441 8.15581 1.21958 4.55709 5.15387C4.20995 5.53573 3.88595 5.94073 3.60823 6.36887H4.23309C5.23981 6.36887 6.80195 6.24158 6.80195 6.24158C7.32266 6.20687 7.38052 6.97058 6.85981 7.04001C6.85981 7.04001 6.33909 7.09787 5.76052 7.13258L9.26665 17.5815L11.3727 11.252L9.86837 7.13258C9.34765 7.09787 8.86165 7.04001 8.86165 7.04001C8.34095 7.0053 8.39881 6.21844 8.91951 6.24158C8.91951 6.24158 10.5164 6.36887 11.4537 6.36887C12.3909 6.36887 14.0225 6.24158 14.0225 6.24158C14.5432 6.20687 14.6011 6.97058 14.0804 7.04001C14.0804 7.04001 13.5597 7.09787 12.9811 7.13258L16.4641 17.5005L17.4592 14.3531C17.8989 12.9761 18.1651 12.0041 18.1651 11.171L18.1767 11.1825ZM11.8239 12.5017L8.93108 20.9141C10.8751 21.4811 12.9464 21.4348 14.8557 20.7637L14.7862 20.6364L11.8239 12.5017ZM20.1207 7.04001C20.1669 7.36401 20.1901 7.69958 20.1901 8.03516C20.1901 9.01869 20.0049 10.118 19.4611 11.4834L16.5104 20C21.0232 17.3733 22.6317 11.6223 20.1207 7.04001Z" fill="white"/>
</g>
<defs>
<clipPath id="clip0_108_484">
<rect width="24" height="24" fill="white"/>
</clipPath>
</defs>
</svg>
