<svg width="396" height="395" viewBox="0 0 396 395" fill="none" xmlns="http://www.w3.org/2000/svg">
<g opacity="0.56">
<mask id="path-1-inside-1_108_553" fill="white">
<path d="M197.513 0C306.54 0.000130179 395.025 88.4821 395.025 197.504C395.025 306.526 306.54 395.009 197.513 395.009C88.4857 395.009 0 306.526 0 197.504C0.000175434 88.4821 88.4858 0 197.513 0ZM197.513 11.8506C172.824 11.8506 148.135 16.7882 125.421 26.4658C92.239 40.4886 63.7967 63.9915 43.6504 93.8145C8.49311 145.758 1.97426 211.922 26.4658 269.791C40.4893 302.972 63.9939 331.412 93.8184 351.558C145.764 386.713 211.931 393.231 269.803 368.74C302.985 354.717 331.427 331.215 351.573 301.392C386.73 249.448 393.248 183.284 368.757 125.416C354.733 92.2353 331.229 63.7939 301.404 43.6484C270.79 22.9106 234.645 11.8506 197.513 11.8506ZM250.847 350.568L252.031 352.74C219.442 364.195 184.087 364.986 150.905 355.309L200.283 211.723L250.847 350.568ZM125.82 345.631C68.9367 318.178 32.9893 260.506 32.9893 197.502C32.9893 174.394 37.7303 151.681 47.2109 130.549L125.82 345.631ZM341.9 118.501C384.761 196.712 357.306 294.871 280.276 339.705L330.642 194.342C339.925 171.036 343.085 152.274 343.085 135.486C343.085 129.759 342.69 124.031 341.9 118.501ZM76.2451 86.3076C137.672 19.1563 241.761 14.6143 308.718 76.0381H306.545C290.349 76.0383 278.894 91.8383 278.894 105.269C278.894 118.699 288.769 132.721 295.09 143.781C301.41 154.841 308.718 168.864 308.718 189.207L308.521 189.01C308.52 203.23 303.977 219.82 296.472 243.323L279.486 297.045L220.034 120.081C229.875 119.491 238.735 118.508 238.798 118.501C247.686 117.316 246.699 104.281 237.811 104.873C237.756 104.877 209.946 107.046 193.963 107.046C177.964 107.046 150.707 104.873 150.707 104.873C141.819 104.478 140.832 117.908 149.72 118.501C149.72 118.501 158.015 119.489 166.903 120.081L192.58 190.393L156.633 298.427L96.7861 120.081C106.63 119.49 115.492 118.507 115.55 118.501C124.438 117.316 123.451 104.281 114.562 104.873C114.54 104.875 87.8911 107.046 70.7148 107.046H60.0488C64.7891 99.7382 70.3197 92.8253 76.2451 86.3076Z"/>
</mask>
<path d="M197.513 0C306.54 0.000130179 395.025 88.4821 395.025 197.504C395.025 306.526 306.54 395.009 197.513 395.009C88.4857 395.009 0 306.526 0 197.504C0.000175434 88.4821 88.4858 0 197.513 0ZM197.513 11.8506C172.824 11.8506 148.135 16.7882 125.421 26.4658C92.239 40.4886 63.7967 63.9915 43.6504 93.8145C8.49311 145.758 1.97426 211.922 26.4658 269.791C40.4893 302.972 63.9939 331.412 93.8184 351.558C145.764 386.713 211.931 393.231 269.803 368.74C302.985 354.717 331.427 331.215 351.573 301.392C386.73 249.448 393.248 183.284 368.757 125.416C354.733 92.2353 331.229 63.7939 301.404 43.6484C270.79 22.9106 234.645 11.8506 197.513 11.8506ZM250.847 350.568L252.031 352.74C219.442 364.195 184.087 364.986 150.905 355.309L200.283 211.723L250.847 350.568ZM125.82 345.631C68.9367 318.178 32.9893 260.506 32.9893 197.502C32.9893 174.394 37.7303 151.681 47.2109 130.549L125.82 345.631ZM341.9 118.501C384.761 196.712 357.306 294.871 280.276 339.705L330.642 194.342C339.925 171.036 343.085 152.274 343.085 135.486C343.085 129.759 342.69 124.031 341.9 118.501ZM76.2451 86.3076C137.672 19.1563 241.761 14.6143 308.718 76.0381H306.545C290.349 76.0383 278.894 91.8383 278.894 105.269C278.894 118.699 288.769 132.721 295.09 143.781C301.41 154.841 308.718 168.864 308.718 189.207L308.521 189.01C308.52 203.23 303.977 219.82 296.472 243.323L279.486 297.045L220.034 120.081C229.875 119.491 238.735 118.508 238.798 118.501C247.686 117.316 246.699 104.281 237.811 104.873C237.756 104.877 209.946 107.046 193.963 107.046C177.964 107.046 150.707 104.873 150.707 104.873C141.819 104.478 140.832 117.908 149.72 118.501C149.72 118.501 158.015 119.489 166.903 120.081L192.58 190.393L156.633 298.427L96.7861 120.081C106.63 119.49 115.492 118.507 115.55 118.501C124.438 117.316 123.451 104.281 114.562 104.873C114.54 104.875 87.8911 107.046 70.7148 107.046H60.0488C64.7891 99.7382 70.3197 92.8253 76.2451 86.3076Z" fill="url(#paint0_linear_108_553)"/>
<path d="M197.513 0V-1V0ZM395.025 197.504H396.025H395.025ZM197.513 395.009V396.009V395.009ZM0 197.504H-1H0ZM197.513 11.8506V10.8506V11.8506ZM125.421 26.4658L125.81 27.3869L125.813 27.3858L125.421 26.4658ZM43.6504 93.8145L44.4785 94.375L44.479 94.3742L43.6504 93.8145ZM26.4658 269.791L27.3869 269.402L27.3867 269.401L26.4658 269.791ZM93.8184 351.558L94.3788 350.729L94.3781 350.729L93.8184 351.558ZM269.803 368.74L269.413 367.819L269.413 367.819L269.803 368.74ZM351.573 301.392L350.745 300.831L350.745 300.832L351.573 301.392ZM368.757 125.416L367.836 125.805L367.836 125.806L368.757 125.416ZM301.404 43.6484L300.843 44.4764L300.845 44.4771L301.404 43.6484ZM250.847 350.568L249.907 350.911L249.933 350.981L249.969 351.047L250.847 350.568ZM252.031 352.74L252.363 353.684L253.472 353.294L252.909 352.261L252.031 352.74ZM150.905 355.309L149.96 354.983L149.619 355.975L150.625 356.269L150.905 355.309ZM200.283 211.723L201.223 211.38L200.256 208.726L199.338 211.397L200.283 211.723ZM125.82 345.631L125.386 346.531L127.606 347.603L126.76 345.288L125.82 345.631ZM32.9893 197.502H31.9893H32.9893ZM47.2109 130.549L48.1502 130.206L47.3056 127.895L46.2985 130.139L47.2109 130.549ZM341.9 118.501L342.777 118.02L340.91 118.642L341.9 118.501ZM280.276 339.705L279.331 339.378L278.449 341.926L280.779 340.569L280.276 339.705ZM330.642 194.342L329.713 193.972L329.704 193.993L329.697 194.014L330.642 194.342ZM343.085 135.486H344.085H343.085ZM76.2451 86.3076L75.5073 85.6327L75.5052 85.6349L76.2451 86.3076ZM308.718 76.0381V77.0381H311.287L309.394 75.3012L308.718 76.0381ZM306.545 76.0381V75.0381V76.0381ZM278.894 105.269H277.894V105.269L278.894 105.269ZM295.09 143.781L294.222 144.277V144.277L295.09 143.781ZM308.718 189.207L308.011 189.914L309.718 191.621V189.207H308.718ZM308.521 189.01L309.228 188.303L307.521 186.596V189.01H308.521ZM296.472 243.323L295.519 243.019L295.518 243.022L296.472 243.323ZM279.486 297.045L278.538 297.363L279.515 300.271L280.44 297.346L279.486 297.045ZM220.034 120.081L219.974 119.083L218.67 119.161L219.086 120.4L220.034 120.081ZM238.798 118.501L238.908 119.495L238.919 119.494L238.93 119.492L238.798 118.501ZM237.811 104.873L237.744 103.875L237.733 103.876L237.811 104.873ZM193.963 107.046V108.046V107.046ZM150.707 104.873L150.786 103.876L150.769 103.875L150.751 103.874L150.707 104.873ZM149.72 118.501L149.838 117.508L149.812 117.505L149.786 117.503L149.72 118.501ZM166.903 120.081L167.843 119.738L167.619 119.127L166.97 119.083L166.903 120.081ZM192.58 190.393L193.529 190.708L193.639 190.377L193.519 190.05L192.58 190.393ZM156.633 298.427L155.685 298.745L156.637 301.582L157.582 298.742L156.633 298.427ZM96.7861 120.081L96.7262 119.083L95.4226 119.161L95.8381 120.399L96.7861 120.081ZM115.55 118.501L115.66 119.495L115.671 119.494L115.682 119.492L115.55 118.501ZM114.562 104.873L114.496 103.875L114.489 103.876L114.481 103.876L114.562 104.873ZM70.7148 107.046V108.046V107.046ZM60.0488 107.046L59.2099 106.502L58.2082 108.046H60.0488V107.046ZM197.513 0V1C305.988 1.00013 394.025 89.0345 394.025 197.504H395.025H396.025C396.025 87.9298 307.092 -0.999869 197.513 -1V0ZM395.025 197.504H394.025C394.025 305.974 305.988 394.009 197.513 394.009V395.009V396.009C307.092 396.009 396.025 307.079 396.025 197.504H395.025ZM197.513 395.009V394.009C89.0379 394.009 1 305.974 1 197.504H0H-1C-1 307.079 87.9334 396.009 197.513 396.009V395.009ZM0 197.504H1C1.00017 89.0344 89.038 1 197.513 1V0V-1C87.9335 -1 -0.999824 87.9297 -1 197.504H0ZM197.513 11.8506V10.8506C172.692 10.8506 147.869 15.8144 125.029 25.5458L125.421 26.4658L125.813 27.3858C148.4 17.7621 172.956 12.8506 197.513 12.8506V11.8506ZM125.421 26.4658L125.032 25.5447C91.6699 39.6434 63.0756 63.2726 42.8217 93.2547L43.6504 93.8145L44.479 94.3742C64.5179 64.7104 92.8081 41.3337 125.81 27.3869L125.421 26.4658ZM43.6504 93.8145L42.8223 93.2539C7.47528 145.477 0.921139 212 25.5449 270.181L26.4658 269.791L27.3867 269.401C3.02739 211.845 9.51095 146.038 44.4785 94.375L43.6504 93.8145ZM26.4658 269.791L25.5447 270.18C39.6442 303.541 63.275 332.133 93.2586 352.386L93.8184 351.558L94.3781 350.729C64.7127 330.691 41.3344 302.403 27.3869 269.402L26.4658 269.791ZM93.8184 351.558L93.2579 352.386C145.484 387.731 212.009 394.284 270.192 369.661L269.803 368.74L269.413 367.819C211.854 392.178 146.044 385.696 94.3788 350.729L93.8184 351.558ZM269.803 368.74L270.192 369.661C303.554 355.563 332.148 331.934 352.402 301.951L351.573 301.392L350.745 300.832C330.706 330.496 302.416 353.872 269.413 367.819L269.803 368.74ZM351.573 301.392L352.401 301.952C387.748 249.728 394.301 183.207 369.678 125.026L368.757 125.416L367.836 125.806C392.195 183.362 385.713 249.168 350.745 300.831L351.573 301.392ZM368.757 125.416L369.678 125.027C355.578 91.6662 331.948 63.0727 301.964 42.8198L301.404 43.6484L300.845 44.4771C330.51 64.5151 353.888 92.8044 367.836 125.805L368.757 125.416ZM301.404 43.6484L301.965 42.8205C271.184 21.97 234.844 10.8506 197.513 10.8506V11.8506V12.8506C234.446 12.8506 270.395 23.8512 300.843 44.4764L301.404 43.6484ZM250.847 350.568L249.969 351.047L251.153 353.219L252.031 352.74L252.909 352.261L251.725 350.09L250.847 350.568ZM252.031 352.74L251.7 351.797C219.311 363.182 184.17 363.969 151.185 354.349L150.905 355.309L150.625 356.269C184.005 366.004 219.573 365.209 252.363 353.684L252.031 352.74ZM150.905 355.309L151.851 355.634L201.229 212.048L200.283 211.723L199.338 211.397L149.96 354.983L150.905 355.309ZM200.283 211.723L199.344 212.065L249.907 350.911L250.847 350.568L251.786 350.226L201.223 211.38L200.283 211.723ZM125.82 345.631L126.255 344.73C69.719 317.445 33.9893 260.124 33.9893 197.502H32.9893H31.9893C31.9893 260.887 68.1543 318.91 125.386 346.531L125.82 345.631ZM32.9893 197.502H33.9893C33.9893 174.532 38.7018 151.959 48.1233 130.958L47.2109 130.549L46.2985 130.139C36.7588 151.404 31.9893 174.256 31.9893 197.502H32.9893ZM47.2109 130.549L46.2717 130.892L124.881 345.974L125.82 345.631L126.76 345.288L48.1502 130.206L47.2109 130.549ZM341.9 118.501L341.023 118.982C383.622 196.716 356.336 294.279 279.773 338.841L280.276 339.705L280.779 340.569C358.277 295.464 385.899 196.708 342.777 118.02L341.9 118.501ZM280.276 339.705L281.221 340.032L331.586 194.669L330.642 194.342L329.697 194.014L279.331 339.378L280.276 339.705ZM330.642 194.342L331.571 194.712C340.896 171.3 344.085 152.412 344.085 135.486H343.085H342.085C342.085 152.135 338.953 170.773 329.713 193.972L330.642 194.342ZM343.085 135.486H344.085C344.085 129.714 343.687 123.938 342.89 118.36L341.9 118.501L340.91 118.642C341.694 124.124 342.085 129.804 342.085 135.486H343.085ZM76.2451 86.3076L76.983 86.9826C138.037 20.2389 241.493 15.7252 308.042 76.775L308.718 76.0381L309.394 75.3012C242.029 13.5034 137.307 18.0737 75.5073 85.6327L76.2451 86.3076ZM308.718 76.0381V75.0381H306.545V76.0381V77.0381H308.718V76.0381ZM306.545 76.0381V75.0381C298.102 75.0382 290.929 79.1594 285.891 84.9614C280.861 90.7528 277.894 98.2881 277.894 105.269H278.894H279.894C279.894 98.8188 282.654 91.739 287.401 86.2728C292.139 80.8171 298.792 77.0382 306.545 77.0381V76.0381ZM278.894 105.269L277.894 105.269C277.894 112.214 280.443 119.243 283.726 125.858C287 132.456 291.1 138.815 294.222 144.277L295.09 143.781L295.958 143.285C292.759 137.687 288.761 131.505 285.517 124.969C282.282 118.451 279.894 111.753 279.894 105.269L278.894 105.269ZM295.09 143.781L294.222 144.277C300.518 155.295 307.718 169.131 307.718 189.207H308.718H309.718C309.718 168.597 302.303 154.387 295.958 143.285L295.09 143.781ZM308.718 189.207L309.425 188.5L309.228 188.303L308.521 189.01L307.813 189.717L308.011 189.914L308.718 189.207ZM308.521 189.01H307.521C307.52 203.05 303.031 219.494 295.519 243.019L296.472 243.323L297.424 243.627C304.923 220.146 309.52 203.41 309.521 189.01H308.521ZM296.472 243.323L295.518 243.022L278.533 296.743L279.486 297.045L280.44 297.346L297.425 243.625L296.472 243.323ZM279.486 297.045L280.434 296.726L220.982 119.763L220.034 120.081L219.086 120.4L278.538 297.363L279.486 297.045ZM220.034 120.081L220.094 121.079C229.96 120.487 238.84 119.502 238.908 119.495L238.798 118.501L238.688 117.507C238.631 117.513 229.79 118.494 219.974 119.083L220.034 120.081ZM238.798 118.501L238.93 119.492C243.981 118.819 246.247 114.721 245.968 110.947C245.828 109.066 245.06 107.214 243.657 105.865C242.239 104.501 240.229 103.71 237.744 103.875L237.811 104.873L237.877 105.871C239.836 105.74 241.283 106.356 242.271 107.307C243.276 108.272 243.865 109.642 243.973 111.094C244.187 113.986 242.503 116.998 238.666 117.51L238.798 118.501ZM237.811 104.873L237.733 103.876C237.667 103.881 209.899 106.046 193.963 106.046V107.046V108.046C209.993 108.046 237.845 105.873 237.888 105.87L237.811 104.873ZM193.963 107.046V106.046C185.997 106.046 175.209 105.504 166.397 104.961C161.994 104.69 158.091 104.419 155.288 104.215C153.887 104.113 152.761 104.029 151.986 103.969C151.598 103.94 151.298 103.916 151.095 103.9C150.993 103.893 150.916 103.886 150.864 103.882C150.839 103.88 150.819 103.879 150.806 103.878C150.799 103.877 150.795 103.877 150.791 103.877C150.79 103.876 150.788 103.876 150.788 103.876C150.787 103.876 150.787 103.876 150.787 103.876C150.787 103.876 150.786 103.876 150.707 104.873C150.628 105.87 150.628 105.87 150.628 105.87C150.628 105.87 150.628 105.87 150.629 105.87C150.63 105.87 150.631 105.87 150.633 105.87C150.636 105.871 150.641 105.871 150.648 105.871C150.661 105.873 150.681 105.874 150.707 105.876C150.759 105.88 150.837 105.886 150.939 105.894C151.143 105.91 151.444 105.934 151.833 105.964C152.611 106.023 153.739 106.108 155.144 106.21C157.952 106.414 161.862 106.686 166.274 106.958C175.09 107.501 185.931 108.046 193.963 108.046V107.046ZM150.707 104.873L150.751 103.874C148.256 103.763 146.251 104.63 144.844 106.048C143.452 107.45 142.689 109.344 142.55 111.244C142.412 113.144 142.893 115.116 144.079 116.672C145.281 118.249 147.158 119.332 149.653 119.499L149.72 118.501L149.786 117.503C147.838 117.373 146.505 116.555 145.67 115.46C144.819 114.344 144.437 112.872 144.545 111.39C144.653 109.907 145.247 108.481 146.263 107.457C147.263 106.45 148.714 105.786 150.663 105.872L150.707 104.873ZM149.72 118.501C149.602 119.494 149.602 119.494 149.602 119.494C149.602 119.494 149.602 119.494 149.602 119.494C149.602 119.494 149.603 119.494 149.603 119.494C149.604 119.494 149.606 119.494 149.608 119.495C149.612 119.495 149.618 119.496 149.626 119.497C149.643 119.499 149.667 119.502 149.699 119.505C149.762 119.513 149.856 119.524 149.979 119.538C150.224 119.566 150.585 119.607 151.044 119.658C151.964 119.761 153.282 119.903 154.878 120.064C158.07 120.385 162.378 120.782 166.837 121.079L166.903 120.081L166.97 119.083C162.541 118.788 158.257 118.394 155.079 118.074C153.49 117.914 152.179 117.772 151.265 117.671C150.808 117.62 150.451 117.579 150.208 117.551C150.087 117.537 149.994 117.526 149.932 117.519C149.9 117.515 149.877 117.513 149.861 117.511C149.853 117.51 149.847 117.509 149.844 117.509C149.842 117.508 149.84 117.508 149.839 117.508C149.839 117.508 149.838 117.508 149.838 117.508C149.838 117.508 149.838 117.508 149.838 117.508C149.838 117.508 149.838 117.508 149.72 118.501ZM166.903 120.081L165.964 120.424L191.641 190.736L192.58 190.393L193.519 190.05L167.843 119.738L166.903 120.081ZM192.58 190.393L191.631 190.077L155.684 298.111L156.633 298.427L157.582 298.742L193.529 190.708L192.58 190.393ZM156.633 298.427L157.581 298.109L97.7342 119.763L96.7861 120.081L95.8381 120.399L155.685 298.745L156.633 298.427ZM96.7861 120.081L96.846 121.079C106.715 120.487 115.597 119.502 115.66 119.495L115.55 118.501L115.439 117.507C115.388 117.513 106.545 118.494 96.7262 119.083L96.7861 120.081ZM115.55 118.501L115.682 119.492C120.733 118.819 122.999 114.721 122.719 110.947C122.58 109.066 121.812 107.214 120.409 105.865C118.991 104.501 116.981 103.71 114.496 103.875L114.562 104.873L114.629 105.871C116.588 105.74 118.035 106.356 119.023 107.307C120.028 108.272 120.617 109.642 120.725 111.094C120.939 113.986 119.255 116.998 115.418 117.51L115.55 118.501ZM114.562 104.873L114.481 103.876C114.45 103.879 87.8433 106.046 70.7148 106.046V107.046V108.046C87.9389 108.046 114.629 105.871 114.644 105.87L114.562 104.873ZM70.7148 107.046V106.046H60.0488V107.046V108.046H70.7148V107.046ZM60.0488 107.046L60.8878 107.59C65.5922 100.338 71.0872 93.4677 76.985 86.9803L76.2451 86.3076L75.5052 85.6349C69.5523 92.1829 63.9861 99.1387 59.2099 106.502L60.0488 107.046Z" fill="url(#paint1_linear_108_553)" mask="url(#path-1-inside-1_108_553)"/>
</g>
<defs>
<linearGradient id="paint0_linear_108_553" x1="197.513" y1="0" x2="197.513" y2="395.009" gradientUnits="userSpaceOnUse">
<stop stop-color="#00AC47" stop-opacity="0.05"/>
<stop offset="1" stop-color="#00AC47" stop-opacity="0"/>
</linearGradient>
<linearGradient id="paint1_linear_108_553" x1="197.513" y1="0" x2="197.513" y2="395.009" gradientUnits="userSpaceOnUse">
<stop stop-color="#00AC47" stop-opacity="0.2"/>
<stop offset="1" stop-color="#00AC47" stop-opacity="0"/>
</linearGradient>
</defs>
</svg>
